<mxfile host="app.diagrams.net" modified="2023-09-18T04:43:34.930Z" agent="Mozilla/5.0 (Windows NT 10.0; Win64; x64) AppleWebKit/537.36 (KHTML, like Gecko) Chrome/116.0.0.0 Safari/537.36 Edg/116.0.1938.81" etag="MjhJwKvyeW2dRwMOzQfK" version="21.7.5" type="device">
  <diagram id="DGaD0VAC34pHWQrbo-bv" name="Page-1">
    <mxGraphModel dx="2269" dy="1229" grid="1" gridSize="10" guides="1" tooltips="1" connect="1" arrows="1" fold="1" page="1" pageScale="1" pageWidth="850" pageHeight="1100" math="0" shadow="0">
      <root>
        <mxCell id="0" />
        <mxCell id="1" parent="0" />
        <mxCell id="mvXsUkbKWVMToW5rihk2-51" value="" style="rounded=0;whiteSpace=wrap;html=1;fillColor=#f5f5f5;fontColor=#333333;strokeColor=none;" vertex="1" parent="1">
          <mxGeometry x="1090" y="238" width="167.8" height="120" as="geometry" />
        </mxCell>
        <mxCell id="mvXsUkbKWVMToW5rihk2-46" value="" style="rounded=0;whiteSpace=wrap;html=1;fillColor=#f5f5f5;fontColor=#333333;strokeColor=none;" vertex="1" parent="1">
          <mxGeometry x="1400" y="238" width="187.8" height="120" as="geometry" />
        </mxCell>
        <mxCell id="mvXsUkbKWVMToW5rihk2-36" value="" style="rounded=1;whiteSpace=wrap;html=1;opacity=70;fillColor=none;strokeWidth=2;" vertex="1" parent="1">
          <mxGeometry x="543.6" y="316" width="500" height="444" as="geometry" />
        </mxCell>
        <mxCell id="d3zHUJF60a2IDh03rwR_-40" value="" style="rounded=0;whiteSpace=wrap;html=1;fillColor=#f5f5f5;fontColor=#333333;strokeColor=none;" parent="1" vertex="1">
          <mxGeometry x="520" y="40" width="170" height="120" as="geometry" />
        </mxCell>
        <mxCell id="mvXsUkbKWVMToW5rihk2-44" style="edgeStyle=orthogonalEdgeStyle;rounded=0;orthogonalLoop=1;jettySize=auto;html=1;exitX=1;exitY=0.5;exitDx=0;exitDy=0;entryX=0;entryY=0.5;entryDx=0;entryDy=0;strokeWidth=2;" edge="1" parent="1" source="d3zHUJF60a2IDh03rwR_-13" target="mvXsUkbKWVMToW5rihk2-51">
          <mxGeometry relative="1" as="geometry">
            <mxPoint x="1080" y="298" as="targetPoint" />
          </mxGeometry>
        </mxCell>
        <mxCell id="d3zHUJF60a2IDh03rwR_-13" value="" style="rounded=0;whiteSpace=wrap;html=1;fillColor=#f5f5f5;fontColor=#333333;strokeColor=none;" parent="1" vertex="1">
          <mxGeometry x="710" y="238" width="170" height="120" as="geometry" />
        </mxCell>
        <mxCell id="d3zHUJF60a2IDh03rwR_-1" value="" style="image;aspect=fixed;html=1;points=[];align=center;fontSize=12;image=img/lib/azure2/analytics/Azure_Databricks.svg;" parent="1" vertex="1">
          <mxGeometry x="762.2" y="248" width="62.8" height="68" as="geometry" />
        </mxCell>
        <mxCell id="d3zHUJF60a2IDh03rwR_-12" value="&lt;span style=&quot;font-size: 16px;&quot;&gt;Azure Databricks&lt;/span&gt;" style="text;html=1;strokeColor=none;fillColor=none;align=center;verticalAlign=middle;whiteSpace=wrap;rounded=0;strokeWidth=1;fontSize=16;fontStyle=1;fontFamily=poppins;fontSource=https%3A%2F%2Ffonts.googleapis.com%2Fcss%3Ffamily%3Dpoppins;" parent="1" vertex="1">
          <mxGeometry x="714.6" y="316" width="160" height="40" as="geometry" />
        </mxCell>
        <mxCell id="d3zHUJF60a2IDh03rwR_-29" value="" style="group" parent="1" vertex="1" connectable="0">
          <mxGeometry x="310" y="238" width="170.00000000000003" height="120" as="geometry" />
        </mxCell>
        <mxCell id="d3zHUJF60a2IDh03rwR_-16" value="" style="rounded=0;whiteSpace=wrap;html=1;fillColor=#f5f5f5;fontColor=#333333;strokeColor=none;" parent="d3zHUJF60a2IDh03rwR_-29" vertex="1">
          <mxGeometry width="170" height="120" as="geometry" />
        </mxCell>
        <mxCell id="d3zHUJF60a2IDh03rwR_-18" value="&lt;span style=&quot;font-size: 16px;&quot;&gt;Azure Data Lake Storage&lt;/span&gt;" style="text;html=1;strokeColor=none;fillColor=none;align=center;verticalAlign=middle;whiteSpace=wrap;rounded=0;strokeWidth=1;fontSize=16;fontStyle=1;fontFamily=poppins;fontSource=https%3A%2F%2Ffonts.googleapis.com%2Fcss%3Ffamily%3Dpoppins;" parent="d3zHUJF60a2IDh03rwR_-29" vertex="1">
          <mxGeometry x="3.6000000000000227" y="70" width="160" height="40" as="geometry" />
        </mxCell>
        <mxCell id="d3zHUJF60a2IDh03rwR_-2" value="" style="image;aspect=fixed;html=1;points=[];align=center;fontSize=12;image=img/lib/azure2/storage/Data_Lake_Storage_Gen1.svg;" parent="d3zHUJF60a2IDh03rwR_-29" vertex="1">
          <mxGeometry x="51.6" y="10" width="61.54" height="50" as="geometry" />
        </mxCell>
        <mxCell id="d3zHUJF60a2IDh03rwR_-36" value="" style="rounded=0;whiteSpace=wrap;html=1;fillColor=#f5f5f5;fontColor=#333333;strokeColor=none;" parent="1" vertex="1">
          <mxGeometry x="40" y="238" width="170" height="120" as="geometry" />
        </mxCell>
        <mxCell id="d3zHUJF60a2IDh03rwR_-31" value="" style="image;aspect=fixed;html=1;points=[];align=center;fontSize=12;image=img/lib/azure2/general/Files.svg;" parent="1" vertex="1">
          <mxGeometry x="94" y="250" width="62" height="67.86" as="geometry" />
        </mxCell>
        <mxCell id="d3zHUJF60a2IDh03rwR_-33" value="&lt;span style=&quot;font-size: 16px;&quot;&gt;Batch Files&lt;br&gt;&lt;/span&gt;" style="text;html=1;strokeColor=none;fillColor=none;align=center;verticalAlign=middle;whiteSpace=wrap;rounded=0;strokeWidth=1;fontSize=16;fontStyle=1;fontFamily=poppins;fontSource=https%3A%2F%2Ffonts.googleapis.com%2Fcss%3Ffamily%3Dpoppins;" parent="1" vertex="1">
          <mxGeometry x="45" y="316" width="160" height="40" as="geometry" />
        </mxCell>
        <mxCell id="d3zHUJF60a2IDh03rwR_-39" value="" style="image;aspect=fixed;html=1;points=[];align=center;fontSize=12;image=img/lib/azure2/storage/Azure_HCP_Cache.svg;" parent="1" vertex="1">
          <mxGeometry x="569.6" y="50" width="68" height="63" as="geometry" />
        </mxCell>
        <mxCell id="d3zHUJF60a2IDh03rwR_-42" value="&lt;span style=&quot;font-size: 16px;&quot;&gt;Streaming Data&lt;/span&gt;" style="text;html=1;strokeColor=none;fillColor=none;align=center;verticalAlign=middle;whiteSpace=wrap;rounded=0;strokeWidth=1;fontSize=16;fontStyle=1;fontFamily=poppins;fontSource=https%3A%2F%2Ffonts.googleapis.com%2Fcss%3Ffamily%3Dpoppins;" parent="1" vertex="1">
          <mxGeometry x="523.6" y="116" width="160" height="40" as="geometry" />
        </mxCell>
        <mxCell id="d3zHUJF60a2IDh03rwR_-45" value="" style="endArrow=classic;html=1;rounded=0;strokeWidth=2;entryX=0;entryY=0.25;entryDx=0;entryDy=0;" parent="1" target="d3zHUJF60a2IDh03rwR_-13" edge="1">
          <mxGeometry width="50" height="50" relative="1" as="geometry">
            <mxPoint x="600" y="160" as="sourcePoint" />
            <mxPoint x="770" y="230" as="targetPoint" />
            <Array as="points">
              <mxPoint x="600" y="160" />
              <mxPoint x="600" y="268" />
            </Array>
          </mxGeometry>
        </mxCell>
        <mxCell id="d3zHUJF60a2IDh03rwR_-47" value="" style="endArrow=classic;html=1;rounded=0;strokeWidth=2;startArrow=classic;startFill=1;entryX=0.5;entryY=1;entryDx=0;entryDy=0;exitX=0.5;exitY=0;exitDx=0;exitDy=0;" parent="1" edge="1" target="YQSdu3m_dBlDb1DBKMtC-12" source="d3zHUJF60a2IDh03rwR_-13">
          <mxGeometry width="50" height="50" relative="1" as="geometry">
            <mxPoint x="834" y="230" as="sourcePoint" />
            <mxPoint x="838" y="160" as="targetPoint" />
          </mxGeometry>
        </mxCell>
        <mxCell id="YQSdu3m_dBlDb1DBKMtC-2" value=".csv" style="text;html=1;strokeColor=none;fillColor=none;align=center;verticalAlign=middle;whiteSpace=wrap;rounded=0;fontSize=14;" parent="1" vertex="1">
          <mxGeometry x="95" y="368" width="60" height="30" as="geometry" />
        </mxCell>
        <mxCell id="YQSdu3m_dBlDb1DBKMtC-12" value="" style="rounded=0;whiteSpace=wrap;html=1;fillColor=#f5f5f5;fontColor=#333333;strokeColor=none;" parent="1" vertex="1">
          <mxGeometry x="711.1" y="36" width="167.8" height="120" as="geometry" />
        </mxCell>
        <mxCell id="YQSdu3m_dBlDb1DBKMtC-14" value="&lt;span style=&quot;font-size: 16px;&quot;&gt;Git Version Control&lt;/span&gt;" style="text;html=1;strokeColor=none;fillColor=none;align=center;verticalAlign=middle;whiteSpace=wrap;rounded=0;strokeWidth=1;fontSize=16;fontStyle=1;fontFamily=poppins;fontSource=https%3A%2F%2Ffonts.googleapis.com%2Fcss%3Ffamily%3Dpoppins;" parent="1" vertex="1">
          <mxGeometry x="714.6999999999999" y="110" width="160" height="40" as="geometry" />
        </mxCell>
        <mxCell id="YQSdu3m_dBlDb1DBKMtC-15" value="" style="shape=image;html=1;verticalAlign=top;verticalLabelPosition=bottom;labelBackgroundColor=#ffffff;imageAspect=0;aspect=fixed;image=https://cdn4.iconfinder.com/data/icons/ionicons/512/icon-social-github-128.png" parent="1" vertex="1">
          <mxGeometry x="763.3000000000001" y="47.19999999999999" width="62.8" height="62.8" as="geometry" />
        </mxCell>
        <mxCell id="mvXsUkbKWVMToW5rihk2-3" value="&lt;span style=&quot;font-size: 16px;&quot;&gt;Delta Live Table Pipeline&lt;br&gt;&lt;/span&gt;" style="text;html=1;strokeColor=none;fillColor=none;align=center;verticalAlign=middle;whiteSpace=wrap;rounded=0;strokeWidth=1;fontSize=16;fontStyle=1;fontFamily=poppins;fontSource=https%3A%2F%2Ffonts.googleapis.com%2Fcss%3Ffamily%3Dpoppins;" vertex="1" parent="1">
          <mxGeometry x="654.31" y="760" width="286.4" height="40" as="geometry" />
        </mxCell>
        <mxCell id="mvXsUkbKWVMToW5rihk2-14" style="edgeStyle=orthogonalEdgeStyle;rounded=0;orthogonalLoop=1;jettySize=auto;html=1;" edge="1" parent="1" source="mvXsUkbKWVMToW5rihk2-9" target="mvXsUkbKWVMToW5rihk2-11">
          <mxGeometry relative="1" as="geometry" />
        </mxCell>
        <mxCell id="mvXsUkbKWVMToW5rihk2-16" style="edgeStyle=orthogonalEdgeStyle;rounded=0;orthogonalLoop=1;jettySize=auto;html=1;entryX=0.528;entryY=-0.04;entryDx=0;entryDy=0;entryPerimeter=0;" edge="1" parent="1" source="mvXsUkbKWVMToW5rihk2-9" target="d3zHUJF60a2IDh03rwR_-6">
          <mxGeometry relative="1" as="geometry" />
        </mxCell>
        <mxCell id="mvXsUkbKWVMToW5rihk2-21" style="edgeStyle=orthogonalEdgeStyle;rounded=0;orthogonalLoop=1;jettySize=auto;html=1;entryX=0.008;entryY=0.846;entryDx=0;entryDy=0;entryPerimeter=0;endArrow=none;endFill=0;startArrow=classic;startFill=1;" edge="1" parent="1" source="mvXsUkbKWVMToW5rihk2-9" target="d3zHUJF60a2IDh03rwR_-13">
          <mxGeometry relative="1" as="geometry">
            <mxPoint x="612" y="340.0000000000002" as="targetPoint" />
            <Array as="points">
              <mxPoint x="612" y="339" />
            </Array>
          </mxGeometry>
        </mxCell>
        <mxCell id="mvXsUkbKWVMToW5rihk2-9" value="" style="image;aspect=fixed;html=1;points=[];align=center;fontSize=12;image=img/lib/azure2/management_governance/Activity_Log.svg;" vertex="1" parent="1">
          <mxGeometry x="583.11" y="418" width="56.00000000000001" height="67" as="geometry" />
        </mxCell>
        <mxCell id="mvXsUkbKWVMToW5rihk2-15" style="edgeStyle=orthogonalEdgeStyle;rounded=0;orthogonalLoop=1;jettySize=auto;html=1;entryX=-0.021;entryY=0.503;entryDx=0;entryDy=0;entryPerimeter=0;" edge="1" parent="1" source="mvXsUkbKWVMToW5rihk2-11" target="mvXsUkbKWVMToW5rihk2-12">
          <mxGeometry relative="1" as="geometry" />
        </mxCell>
        <mxCell id="mvXsUkbKWVMToW5rihk2-17" style="edgeStyle=orthogonalEdgeStyle;rounded=0;orthogonalLoop=1;jettySize=auto;html=1;entryX=0.547;entryY=0;entryDx=0;entryDy=0;entryPerimeter=0;" edge="1" parent="1" source="mvXsUkbKWVMToW5rihk2-11" target="d3zHUJF60a2IDh03rwR_-5">
          <mxGeometry relative="1" as="geometry" />
        </mxCell>
        <mxCell id="mvXsUkbKWVMToW5rihk2-11" value="" style="image;aspect=fixed;html=1;points=[];align=center;fontSize=12;image=img/lib/azure2/management_governance/Activity_Log.svg;" vertex="1" parent="1">
          <mxGeometry x="768.11" y="418" width="56.00000000000001" height="67" as="geometry" />
        </mxCell>
        <mxCell id="mvXsUkbKWVMToW5rihk2-18" style="edgeStyle=orthogonalEdgeStyle;rounded=0;orthogonalLoop=1;jettySize=auto;html=1;entryX=0.457;entryY=-0.04;entryDx=0;entryDy=0;entryPerimeter=0;" edge="1" parent="1" source="mvXsUkbKWVMToW5rihk2-12" target="d3zHUJF60a2IDh03rwR_-7">
          <mxGeometry relative="1" as="geometry" />
        </mxCell>
        <mxCell id="mvXsUkbKWVMToW5rihk2-20" style="edgeStyle=orthogonalEdgeStyle;rounded=0;orthogonalLoop=1;jettySize=auto;html=1;entryX=1;entryY=0.85;entryDx=0;entryDy=0;entryPerimeter=0;" edge="1" parent="1" source="mvXsUkbKWVMToW5rihk2-12" target="d3zHUJF60a2IDh03rwR_-13">
          <mxGeometry relative="1" as="geometry">
            <mxPoint x="978" y="340" as="targetPoint" />
            <Array as="points">
              <mxPoint x="978" y="340" />
            </Array>
          </mxGeometry>
        </mxCell>
        <mxCell id="mvXsUkbKWVMToW5rihk2-12" value="" style="image;aspect=fixed;html=1;points=[];align=center;fontSize=12;image=img/lib/azure2/management_governance/Activity_Log.svg;" vertex="1" parent="1">
          <mxGeometry x="949.11" y="418" width="56.00000000000001" height="67" as="geometry" />
        </mxCell>
        <mxCell id="mvXsUkbKWVMToW5rihk2-33" style="edgeStyle=orthogonalEdgeStyle;rounded=0;orthogonalLoop=1;jettySize=auto;html=1;entryX=0;entryY=0.5;entryDx=0;entryDy=0;strokeWidth=2;startArrow=classic;startFill=1;" edge="1" parent="1" source="d3zHUJF60a2IDh03rwR_-16" target="d3zHUJF60a2IDh03rwR_-13">
          <mxGeometry relative="1" as="geometry" />
        </mxCell>
        <mxCell id="mvXsUkbKWVMToW5rihk2-34" style="edgeStyle=orthogonalEdgeStyle;rounded=0;orthogonalLoop=1;jettySize=auto;html=1;entryX=1;entryY=0.5;entryDx=0;entryDy=0;strokeWidth=2;startArrow=classic;startFill=1;endArrow=none;endFill=0;" edge="1" parent="1" source="d3zHUJF60a2IDh03rwR_-16" target="d3zHUJF60a2IDh03rwR_-36">
          <mxGeometry relative="1" as="geometry" />
        </mxCell>
        <mxCell id="d3zHUJF60a2IDh03rwR_-6" value="" style="html=1;verticalLabelPosition=bottom;align=center;labelBackgroundColor=#ffffff;verticalAlign=top;strokeWidth=2;strokeColor=#FF9933;shadow=0;dashed=0;shape=mxgraph.ios7.icons.data;" parent="1" vertex="1">
          <mxGeometry x="582.09" y="538" width="53.02" height="76" as="geometry" />
        </mxCell>
        <mxCell id="d3zHUJF60a2IDh03rwR_-27" value="&lt;font style=&quot;font-size: 15px;&quot;&gt;Bronze&lt;br&gt;Layer&lt;br&gt;&lt;/font&gt;" style="text;html=1;strokeColor=none;fillColor=none;align=center;verticalAlign=middle;whiteSpace=wrap;rounded=0;strokeWidth=1;fontSize=14;fontStyle=1;fontFamily=poppins;fontSource=https%3A%2F%2Ffonts.googleapis.com%2Fcss%3Ffamily%3Dpoppins;" parent="1" vertex="1">
          <mxGeometry x="568.6" y="618" width="80" height="40" as="geometry" />
        </mxCell>
        <mxCell id="mvXsUkbKWVMToW5rihk2-7" value="" style="shape=image;verticalLabelPosition=bottom;labelBackgroundColor=default;verticalAlign=top;aspect=fixed;imageAspect=0;image=data:image/png,iVBORw0KGgoAAAANSUhEUgAAAooAAAIUCAYAAACdGA2/AAAgAElEQVR4Xuy9B3xkV3n+/9zpGmlm1Ffbu72umMCPDgmYQCCAMWAMpoQSAgECJKb8KaYGAgEMpgUCJJQAxhRTQklCL3FCcQwGe73r7dpdrbpG0kiadv+f95Q7d2Qtq13NSHNnniHOqtxyzvec0X3mrY7rui74IgESIAESIAESIAESIIFFBBwKRe4JEiABEiABEiABEiCBpQhQKHJfkAAJkAAJkAAJkAAJLEmAQpEbgwRIgARIgARIgARIgEKRe4AESIAESIAESIAESGD5BGhRXD4rHkkCJEACJEACJEACLUWAQrGllpuTJQESIAESIAESIIHlE6BQXD4rHkkCJEACJEACJEACLUWAQrGllpuTJQESIAESIAESIIHlE6BQXD4rHkkCJEACJEACJEACLUWAQrGllpuTJQESIAESIAESIIHlE6BQXD4rHkkCJEACJEACJEACLUWAQrGllpuTJQESIAESIAESIIHlE6BQXD4rHkkCJEACJEACJEACLUWAQrGllpuTJQESIAESIAESIIHlE6BQXD4rHkkCJEACJEACJEACLUWAQrGllpuTJQESIAESIAESIIHlE6BQXD4rHkkCJEACJEACJEACLUWAQrGllpuTJQESIAESIAESIIHlE6BQXD4rHkkCJEACJEACJEACLUWAQrGllpuTJQESIAESIAESIIHlE6BQXD4rHkkCJEACJEACJEACLUWAQrGllpuTJQESIAESIAESIIHlE6BQXD4rHkkCJEACJEACJEACLUWAQrGllpuTJQESIAESIAESIIHlE6BQXD4rHkkCJEACJEACJEACLUWAQrGllpuTJQESIAESIAESIIHlE6BQXD4rHkkCJEACJEACJEACLUWAQrGllpuTJQESIAESIAESIIHlE6BQXD4rHkkCJEACJEACJEACLUWAQrGllpuTJQESIAESIAESIIHlE6BQXD4rHkkCJEACJEACJEACLUWAQrGllpuTJQESIAESIAESIIHlE6BQXD4rHkkCJEACJEACJEACLUWAQrGllpuTJQESIAESIAESIIHlE6BQXD4rHkkCJEACJEACJEACLUWAQrGllpuTJQESIAESIAESIIHlE6BQXD4rHkkCJEACJEACJEACLUWAQrGllpuTJQESIAESIAESIIHlE6BQXD4rHkkCJEACJEACJEACLUWAQrGllpuTJYFmIeDqibgO4Lgw38GBA/WN+Ue+cdSB+v+rUwAcni3g7tk89s3mcWy2gLlSuQLGAdqjIexqj+GyTAI722PIhEOAI8fIheWep+GoBuLCdfQg1HjkJ64LxzndSc2yJpwHCZBAMxKgUGzGVeWcSKDJCShp6GoppkWZfvm+hKuEmf6dFWzZYgnHckX891gOv5icw61T89iXzWOmWDIq0gFCQCYewr1SCfxxbzse2N2GS9MJdMccJMIOHDektKKVnxWRqm+nZasanBGujvoZhWKTb0pOjwSalACFYpMuLKdFAk1NwNXyTIlBo9SUdhOrn9aQcJzQIgQufj05h386OIkfj+ZwbC6PYrmEshuBC7EWyrliOXTk/xCGi2gohEs7E3jR9i48vLcdW9uiRiQaAeo6KDvWaik3DlWMjUqn2sHRmtjU+5GTI4EmJkCh2MSLy6mRQDMS0E7dih3POp6Nk1cLSHWEtiNqu2IZPxidx7+fnMbXj2dxKl9ETtzNIuREHFrzoLUGet+H0BUN4/yOOJ6/tROX97dje3vUmA61C1prQT2esvFKW1lo/7WO6GZcD86JBEiguQlQKDb3+nJ2JNB0BIwkM5a7kHH1VocNaqGopWK+XMZooYgPH5zC105M487JuUUH+2SdikM0IlT0o4hI8+0TNqRw9aY0nrohjbAIQk8FWokqsYnG62x84F6MYpVsbbol4YRIgASamACFYhMvLqdGAs1IQOs2HVPouOFKvKAYBythiXCUG9rBcL6Mn0/k8P79Y/jJyKxGstglrMIKJT7RZMKoAEPtxtbxhi5EHV69IYOPXroe7REHkZCWga4ENRobphaWOj5RYicrySxl4wqnC7oZ9yTnRALNTIBCsZlXl3MjgaYkILZCrQpVgkgll8VYF43/13WRLwO/mlrAG/eP4bfjOYzO5bXoU+5m6zcu65/Za5k4RX2czYYOKRF57842PGNzBk9Zn8bWZMSITm291IIypE8TZ7dJZlGXVr+jSGzK7chJkUCTE6BQbPIF5vRIoLkIGEFWFaVY8RZ7sYBKA7o4OFvAt4ZncN1dY5hZKKBcFlFoXMrGWKiSWKo0XCWyUbOr/LI3HsFFmTiuO78XD+hKoD1SEZxKLEoijEmm8dzQNuuaOrG5tiJnQwItQoBCsUUWmtMkgeYgUC0UJUnFVitUIlFZA41Fz3Xx9aEsvnBsCt84MYt82ZTAccImicWIQKvsrLvZAyUCUqyG4k6Wc3XSSzLs4O0X9+Fx69uxKxkzQlI7oXW9RHNdt1K6x7qgm2MNOAsSIIFWIkCh2EqrzbmSQBMQ0ILQGvoqxbYlNtDWKiy4LsYLZfzj3WP4zNFJjM0VTFiisRZ6SdM2sLHqosZEKQfZEjsiFPW5USeEP+5vx7O3ZPCszWldVkf9TscnejUWfUKxUsmxCRaAUyABEmgpAhSKLbXcnCwJBJ+AJxSt4U5Nyd+BxcVovoT/HJ7BJ49M4QcjOUBczurl9//6ghurfuf/uT2+0rlFKiX2x6N4yqY0XrKzC1vbImiTNGhfMR49JLEoVnjT8xz8vccZkEArEqBQbMVV55xJIMAEqoSidvjq2EAzp0LZxd6ZBbxt7zD+e2wex3PW5Wzd1l5xRZOhbC2HYj30tfJTmdG+ot0qK8VcoxzCA3va8YxtGTxpIIWBRNjXKrBS49FX7jHAxDl0EiCBViZAodjKq8+5k0DACIgEEykn1RO1MKzY6bSALOP4fAk/Hp3DG+84haNzBYhwrMerIx7BhZ1t+OBFfbgslUAspC2I3ogWmz7rMQhekwRIgATqTIBCsc6AeXkSIIHaEvB3QvH6KZtbiHXxO6dm8JljU/j2iWlMF30WwtoOA07IQX9bGK/d1YM/60+p7i1aJVYLU22DrHSJqfEweDkSIAESqCsBCsW64uXFSYAEak7AlJ/xCmGbvOeS62IsX8I/HZ7ARw6NY2yuiFJ9jImeLO2IOHiEJLZs7sTjBzKIhkUQ+lzcppWgtoIuqsJTczC8IAmQAAnUngCFYu2Z8ookQAL1JmA6pkj3E9Wqz3UwUwC+M5LFZ49m8e2hWZS9Ytn1Goy2EiZCwN/s7MIrdvegLx5FxBTWtk1d5O6stV2vNeB1SYAE6k2AQrHehHl9EiCBmhKwwlAuKkJRohbFwzyYK+O6fcP40UgOx2eKOpqxnqnGlTo4eHh/O56+uRNP3dCBdFTqNFZXTlRjplqs6T7gxUiABFaHAIXi6nDmXUiABGpEwGvfZ6IBpafzqfkS/nd8Aa/aewr7sgu6FfQS8YI1GoK+jDIZSvaKi/VtUTy0tx1v2tOL7ckoEqYPtFWqFIo1Jc+LkQAJrCIBCsVVhM1bkQAJrJyAF3Zoq9U4wE9Gc/j00Sl8c2gaI/miKXujC2AvTi5Z+QgWXcEU+t7VEcdbLxzAQ3rasKlNIhK9quC+r+tp4qz5zHhBEiABEgCFIjcBCZBAwAhUBJjU0R5eKOMLxydxw92jGJovYUGVwzEq0l/xuuazlHtU+kanog7u1d2Ga3f24InrOiDtBeFIeW7d3q++fvCaT44XJAESIAFFgEKRG4EESCBgBCqiS2okfnd4Fv92bBI3DU6q2EDtDhZttlQ3llpPtVKU23FcRCIOrt3Vi+dt6cSOtjBCIhRVbCKFYq3J83okQAKrQ4BCcXU48y4kQAK1ImDaM4tXebpYwqvvHMJ3hqZxTNKelSgzhWjE3FhvT6+qsG2FoK7b8/CBFK7alMFzN6aQCBsXtNecut4DqhVkXocESIAENAEKRe4EEiCBgBHQUYrH54v4n/F5vHf/CP5vch7zRRu0qP60+Vy9dS2maNiZ+7lldLdF8MiBFD54UT+6omFEVGILLYoB22QcLgmQgP3r5rq6zwFfJEACJLCmBHxaqkpWed9U/lRJOZyfjc/hn45M4cenpnFqvnDP3BGTkVzfOdnBGUuh/DkNO7ikM4HX7e7Bg7uT2NQWuUe7weox+Wcr7nK/yK3v6Hl1EiABEjgTAVoUz0SIvycBEqg/AZucLInKpgWeSgKxn2M99662Fo4tlPD549P4272jKOcLcMslk+kc1kJLnSeu53q6eu2g5Z7yskLWQV8igvv3JPCy7d34494kYuKBXkIAaolY9nWutl9LEgxfJEACJLD2BCgU134NOAISIAFPammxVckUrvRJ9kP69qksvjCYxeeOzcKVpBWVuCL/+qxxdVdaxtVdDhsNaHsLOoiEQkiFHbzq/F48ZWMau9uiOnTSvpSQNUk3nlC0Lmp7UN0nwH1HAiRAAmckQKF4RkQ8gARIoL4Elop+EZHks7QpXeWg4LqYLbp4574RfO1EFndN55eIRaxY9uo7bhXlDbi2ZqLNgDb3d4HHb0zhaZsyuGZjpjIUm/uiSvjIj1U57ko3F5X4ouUyXyRAAiSw1gQoFNd6BXh/Emh1AmJdW5wVrDKbK8WypZezCKfxQgl3TC/gujtG8KORWagWLI74q7XQgiPuZivUVkFoiWtbjU0smn6hKNZNYFN7FFesz+AtF/QjFQ4hFtKdXEz9HisRKRRb/T3A+ZNAAxOgUGzgxeHQSKAVCJzZfmYFo4PbphZw/YFR/Hh4FkdnpZ+zrzyN0l+rmZtnRaLc17q+w8bF7ALlEiLhMB7Q3Y6/2dmNh/YksT4h8YxiKdUlfBzXRdkRe6L+n7ahaoG7CjK3FbYX50gCJLBCAhSKKwTI00mABFZGwBOKFUObvqBj01rEWOeqDiz/NZzDm/YOYWi+iJyUw5GX+scIRkeaPNtuKashGo0V0RuDGZBySeuh9CciuKynDa/f1YsHdCUQDcloVdaOHqrPcmom7onFlZHl2SRAAiSwcgIUiitnyCuQAAmsgICWg2Jd8zyySkS5IZ/Qc8v4/ug8vjg4jX85NI6yie3zsqJtRrESimLps3GDKxjYGU+tWDqBcMX17Z1nXNIOEI6GcP2F/bhiIIUtyZgxfOoJK8+16Umtk7t93WXOOAYeQAIkQAL1JUChWF++vDoJkMAZCKisZXmpWENrU/OfJDGMJbz8jlF84nAWuZyJQ/QSnI3bV2U9m/I46nq+ijV1WQURpNIIRscj6hvKWExnGJmXqF9H7IcOnrAxjadvzuCp69NmYEYii6j1+ZltaVvd+o8vEiABElhbAhSKa8ufdycBElDmQ621PL2lnK+u0llj+TJuGc/hA4fG8b3hHFxlNPS5na11UeIElTXOikRbj6aeLmgr5iqJN0ooajOhN05JxtmQjOGazRm85rwepCMOorZGtz20ShdSJPKNQQIk0BgEKBQbYx04ChJobQKmsLZ2KWulJ0Kx7AJ3zeTx3rsn8MPhGRyaXag2FarzrEXOCkJTdka5n+VVT6Eo17dubmMZrRKK5v7Ky+zg8v4OldjykO429MTE+ul6mlLNmj2hW/t9wNmTQAMSoFBswEXhkEigpQgoHWetb0bcmXjFXKmMn47n8MxbT2J0rgClHKvqEEpHlojRg/I7Lb7qLw49PQuUfXUUlRvauJ69/s4yLvm5i/5EFPfpbse7LuzHxem4Hqfr68Li2NqRNve5pXYCJ0sCJNCABCgUG3BROCQSaCUClao2Yl2zKlDKxITww9EZ3HRiCv92JIsZafB8DwOhzYCxxOoemLjE0vjvuXg89nD983gohPXJCN5wfh8u72vDtmRElcrRdSJ1BnTF6Uz3cyu9DzhXEmhUAhSKjboyHBcJtAwBI66MYpQUj2LZxUQB+NejE/js0Unsyy6gUG8Pct15a+HXFg7hMRvSeObmDjxxoF25ritCUeVB+8yVdR8Ub0ACJEACf5AAhSI3CAmQwBoT8Asj/fVMwcUvJ/P48MExfOVE1vRyXuNhrvT2tvSN6yCSCOPlOzrxlvO60RYKI+RoeeiFKK70XjyfBEiABGpEgEKxRiB5GRIggXMk4NOJ1nF7Yr6oEli+MzSNO6fmTUHtVYw9PMep/OGP5ZKuLRnRETghF4/ub8dzt3TiUeuS6IxUl/U5nQO7HsPiNUmABEjgDxGgUOT+IAESWFsCJuNZsoLlNbJQxK8m5/H2u0bxu8kFTBVEYJkklrUd6QrvbhWxTtjZ2h7FH/e14zW7erCzPYa49IFW82Rs4gpB83QSIIEaEqBQrCFMXooESODsCdhGfarXsQv8z0QOXzqRxecOT2JkwRbjtqVnAiyibI1HKwZDwNaOGN59wQAe0pPAQCKs4xPZmeXsNxHPIAESqBsBCsW6oeWFSYAElkPAGhRFH82XSvjokUm8c/84JuYKKqnFK4djq3HbYtvLuXhDHeO1ktEt+xygKx7G49Z34Nmb07i8t11ZE21ii79bS0NNg4MhARJoKQIUii213JwsCTQoARdYKEsCyxw+eWQSnzo6Cd3QWSyJpqi2N/Qgpz/bdiw67DIedrCpLYoXbsvgmk0ZDCSiCCsXNF8kQAIk0BgEKBQbYx04ChJoaQIl18XEglgTJ/D1E9P41cScKVxthKL0gfa65QVUKCor4hIi0HXwlI1pPHtrBn/a345E2HaUaektwcmTAAk0CAEKxQZZCA6DBFqVgMi+2WIJd8/m8dLbTuKXE/PIi8vZ34JPdTyxrtuACkW7wLZMjvpe5ulioD2ORw504IaL+tAV1RnQtCu26juC8yaBxiJAodhY68HRkEBLEhCX8+cGp/DlwWkcl1Z9VVrQlsUJunQy45d2fiIDfdOKh0O4OJPA/7e7Gw/oTip3NF8kQAIk0AgEKBQbYRU4BhJoOgJLVQJcuuPIRL6Er5ycxrv2j+J4roi5klFQtge0Mrw1Q9kY2xPa1FO0FkVjO+yPR/HIde34y22deFhPEuHTlslhlcWme7twQiTQwAQoFBt4cTg0EggmAS30VA9jOwH1o7KOM3RCFYOhlMMZn8O/HZvEPx0cNz+3mc5WWNkWf0ZoBrXOoIxbBK9K85aYS5mnWBelCLd87yAUBt53cT/+cmsnkuEKp0o3aekF7aLshlS4o+JL3RjMtwlHTQIBIUChGJCF4jBJIDAEPEugVTImFA9luI4IHVMvEEDRdXDd3hHcfGIad6kOLIvjD604tL8KuvvZrKLt16cUoAhFw8pxcc2WDK7ZnMZj+lNe3+fqkjkiwqWMjlaJ9tRKtk9gdgoHSgIkEAACFIoBWCQOkQQCRcDTej53saojLQJHJI5YGl1MFkq4O1fAq+8YwU9HcigWxSUrL5u0Yots+81mFdtaoJhUDdbOwYCySTtGA+/JxPD49Sm8emcv0lEHMWVBtfGN2lbrWRJFKirx7TsmuGA4chIggQYkQKHYgIvCIZFAcxAwSRsiC33uUSWTXOD27Dw+c3wSNw/O4ODsgnFNG+uaEk++tn1uSbmsdfHtgGY9K9ezjbf0rbDUi5Tp2mxot4wH97ThHy/ZgD0dMXTHTLkcdbordllzuBaHruvCCao7vjk2OmdBAk1NgEKxqZeXkyOBtSGgPata0Lmq24j6gWcxnCqU8e1TM3jtXcMYzhUwJ/2c1TFesUSTGeyPS/T/bm3mtbK72mLbEqtpayXa1GeLRgtlyXp+xLp2vHR7BvftbNMM7c1NVxf1E9Pxr0kc8ivDy7NJgATqQoBCsS5YeVESaF0CFc9zRRgqIeNrvXfL+Dy+eCKLGw6MQzV4tkkeSij6LYb2a6kt6CmlgML1C11foo4ktKhpWvexg2QkhP5EFG86vwePWdeBvkSk4lyuSl4x8YoBJcJhkwAJND4BCsXGXyOOkAQCRcDmPGuLlxZ66mtHNKGLfLmMDx+axBePZ/HLsZwppG2EpN/yaL9WmiqqXdMqczrI9jMjBr0wRZv5bISiVwZIz/FFO7px9cY0HtabrGQ5Vwlmk0EdqB3CwZIACQSJAIVikFaLYyWBoBAQI6GpKC2JK5LZK9m52VIZB2dK+Ie7hvGdU9OYKViLoQhA+Vp3JdE+VZ8VUpWPWeSmDQoLO04Zv0yhbOdiLYgiFv1WVBHV8n0JmzracPXGDN58Xi/awkBYm2bhug4cjwdb/gVtK3C8JBAkAhSKQVotjpUEgkLAi080FkWlkRzsn83jU0ez+NqJKdyZnfdZE+3ElqqdKELK/jwoAJYapz/LuZLoY0yuFZe7jV90S4iEQ3hEfwdeuasbf5RJoCcWNo55LaYrttUgW1mDvKYcOwk0PwEKxeZfY86QBFaZQCU20aSzqHI400UXPxnN4drfD2EwV8BswdfKTlWPNlnBkJ+LhTFs3M1WKK7yNGp9Oxtb6IVh+n8gN7OJO5LQUilQvrsjhj8bSOGvtnZhTyqOsDIg2pI44t1n1nOtl4rXIwESqBCgUORuIAESqDsB0T23jM/iqyey+NihSeQKIgVFAEq2s0lUqXIthwApG2MLBnpVpQPsfrbuc5W8Yi2k8rUvbtH7nSyJFtLRUBh98Sg+cOkALu9LIhOTOpTCzZ5Ha2LdNzBvQAItTIBCsYUXn1MngXMhULEXVrePq0rG9S4s7eaAhbKLjxyewKePTuKOqQWURAOpC5mzvArS/qucTgD54/nOZQZrdY6XwVIpoO3FYi4qC+Sh0TzioRCes60LV21M4RF9SY+bLjskB1MsrtWq8r4k0OwEKBSbfYU5PxKoMYGqtAufrjudUMyVyjgwm8c79o3hxuNZoOS7grIUBlX41Rjs4st5bFyEEcJ5mTietTmNF2/vUuVzIiaWUSULqRfFYp1XhJcngZYkQKHYksvOSZPAORCwHVGcijSR8jdVXUEWa0AAx+cL+JcjE/jq8Sxum5R+zj5Bs7hs4jkMq6lP8bmXwyEXV27owLW7unFxqg0dUZPtvLRCb2osnBwJkMDqEaBQXD3WvBMJBJaAp0XMF6dzPy82bk0VSvj15DzefOcIfpedx0Te9nOuVMEJLJS6DtzGYtrefnIzF9s64nh4fwqv392JHcmYSgByvNqStCjWdUl4cRJoUQIUii268Jw2CZwNgcXOzSojlv+XixTl/03O4Rsnp/HBAxMYqxKJ5iR6nf/AMiyO1ywjHApjS3sc77+4Fw/qSaInFqFQPJuNzGNJgATOmgCF4lkj4wkk0HoEFuu5St9hMXRJ9rLu06yPk9ItrioK/YmjE/jAwTHsnyqohBb9ayk4bSyLXjZz6zH9wzOWUkESv2k5hc3XLrqiETx7awZXbcrgQd3tjEzk1iEBEqgrAQrFuuLlxUmgSQiYpiJKBNoWej7roZaApmWfA+TLLvbO5PHPhybw2SMTmC3p7OdKrUC5oBxvu5Q0CadaTsPytf2vVT9sKZcTwqZUHC/b3okXbs0gEQ4Hu6thLZnxWiRAAjUnQKFYc6S8IAk0IYGqVGdfaRtVI9sGLurMFKl8M5ov4VPHsvjq8Sn8YmzWB2RxGRh/J5Ym5LaSKfn7Piu0RlyLIA87eMbmFF60rRP36WxDm67CzRcJkAAJ1JwAhWLNkfKCJNDkBHyWQdeWtlHtinV3ldlSWVkTX3z7MG6bnEW+WDRAjAVRFZs2vZ2lxIskY/C1NAGVaW4La/syiZwyLswk8Nj1KVy7swv9sShC1tJLliRAAiRQQwIUijWEyUuRQLMSOF0FFvVzWzYHjmqmcnt2Af8+NIOPH5rA0VxeGcL0ywpC6cQi4ke+lxg8I4SaFd45z8v2g5YLCERrNdRWWamleFkmgX+4uB+XpuPojJoON+d8P55IAiRAAvckQKHIXUECJHBOBLxkZ1eczzqRZbZcxDeHZvDhQ1O4fSKHaennrGoBKkXpa+ViXdAiFOk2Pf0C2EKTIhr9pXIUUGxIRPCsbZ2qY8t9MolzWkeeRAIkQAJ/iACFIvcHCZDA8ggsKqatTpKC20YkFuFi/+wcPnl0EtcfmITq0ycmRtWzWVzNtkB0Sbmo2UnkTNjFLS/HCDufUBThHdLZRW2hELalY3jlrh5cvSGlrIyspngmrvw9CZDA2RCgUDwbWjyWBFqUgHYxm8kvUiI6mQWYLwMfPDSuOrD871jOS3BuUWSrMm2R3rFwCM/e2olnbM7ggV1tsA1bdHmdyjBs6SJdvohW3FVZIN6EBJqAAIViEywip0AC9SagnMueC1mZEn2q0cV0sYzDuTzevHcUPx7JYWzBJrDUe2S8vhCQxJbHrU/hNbu7kY6EEPYstiIK5aXS03WGutKPtDty55AACSyPAIXi8jjxKBJoaQI6ClH0obZSWSuiEhwusG92Ad86NY2PHZzAXdP5lma1JpMPObh/dxs+dOk67GqPI+MlttgKl6bGpYQJVBsa12S4vCkJkEBwCFAoBmetOFISaAgCrlffz7ijHeDLJ6fx0t8NYyKXR15iE/ladQI726N41pZOPHlDBhen4179c2NPrOQUrfrIeEMSIIEgE6BQDPLqcewksFoEqurjiD2xUtPvt9l53Hh8Gu++ewLlUglKSPK16gRSkRB2tCfwuvN78JiBDqTCoYrlt6q9opWOqz5E3pAESCCABCgUA7hoHDIJrDoBTxdqF7QIRWnJJ//985FJfOn4NH48nDO1EU9XdXHVR92CNwzh5bu7cM2mNO7XmVR9cnTLRdV92/ThZsZ5C24MTpkEzpkAheI5o+OJJNBaBCp2RJ0IUXRd5IplPOe2U/j6iWm4hYIu2yLCxCa+tBaiNZxtxYq7OxXHVZvSePsF66rG45ri5o7qr72GQ+WtSYAEAkWAQjFQy8XBksDaElDhicbtfDCXx81DWXz6SBa3T81r86Kq90eL1dqskqQ1u2iPRPCodR1424V92NIWg7iktY3XFMhxmPO8NuvDu2oU19AAACAASURBVJJAMAlQKAZz3ThqElhlAkZqmD7Pc0UXPxvP4W37hnHnVB5jeemw4o9NpMlqdRfI18HFDWFPOoGrtmTwjI1pnN8eU25nKw+Z9by6K8O7kUDQCVAoBn0FOX4SWAUCEutmLYXy1ZGZgnI3v+r3Q6oBizYi+trxMZ9lFVbFfwtTQNspKrd/KBxGPBHFjZetx2P7k4g4IhX1MapwOnX8Kq8Pb0cCwSVAoRjctePISWDVCNiuHiIyXMfBp45O4nPHpvCD4Zwvy9mvQKgUV21xqm6kVbsksIRDDl66swdP2dCBB3clTAtFKsS1WRfelQSCS4BCMbhrx5GTQI0InKY3X1Vkm1iiXMyVyjg2X8T7DozhqyemMTxfMh5nCsMaLcYKLqOzmmEthwDu3d2Op21K40Xb0kiGwwhbU+I99OIf3gMrGBRPJQESCDgBCsWALyCHTwIrIuBr4lyJYjN6wzR3tk3gJJHlxFwBXz+VxWePTOJ/x+Z0hnPV63SCY0Wj5MnLIqDb80GymtXLBcJRXLmxA28+vws72+JoD1sXdXUTRu87f7a6bsVjrkVL5LKWgAeRQBMSoFBswkXllEjgTARsTT2xPnl6QBmjjJNZVbmxCRKuJNMi77r45eQC/uZ3w7h7egEzksCiwhKlJ5ycJ9ZFZjyfiX19fm9EolgTrbaTtQgDl2TieNL6FJ67uRNbkhG4jpb+OrnFrrGcZvPZ9Qi9fUGNWJ8l41VJICAEKBQDslAcJgnUkoDt1WwlgZIIqqOKFQtGHRi1IL+5a2YB3z41g7ftHcVk3rTpq/I4M0axlmt09tfyCT9vKVx0x0K4MB3H689bh/t1t6ErqsWhLcStlaVXPMcITYlzPPsR8AwSIIHmI0Ch2HxryhmRwPIISGcVz7okp5ThqmLMppCKrxtLoQx87eQ0Pnd0Ev91Kou5klgR5T/RHD73pPclYxaXtwi1Ospf5NywV5lHYml0kY6F8PIdA7hifQfu06nL5WibolaD2uNsbIrG/SxJS9SKtVofXocEgkuAQjG4a8eRk0CNCBhh4TpeQ5WKQHBRLLsYz5fwrn1j+OfDk5gtiaC055hOLHYkDGmr0Zqs4DKeRpd4xLIS89FwGLtTCbx4ewYv2Z5RklAttvkwoK2HIizLcB05jyJxBSvAU0mgqQhQKDbVcnIyJHA2BFTH5kqsmk8oylW0M9LFaL6ELw5O48bBLH42ljNWKiMyrMuafsqzAV/HY0XxmbAAk/2s19JBeySEp29O48U7u1QR7rawEYt2KbVtEQ4rctdxfXhpEggeAQrF4K0ZR0wCtSHgunCdEhwlKCQJQr6vXFq+nC+VsXcmj9f+fhS/nJjDWL5gXM3a6lQRJbUZEq+yAgLKkiihA7ZLjl0jm7zs4n49STx5UxrP2pTGunhE5SFVPhKYuun+UNMVDIenkgAJNAcBCsXmWEfOggTOmYB1IzvSvcMktIgGFCvUsbkifjwyh+vuGMaRXF5ZIFVsonVbqu/DJlaxXIlXpIXxnNfjnE9UBmCTgS7xiSpGUT4A2HjSIiLhEPak2vDpe2/CRekwYiFxQkfuUQVH25KllwujFM95PXgiCTQJAQrFJllIToMEVkpA9QMWbSFy0NGFc756cgYfOjSBX43OYqZoXZpWPNgCz76SOF6s20pHw/PPiUCVNdAIRa36tVnRcbE+EcVLdnTj8QMduCQd16EHXpUcXWZHhzkyTvGc1oAnkUCTEaBQbLIF5XRIYLkE/MVwjIwwScwuCnAxmCvio0cmccPBcRQKRZPcLCpC3JtiSVT9/Hy3k5/7klyWOxAeV2MCVvWJhde4n33L1B5xcJ/ONvzltk5cuSGti3DbrGe1KazapDWxxgvDy5FAIAlQKAZy2ThoElghAaXnxHokRbLDujCKKpWjrUgzhTI+d3wKNw1m8YPhGX9dZhMHZ9zMrridJSZOLhc2gzJuzxUOkaefLQHjYlaGXrH+lkznHGPxFXGvYlF1POrLdnfhxTu7sTMZg+S1VGyIlSx4T/jTBX22i8HjSaBpCFAoNs1SciIkcDYETBSaK+JQW52scVD6OR+ZK+B1e0fxs5EcRucKvlZuWk5UB7UtronDGopnsxK1PXZxWIBdL/9dtHD8f90JXLkxhZdu70YqInvAVle0tmb50MB6R7VdH16NBIJHgEIxeGvGEZNADQhoASDJK7aVmxWKB3ML+MHoDN6zfwL7pgsmsdnGJ9bg1rxEAxBw0B2L4IE9bXjbhX3Y1R5TYnHJjj3G1tgAg+YQSIAE1oAAheIaQOctSaCRCNja2ZKoLMW1vzciCSyjuGV0HuMLIhBtL+dGGjXHsnICDnZ2xPCyXd14dF87zuuIq4R2rwqj3zDMcMWV4+YVSCCgBCgUA7pwHDYJ1I6AsS7CwcHpBXxhcArvOzCBbMFF0ZX4QxPbVrsb8kprTcCUQUpGw9iejuF1u3tx5UAH2kI6IUmHsOpsaGrEtV4s3p8E1pYAheLa8ufdSWBNCFQizypmo7Lr4DNHJ/HFwSl8d2hWj0uFs6maOXw1GwHJOQoBkUgIf7OjC8/clMFl6TYdlyjJ7bYmIwvlNNvKcz4kcFYEKBTPChcPJoHmIKBSWVR8ogvHcVAoA9liGX97+yl8e2gaYwtF06pPLEyiGhij2Bwrb2fhS0hyXDysL4mrNqbxgi09iDqO7tiixKIusM6Kis21+pwNCZwNAQrFs6HFY0mgaQhYd7Muq3x8roCfj+fw3n3juHVyHkWZp4gEJr02zYovORG1vg464mE8cl07brhoAH2xEBKVejm0Jzb3DuDsSOCMBCgUz4iIB5BAMxKo1MrLu2X8bDyHf7x7AreOzWFErIlKIVqrE5v/Nt8OMMXSbavFEHBhOo7nb5GOLUns7ogtUQap+ShwRiRAAmcmQKF4ZkY8ggSakICpmec6ODafx5dOZnHt70cl7dn0azbt37yewUxpaKpNoFzKpmuLae3XFQ1jTyqJ1+/pxsN7k0iGpYA6TcpNte6cDAmcAwEKxXOAxlNIIOgEvK7NroubTkzjxsEsvnZ8qtqKZOLTmPca9NVeYvyS9eyvzS1xiSEHESeEN17QgydvSGNPe7xyIj8nNOEm4JRIYHkEKBSXx4lHkUBTERA7UaHsqlZ9f79vBF86nsVgTjqwGEXg9fyVafs7sTQVhhafjIhFyVipXt8/WdeOp2/K4AVbu1gap8V3CKdPAuoJ4ErqI18kQAJNRuAPxxWK43l0oYRfTMzjPftG8aNRKYdjzUYiHkxZHI9KkP9M+E1nVvjKvy7CjoP1iQi6YmEkQyGU4GKiUMJ4voSpQgnlJafdDMLZ7g+/qVC3deyKR3HFhhTeeH4fBuIRtNnElqp3CF3STfYHg9MhgdMSoFDk5iCBZiFg8hPkYa9q4SlLUbXPUASilMORsie3Ts3jtXeO4TcTOQzPSzkcXWxZv+S8ZiiJ42cgxcNFC0nsnRaKyYiDp2xK40HdSWxvi2G2DPzP5Cx+MjaDW8fmkfcQiPXN1JOU873YzaBuHolFtTGKZXj1cMq6C899uxJ4zrYuPGGgA5vbomaSpkuPIleGo/aXXMP/oYI+6qDuCI6bBE5HgEKRe4MEmoiAbrghQrGSh6B7OPutYA6O5Ar4z1MzeNveUZXlvFAWEeC3QnqqM+Ahiotd6RUhfGkmgSvWp/DwvnZsS0bRHgmj6LoYy5dwe3Yenzk2hd9MzGNIiWhBKAkgvvyOQDtmfR8kvA8HdtOE0BWP4PxMHP94QR/u39WGmLio1XHqI4iCoMlW76uqLdRE7ytOhQRamQCFYiuvPufefASU0UtbDWGiSnQImn6gy0O+5ALfODWDLw5m8fXBLPJe9ImX4qLVkFaYAReKZom9uWjLYHcsgicMpPGKnd2q33F7JFQl+07OF/HNUzP41JFJ3DKWMyysmBaKxpIW1B1k6idWJm0EtBKDush6WySEt+zpxePXpbBHyuUYTahPFaFYlQ2jSagkGVoVg7otOG4SWIoAhSL3BQk0EwFbHtGKRWsAM17DkusiWyzhjftG8ckjU1hYKJq+vkZMhu0FRCyUtCVNGZKC+vC38wl7cZdOyMX9u9vxrC2dePH2ziUKwLgQTrlSCNfeMYRPH5lEXpWWFNe1cT+r0jLWAhfADWRczFrr+dzHSijqOUoG9EN6Nae/2JxRR2lLtQuE/BZJO3/5IGIFZFD3SwDXkkMmgToToFCsM2BengRWj0ClSLZ+YGsBIM/1ssSUOcBEvoz/Gp7DJ49M4gfDMyYK0cbeiXvRKEqxwIVsZ5YgJ28sFiwOpDzgm87vx5M2dODCdGzJ9nTCr1R28bWTunTQzYMzKCs2Rkgpi22Qza3W4iyiT6ZlZKCKw9RzdBwXnZEortnciWvP78GGeARx1dvPVlf0PpWYDxKuZEearykUV+99zzuRQH0JUCjWly+vTgKrRKDamlOx7Ljque86rkrM2DddwLsPTOCnIzM4Mpuv7r4i4tDzJtqYtIq1aJUmUuPbWPe5LiAu2c3np2N40/m9eGhPG5LK5bw489fGNZZxMFfAvw/N4i13jmC6WEJBxXIGWSBavFb8m3qKVULRSEERjWXgoX3teLYktqxLoT+uE4FsnKL3jbI4i1D0F/Ku8VLyciRAAmtCgEJxTbDzpiRQWwIiDMtwoWWPtXbpqETXKaufn5wv40ej87j2zlM4mVsASibz1Z/MYF3MyqhkxWKQS+MYziqhO4RL0gk8a2sKV65PYWd7FK5reHla0Wb2aoaC4L/Hc3j1HcPYOzWH8QXjjnds5nRQM8NtTKJ8VggB4opW1kBf/KWyLpbQn4jiPt3tePsFfbgoFUc05OgEcL8GN9lTjrJRe07q2m5yXo0ESGBNCFAorgl23pQEak3AWBRNSRz7ENe2L/1U/+apaXzq2CT+c3gGMwumVZ9yL4tIkIe7iUtUYlH5I43pKMhCsZLlHI9G8Oh1HXj3Rb3YGA+jPSzzDZm4Ol/Gt6sze3U+kIvB+Tx+ODqLDx6YwK/G5wIes7nUvgsZkWgnbeIVTGu/aCiEDYkY/m5XNx61rgPnp8Rdb/eGtULrRCkVvhjYeNZavyd5PRJoDgIUis2xjpwFCVRlKour2Zp8pIi01En8xJFJFZt4Yq6AolSSVmpILGRiHTMPfBWHp+WlennJLEEFbCcAPKQvhadszOCF2zKISQjmoiIvetpSY9JfKMjFXKmM4YUi3rVvDN8amsGxOelgUxGggSRTFV/p+yDglVLyLz5U3+cH9rfjeVs68eT1HYiJxlaWa59Z0fBkdGIgdwQHTQKnJUChyM1BAk1HQIsj19UlX2ZKZfxwdAb/cngKXzsxU7EeLbYK2YxXK4KUpVGusDheMUjApPsKVBLG353Xh6s3ZnCRWMSsDnYXZekar73S0LoopVeT8rODU7jxeBbfPjkjRYaqBXWQkHga0MQpWquy/bBg52JLLAmjkItIPIqXbO3CK7Z3YUMiolzQ6lJeRRxKxKBtA46XBJZDgEJxOZR4DAkElYALnFwo4pV7T+JHp3I4MVPSXTg8s5l8bbJ5rRVSqShfpnOQk55dB6loGDsycbzx/B48tr9DiUZbNtqXvWNc0Do2U+SjZDnrCEYtFg/lCvjcYBbX3TGiS+UE2SPvZTfLfE2nGaX6xM4qCSm+JBetmhWFR65rxzVb0rhyfRoZ09rPdeQDic2cN+5rasag/sXguEngHgQoFLkpSKBJCFQ7Q7U1bHCugJ+Pz+If9o9i71QeC1Jt2yvtYidecc9W9XtuaCXkc40rYeOZwXxuYYm9A3Z3xPC8nV24YqADezriPofz4nNMnKItVO5Z2LRQzJVc/GB0FjccGMetE5LYIsUV/deQr33JMOLG96yyi3tnr/Wm86tcE4+qhuTLhva+r4x1Q1sED+ttx3V7+rE9KX2gBbERikpo+jLn13qKvD8JkEBNCFAo1gQjL0ICa0+gIhT1V6IJfzg2q7qL/MfQDEYlY9evBdZ+yCsYgRWK8q8phO1ZQpViUQk5ndEwHtrbhrdf1I9tyRhSEZu84hPJ/h7XSuiYOE03ZELwtDVNElsO5Ar43sgsPnRgHHdOL6BsLbNWqVpxqESmySr3xJNfkK9g6mt86o72GF5/QT8e3tuG7cmoKbG9uKbiGg+StycBEqgZAQrFmqHkhUhgjQkYF6GWSY6KTfzYkUm8/s5hFApluKIcVSHtxVajNR73udzeBsYp66gvc9trmKJLvTy4J4knb0zjhdu60BbWMZu66o+pBKhcqpV2fL7cZzUqT3y7QMkpQ3KAsnkXz7zthCpYni+IVdGUg1Ha1BYpt4pcbmZiPD1ReS4TXstzTNkc5ZYGOqIhXNyVwCt39uBJA2kvD6o684m+57VcMd6bBGpJgEKxljR5LRJYIwJecrLxLOfLLr51agafOzaJr5yYAspGDCmBtUaDrOVtq/zs1mVsRJkXYxfCy3b24PlbMrgwHVUt6dTk/erPE4PVZbeVSJQkDl/SizUM5ssOPn88iy8em8J/nJzWs7pHtrCpT2i6nNRy6mtyLVsvyJHWfi7SsRBesbMXz9rcic1tUYRVzKMZGcvjrMkS8aYkUC8CFIr1IsvrksAqEqhUsXFRKLsYz5fx9rtG8d1T07h7ZqHSz9c07Qu8WlTZ2DJriU+0yTcmS9spIxlxsDOVwKt29eKpG1OIhqTouBaKJpm50oRG1wny6WdjbfSyeXV3GysG5esjcwV85kgW7797HNPFouoNrV+2JqF2fXtWtkpq8CruihrdyhOAUhPHtjEEHrs+jas3deLq9SnEPaMsYxRrRJ2XIYGGIUCh2DBLwYGQwMoJSH+W8XwJd2YL+Lvbh/DLiXljRTPuQ9WWzWa5BjRtV4kuK8IkPtFXB9LomK3tUbx0dw8eu64dF6ZiXl1IIy2V5lP/LeFrdqW2pHLeRzwrWaWAufxcc/vSiRm8a/849k7PY7ZgO7YYoaiygD2lufKFXdMr2PhDIxTFvV4OIxwL4/J1HbjpXhuQjmqBeE+77JoOnDcnARKoAQEKxRpA5CVIoDEI6Af6/0zM42OHJvGfp7I4MVfUJU9sjURliPNZuhpj4Oc+CmXJM+YsVdIlhFQkjPt0JfCPF/dhT0cMHRGVmqtfXn1onZ3sOktJG5+AVl/Kcf7Ttf324GwB3x/O4Z37RlVPaPVSxy8hEgMvGv3xCloAO46LC9MxvHxnDy7vbceOZOw0PM99eXkmCZDA2hOgUFz7NeAISKBGBFwcny/i6ydn8J794xiaX8Bc0SSwqOe8TUoIepCivzSONQka53vIwb07k7hifRov3ZFBd8yKxMqcdQidTjpRpV2WwCEN6bwfK4SLBaWL+ZKLQ7N5vGnvKH42OouT85LYcpqik4stlzVa8VW7jA3QNMLZfvDoiYdw3552XLujGw/vbUdY1ajkiwRIoJkIUCg202pyLi1NQIxW3xrO4guDWXz+8HSlzItnSrMxfSb1N6iPdJN96y22sZaKSzgadvGcLT346219uCAdQSykrYOOuKqtB1W5SCsFol2/uFGi0Jyj+GhftuuGK4LSJ/omCyV89UQWnz86ie8PzwCOuMGtXvQdqFOtfXnUAdqqatiqibMetJqLEcTyTyiCGy7uwzM3pdAdjwRoYhwqCZDAcghQKC6HEo8hgQYnUHS1hetVd43g5hNTODWT1w93G43nGbpMfJ+XfNHgE1tqeEpwWeFXsZgmIg7unYnjeVu78LSNGSQiWtvoeMTqotL+jtbVlsNKwWxthDXq0hGxaHq0WOssXEh2+eB8EdcfmMCHD01A1c+x+R5KWInlMvDmRGONXuoDhk4gumJjCk/blFb/8UUCJNBcBCgUm2s9OZsWJTC6UMT/Tc3h7+8ew09Hc3CLVvD4gvNsprBfMwWRlz8DxQsedNCdiOBF2zK4ciCF+3a2qZZ8XkziIpewdSxXu0nlDC3qtAPViFBlIfSXfzGGNVNCp1AGbjyRxcePTOLW8TnMCXtrdVNFtxcFSAaRuWJg5lUlujUmSR768/UpvGZ3L/ri0rGFDuigLjPHTQKLCVAock+QQMAJSB3t27Nz+PihMXz3VE4lWVTcgyIY5QFvMoPlqe4VhQ7ww9y4h21iTiIawe5UG66/uAf360wgHTaxiSa9uWLTM+5fv/vasxAqNVRRgU7ZRCqauDubqCLWRV+RbhnKndPz+M7wDN63fwxD8yWIhbfyCrpQNLUnVWkc5Ws2Lnnrktb/3r87iWt39eMhvW1YL+bcqlfQraoB/yPB4ZPACghQKK4AHk8lgXoS0NYta/vSmb1aq1TKrshjW+LkvntqBi//zUlMFsrKHdrULzV/IzzMP5dkknjCQCeevz2FLW0RaIPWaglh7fa/fXoBb7hjBLdOzEMsvNooaS2RNkYxoCtj95yy4Ep3H9OBRn0v5ZaKWJ+M4H49HXjD7h7ctzPhm6jnizc7WqSmRIn6Y0EDyoXDJoEWIECh2AKLzCkGk4B6kC4uxWdcrdatKrau74/M4qbBKXzi8IQKkWv+ly+z2HURjYbw5PUZ/N2OHlyQiaIjYqs/r5ZQ1Ja2k/Ml3Hg8ixuPTeEX43NmGaxQ9JUoCuQC+a2iIhRFBFtXtFiry5AY0d5EGK/f3YfH9HdgazJaYWCEvWeUVeGOen1Wa5UCiZ2DJoEGIECh2ACLwCGQwFIEVAs5+yi1bj+v8rOr3JtzZRc3HBjH549NYW92wSsX2LxEjUVLTVAcwC52pBN4wbZOvHpnt69Dn3PPYtp1gWJTqYFcycWB2QJuODCGLx/PIiv9tatSrQOu4r04TV+rRK+Opd6pIcfFVZsyuHpjBo9f34Gw+aCjywv50s69Xt11WRRelARIoIYEKBRrCJOXIoHaEqhYcaTjis3fdczX08Uy7swu4F37xvHNkzMouNJRpEVexrWcCIXxsl1deNKGFO7X1WZSUIxL09b+qxsSHRqgajEqw6GLYtnFpwan8NljU7hlZBZFXxmeJQs21m1stbywFec2V9wUbVdWQmmhKJMXE6NkooeQTDh41pYU3nVhL9pDIdVjWz7yVFkOGbJYywXitUigrgQoFOuKlxcngZUQqFigqrJxlTUG2DeTxzsPjONHp2ZxSMrhtIA9UdPUrueOaBhbkgm87YIe/HFvG3piYS+GU3s6xd27Ev5nOtdmSWtXt76Vi99nF/D1oRn8/b4xzBWlM44ve/pMl2zY39uElspM9VCNWLQERDCGXfxJXxIv2talinBLFnRVq0RPJJrEIl9iUMNOnwMjgRYmQKHYwovPqQeBgBaLulNIJYV3JF/Ej8Zm8YrfD+NUroBSyVocgzCnlY5RC8XzUnE8diCjSuKc3xFVli3lrFf6w4Wj6hjWUylW0jGsaJI1WiiVccvEPF55xwjuzs5hKi+WXl9c5UqnvybnG6uhRepvnbhYLMLBlmQUD+1pwyvP68VFqTiiEo+olqYSd1uhZ2NK12RivCkJkMAZCFAocouQQKMS8Ie0+WMUHeC/hmdU4sQXB6cwW5DWcfJqkQeu0VxXbkjjfZcMYF0igkTYgYrpdHQknPwX8rnr67rESqNry5qKmnQcHMkV8I0T0/jM0SmVBa3dzjb7t66jqcPFLVFJWrHuZltyyZQhkg44tsxQWec098YdfOyyTfiTvnZ0RcW6Wyk3JCwcm0FdTy1fBxq8JAm0GgEKxVZbcc43kARcaKuUdAdZKLv4wKEJfPTwBI7NLKAkqc51j8drJGwuHtCdxFM3iTWxC9FwCGHHJP54WeGizVYnEE6XTNQle1S4nuOoxJaTuQJec9covnFyBkWpyu1J2EZiudyxyPxEFMpkZS/a7231dluuyFpOXbRFHDxuQwbP3JzB4wc64PjKOlUnai13DDyOBEhgLQhQKK4Fdd6TBJZFwBejaAo4z5Zd/GZqHh84OIGbjmeBchkoG5NMq1hmHODlu3pw9cY0HtiVVNMXC5atwa3Rmt59y+K8soN0hz6b0avTfFWYgOvivYcm8PnBKdw6KuVyAp717HVkWVQqR1lKzUsltejvwyEHA21RPGdrJ168vQt9sbByQesGQUbYr2q9y5WtM88mgVYlQKHYqivPeQeAgM5iVtGJ5ZCy4xxbKOB9B4bxH0OzuGsqb1yaAZhKjYYYCjmIRcP45GUDqlVfQjVzNkWEVPibFimOyrStb4Sif0rWOSsZ6V4sKYB903P40vEs3rx3BCVXLMI1ArEWlxFFbnmrBB0zGRHJnlC2n1Z0D2h5PW59B164oxMP62lHytS41EvmF5xrMSHekwRIYDkEKBSXQ4nHkMCaELBWKv1IHV4o4ReTc3jrnSOqLM5sqWS6tEj8l7ZgNftrR3sMV25MK3fmpek4QkpxWE5irdICxlT1Wx2laL2u1rDoWXZd5IplfH8kh7ftH8X+7AImVWJLkF8V17L+FGPiYpVQNMXFjXDXs3Sxrj2KB/W14/o967CtTZKO7PwpFIO8Ezj21iFAodg6a82ZNgyBqiyVJUZVsU9VKki7uGViDjcdn8bnjkxhJF9omNnUZyCLs4QdpKMhPLQ3ided14s9qTi6Y5JcocWI/se6m/1t8+ozuqqr+vWOZ8bUP5SY0rtmF/C1oSl8+lAWe6cXzHgXxwnYi9iYv1UY94puUanrqbn7Xe9yYS89GqEwsK0jjnfs6VeZ0BtUH2j/+i7+ekUD48kkQAI1JkChWGOgvBwJnJGAK9mfNozOl6nsldsTi5jOoLUP1PlSGZ89lsX7D0zg0MwC5Hv1klqB0kptVR2tZ5zhCg8wgk+SdDw9FcJFmRietDGFN53fb3o5r/A2tTrdp/tt/J1eXkfFT86VShjJL+Blt43ie8OzmCuLJdiuu110U7haJYz4xG+txriq15H9KPOTueh5dcXC+PP1KTxrcxqX97UjLL/3gkorQtHagu1w/XGnLZWvtarrxZuRwB8mSBgkYwAAIABJREFUQKHIHUICq0jA5j2URQg68ij1Z43Kb7U4rNRNdJUo/MXEPD5zLKta9S0USzoST7mbjahYzYC8evDySqX4EiPU1OzEQnju9k48c0sGD+9N1rU64tlMbynsdklslm8JLuZdFx8/NIGvHJ/Gz0ZzRiQZy6cnGn1JMWcziEY7Vrme7d7UrvZIOITOeAR/t7MbL9jahe5oWIU7Wn6Vmoq2DqZh4e3xVQw4bTSeHA8JrDEBCsU1XgDevrUI+B+MWgzqmnOLA/vFZSkvERlj+RLec/c4vj00gzumxHUpdRPl91ZkWrNbgGMUfT2svTYeBlYy4mBrMoaX7ezGEzeksU46fTTitvE84JXYUpNmoxKR/m9qDp87NoWPHJ5AoVhWdR/VyxPJi+L/GnGOyxqTb3VMFyG9XR08cSCNZ23O4DHr2tEW9tf99LPwh17oZC79f0H/NLQseDyIBBqOAIViwy0JB9TMBCqPOhPD5jeUVMV6aaviZKGMO6YLeOntJ3Hb5Dyg3LHiuhTLi3HfeRacRda4IIJcHO8XAjYkI3jyhhSeualT9XNenQyVs4Rnx22EkUqqUUaxShawuJy/cnIab98/iqPTBZXooiymdv2qbhlk0e9bIu2LB6QgN0LYnozhT/vacd0FPVgXj3odWzzbovLES+a4fqfIByYrFFetgPpZLj0PJ4FmJ0Ch2OwrzPk1EAFrKTGWFCUSbIyar8WZiW+Th+evJubw+cFpfGlwEoPzksBiXXNWgJROIzQaaNpnGopioGSVV1LFdjpBKIQ/6k7iny9dj/M6Yl55lTNdctV+r4Zu2itag6Ap/WL7c+t56b7Qe2fy+M6pWXzkwAQOSn9umbsqBGn2gjISS9ypXCSowt+AkG5Cyq1uS+lEIA1aLu2M420X9uE+nW3oj+tuLxVZHDKhi4ZH2fTrVjiMqG5Ic/Kq7TjeiARWnQCF4qoj5w1bm0DFLan9aYvdaRUX3EyxjJtPTuOd+0ZxOJfXFigv7t88LdXD2IisoIL11+CzFigjoC/qbFNJEK/c2YWemMS1NZZK8Nv97lH1RXUvMa5TtTYupgtl7J/J4413juKWsRwmpFyOEZaViL2ghxL49qaetnnpzi7rEmE8en0H/nJrJx7SkzS/s/teQjH0SXorWOe9b3M31hYI6ruO4yaBZROgUFw2Kh5IArUi4IvHOs1DT4yNv56cw2ePTuEDB8eNtc1YJP01E+3XvvZotRrlql2nKjSvYl0LIYJrNmfw3K0ZPLgrgbjEtDWYSFjsIK4Si3ZNfEkbwjRbKKs1/dqJafx6fE67Zb0wVV+pmVVbgBrfyF+mqKoQt1hKXUhVo+5EWJU5unpjBn3xsLesNqSx+rOPBqjYNtj615gcL0cCDUmAQrEhl4WDaloCiwyIUgTHNHxTrkZdHsRBueziDXtP4eYTWd2BJSQPWZMFLCVxlDtPLIxN8uRUc5POH1oROI50YIngrXu68bfbOxFxIg051aXswVVisco4qGVlHsD+mQL+6eAoPnxgzCQl+Xa8jWus7kkYrLeEfz3VXlXZLJ71NBQq46kbO3HNpk78+UDSZyl2TZKPo+M7Q9qxr4sN8UUCJLAWBCgU14I679miBBZnali3pKkeZ56nE4Uy9s0U8Na9p/DTkRxmCtacYi2KRjQqC4tXfDHAvYT9JkUtB3rjEVy1OYOnb0rhod1tpqak3jYNJxhsCR9bEeYeHVrs0uh1lFSNmWIJXz0xhU8cHsdtk3nMFs3e8LlbfT7bJni/WEldUc5b2+N4/PoU3nFhL5LhEMLSB9rIwkqhURu/qCsE8EUCJLD6BCgUV58579iyBBYLRXkI2vI4FZ13+0wenx2cxlePTeKAJDyoZ6wVib5yKp5QDDpQm/ygRW97JISL0nG85YJ+3Lcrgd5Y2MgHk0ncaFJxsVBUw3SVVdR7eWuoPxyIJLptag5fP5nFRw9NYWjOtvbzFRlf7NcO3DL77a2+r9Vya+vig3qS+IeL+nBRRxw9cVlnkxik5qrP0VKRQjFwy88BNw0BCsWmWUpOJAgEKo9LG5QW8mL91fPTBW4emsGzfzOE+fkiStKBRRJWbNKLuOO8LFk7Y78ADQKFRWP0u1qdEHZ1xPCn/e0qhm1Tm7R7s5qhsefpjc43zKVGbDXjQtnF7dPzeOatJ7Evm4dbMtnBIZu01HC202VuLjNuf2iECj6UDGfTRSgUUVnMW5NR/LkktmzrxGWZuBaE/v1gs6aV5bzxYlSXCYSHkUCgCVAoBnr5OPigEZDnpY31V7YS11pQdHmcn4/P4qbBLD58YApl1erPSo3F0XCNPHNT5kbqPXo9f03tR2UFta5m9Y2vV7MuyvyUjRm8ZEc37tuZQEfE5sBal3NQxZNvvcySimQ6MV/AR49M4JvHZ/BbqZOpAjSNddGrk+lXnosyY6q2RYBMkKbjSlvYQX8igjfv6cNjBzrQFwsbS6z+IKWCMpSR1ax7Eyx/I79zOTYSWIoAhSL3BQmsGgGd3Vo2LklVVNgIxRIczJXL+NChMXxpMItbxxZ8vXBXbYA1upERMzab15oElY4xfZzV098WDdeFpyOOg50dcTx3WydeuK0LKYlbsyUnmyKdQQs5ndmrOcyWSrhtagH/bNr75QpSFsZY3awFTYkjIwItwyW7lARIKPp3mgM8f2sXrt6UxiP72n1C0cza1TKxavvUaKfyMiRAAmcmQKF4ZkY8ggRqREALAIlLtJY0cbOJhXG25GJwrohX33EK3zyZBcQNGeSXUkO+YstV3Ud8FjLljtQWtFQkrHo5P3VjGn/Sm6wqsBzk6j+VZZSGjFrwhLzEDLEqh/DBQ+P4yMEJHMjmUVQuW1+Gu3BUyKR1o7zke2OttQ2Tg7xXAGxPxfD0TWm88fxeRB2J23UqWe7GI1+lmwM+Xw6fBIJEgEIxSKvFsQacgIiCJdxoLnAgV8BnB7P4yvFJ/G5qPuAJr9b65a8N48tY9cq+qDo42poYdjDQFsN7Lu7Dw3uS6I9FbK1lteaVfti6VEoQX6q3s8+DWpHLDn45Ma/qKn7wwAimJcvd2tC8guw2vs8Xr6kO87vxg0hFJ7YkIsCj+tvx6vP6cFEqhs6oSWzxmRK90MWATpPDJoGgEqBQDOrKcdzBJKAyZH3WQsfBeL6E/x6fxzv2jWHv9DwmFsRyFKSYxKWWwiQfaJXny9xedKyJVdvaHsXD+tvxyl3duKAjrnsAe6RM+SDv1IAKRW9CkhFd2QUym7F8GbeMz+FNdw5h/3TBiEVhZ9v4+YS27CHl1reW6aC2+vPvBUcnMQ2k8KJtnbigI4aoP2lcfc1aisH8o8dRB50AhWLQV5DjDyABSezQsWqSvPHryQVlTXrv/jHMey5nefgHUxBVFsRY/+Qf1afXZG/bTFaT6BILhXB5fxJ/vTODB3W1ozsWqcSkKUi6AHdj5zyfeRuq8UtMqtJ4em21cbUM13FwYLaADxwaw38MzWBftmCynowI9Fkjte9afi5WxjBQtm0AzzyGxjvC9jsPIxxykGkL44OXDOBRve3ojcr8dLCGBmXb+zXeLDgiEmhmAhSKzby6nFvDEVB2QiN+9OAc3HBoAp84PIk7p+ZQsjX5VGr0Iutjw83mdAOy5VFMwoqSfSZBQ+akNLC2hkkR5W0dUVyzOYVX7+5GMhRGJKRFoepT45oyy64keegEkKDKZ1dNXJY1hJKjraQhiVFVNReB6aKLu2bz+Pt9o/j6iWlASiPZvaLmblr9qavItYShvwh1QONalYVU9yeKhx08Z2s3rtqQwiP62uCa3t+OLY+j3zJ8kQAJrCIBCsVVhM1bkYC2kOjXbLGMO6bn8aGDE7j5xDRmCzrZwQrI4AYqGkuiJGWoB/uiODrjRpTJisx5tsl4fXR/siIClCbShamN7S3wAkFZxkyYorfOjp6jaCVJT8mVXHzk0DhuHJzCbycX4FqGnjqy5XGMaFRwTNKQP6QhcG81vUfCjovzU3E8c0sn/np7tyq+LvZlz57cLC0rA7c+HHArE6BQbOXV59zXhICylrk6y/lfjk4o69FvVA093yvQOQrG7FdlObUdZSq6JhF20B1z8I4L1+PP1nWgP24KKhsV5SuK0hQ9rTUOsR5W2i6KldTRJlZlPRMd9JPRGXzpRBYfO5xFsVTSvY9tKSFzjYr4Fne+zYoOqEVRf5owdYO0LfnKjRlcu7sfF6fjSId19yJbfzTwnxjW5K8Ob0oC506AQvHc2fFMEjh7Atr3DOnK8evJeTz/tiEcmM6joDqwSOyiPPRtbF9QXc9aEGkBY7uNmOQLX6eNrR1RXD7QgZdszeBe6YTq9asFg60ho9WyiVIMvMdR7MXW3ayTVGwGd/XXCyXgO8Oz+IvfnMTsQll35zFFdTwXvj8rWjEN6MsisGtuQi52pySxpQOv3NGL7cmIF6MY0Fly2CQQaAIUioFePg4+aARsjOJvsgv4xtAMbjgwhjFRBtZSVCWHgmwhMitjp6CSL/wiGHhoXxveuKcXl6Xj6JVyOP7wMxObpk5XBsrgB6Z5XXaU5dDMVhkXyxX3uvqxg99PL+DjRybxrRPTuFv6fS/pVvbvjwDzUZ8H7Pi1tbUj6mBPOq46tty/uw29Mdk7bOEXtL93HG9zEKBQbI515CwagoBf6iz9tST/5kplfPl4Fv96ZAq/nMhhTlmMbNs7a42TRIagPvztuM0cVCKGz2rmOtiQjOJJG1J450V9SIQcZU3UxKz4Ma5I+UmAE1iqt6WRisbFrH6ndJGv/I+Z7ES+hL3Tebx93wh+ODKDXNFmByubpFek3LPABnWrKAjWrChfV/Z9VzyEZ2/rxFUb0nhQd0L3gPZiFE/3XmuIPwQcBAk0FQEKxaZaTk5mTQh42sZf0mapB5mDfMnFobkFvH//OD52cFKJhKoHpXFNI2R6IwdSLNoWfkUjdm12rvEvOg6etimNp23K4AnrU01gK6zPrhNar9s7pHp/H5RyOVZQqZhF05lFufdtQGsQLdCLPiDZrH+RwyGgLRHG63f34LW7ur0QBC0tZf66fE6l5qjNtjc/bZoPGPXZX7wqCSyXAIXicknxOBJYkoAtWbK4fIk8v22+rk1ecDFWKOFjRyZw8/Fp/GpsblFcvt8sFMSHvgXky8xVfmP5XovoaNhBJhHCdef14inr09iQiHJf/QECPx/P4fPHJvGRu8e1ctK5HkYz2sC+QJsTTWyB7W9t56L3TTjk4mmbOvFXW7tx36442kzzb2t/rgCxxcd9bbEpFPneIoGaEKBQrAlGXqR1CSwlFPXDrqz+0Z2d5ck+Uyhj78wC3rB3BL8Yy0Hci9Uvn3XRWhYDDXaRSxHAukQUD1uXxN9s78JDu5NmdkEXOnVaJBfIFkv4xslpvHXvCI7PF7UL2rNgN4tQVO+WRXvBJnSVcUkmiT8fSONlOzrRHw8jbMsredZEW1OSFsU67URetsUJUCi2+Abg9GtAwCSi6Fgz/YDTj3D5Xv6T0tFh1Zrtv07N4j13j+NwbkFb2UyHDn2CdNgwbtpAF9w2xQLFkihq2bjPQ6Ey7tOVwN9fsB6XZeKmHM4i13sNlqMpLqH2gy6L86upeXzq6CS+cXIKx2bFnR8ynVl8Mw2yAdpOQ83ZxiEa06m8P5wQLsm04V/vvQ4XpGJIKqti9YcLX2Rrdd4PP4M0xduBk1hbAhSKa8ufd28KAhKAr62G3vPLy8DQxZTnyy5uOjmN9xwYw8GpBeSK1oKy6Anv1cTT1shgvvxlX8wcXAdbO2J49EAH3nReH3rjYUgi6z3iy4I54fqM2mREj+fLKrHlb393Cr8cz1Vcz/eI7gzofvHeK/6QBTMX07pvfUK693Tg6o0Z/L9OX2F2s4V0rG+lrXhz5MnXZ1vxqiRwtgQoFM+WGI8ngXsQMPbDqmxWY8pwgGLZxe+yefzr4CQ+fGgc5aIUUTaPNWON1IZII7DszwJLegmh6Dh4woY0nr45gyetSyGm/Yc+oRjYydZp4Lr+pGgoaf89XXBVa79vnZzGXdn5yl5RCIPc7tHiO118rnYrixVxd0cEf72jB1duSKMvHvE+SOlsaLHf++2KzVBQqU5bi5clgbMkQKF4lsB4OAkspRPVY8q4ntUjyjyz5DEn5XA+dWQKXz4+jR+PzmiXs42zUg85f3yWX0AFmLVym+rWcuGQg2Qsgted14PnbelEbzRcqXLC1r2nWWTZUZXYO/mw8fOxHD53bAqfOTqJgohIz4AY5BZ+tuyPr7tMVZs+n/hzXTxvexf+YlsnHtiVRMSzItqC48JEu+spEwP8t4NDbzgCFIoNtyQcUKAI2PhE1Ymk+gElvxKReGy+gFf9dgg/GckhKy5n28JNRKIcFLINgP3JLH4BGSgiZrAVwdsTD+HygbQSiY/oSSIqNRONOHZMqk8QZ1j3MftKxcjOmC6WceOJLK4/MI6jMwuY88IX6j6S+t7A+1Bhyvx4FnXTutD74FXGZV1tuGJjGtfu6kV7WGyNVkgasaiuZY3VTHuu78Lx6q1CgEKxVVaa86wbAWXFUC9jx/C8aK7Kcv73oRl8/OAE9qkOG7qFn3IX2tZryjJir2Fj+qQLRUBjztQcJZEFCIUd7E7H8aY9vXhIdxs2m3I42lpmiTHjYOnNWSmrZGM5b5lYwOcHs/jS8QmcmpfElrpt67W/sC/O186zKx7Bg3qSeO15vSqxpVsHui5q8+hvibj20+AISCDoBCgUg76CHP+aErA2QN/TympGzJfK+I/habxr3yjuyBYxVZByONbVJl9K9qqvH7JKhjElc1S7sgCrANF+ZaA3GcND+zvwoYv6sCEhBZK1KNTxZLYjSYB7Fdd190m2vK3FKQlTIZxaKONXE/N4y12n8LvsPOakXE7gX8aSaNWgDcso2/eA/SCl98n2ZAxP35LBVRtTuDSdUDbpSjKL1BmoUAs8Gk6ABBqAAIViAywChxBkAhVrohKNpsydPLjuni7gi4OT+If9I1goOpD2fUooSd9jzwop4skWGw5X4hU9oRhgIeC4uGJdCs/d0oWHD7ShIxKCuJr98WNVQjvI26BeY7cGZhX/Wkap7ODkfBnvPTiK7w7NYG92wbT081ul6zWYel3XvGlEIEo5HPVGMWVy5GuvbqJ+n0TDIaTiEVx/0TrV3k+KcHveZteFo2Ic/Ykt9Ro3r0sCrUGAQrE11pmzrBuBygNJObxsuKEDvP/gOG4anML/jM763MzanlZ5LX6o+R9wjSQSjYlQjV3ErT82zD9OLVgiDtDfFsULtnap//oSIURFBEhmuBIB+hxbebJuyxPkC9tPHmoOlfi9XMnFL6Zy+NjhSdx4bNoIK/9ErWgMikvft+f9b4eqtbP7z8QdOsDLdvbgms0Z3L+zTR9pP3V4l+PHkCBvf469cQhQKDbOWnAkASQg8YnagmHK26maiWWM5kt46e1D+PbQDIoFGzPlC7QP3FzPTiiK9fBP16XwnK2deMJASruajUVVG4goFM+4BRQivWeUM9XoHmEpYQ0fPjSJ9x+YwPBcXpVg0mVyzDkm+7fqHjY5Jij68QyAHtybxFM2pfGird2IiaFe3oeLhWaTzPWMe4UHkEAdCVAo1hEuL938BKqMPsbwcziXx7eGsvjE4UncNpk31sSieegHNB5PlfSxMYbGVW5EjE7MMQksSgA62BBP4IP3WoeH9bahNybn2TgyLWgcc9ziDhvNv2POcoZSBke1g5T/Ly5W3e1HGH5vRMrlZHHziSlkCwVz4cX7a4lyS17dxbMcS0McbkpJuRFEwi4euy6FD1y6Af1xB21Sm9MrraPrKjKrviEWjYMIOAEKxYAvIIffSARc5Msufjo2h9fdOYz92Twm8kUdd2gznBtpuGc1lqXceEaEVFmqXGxuj+Ihve147e5enN8RUx1Yqr2oFbOPNnzR7HPPpTA1Ab2WkBUnvW4Q6WBooYAfj83i2jtHcGImr8pzavOjEVNK2FthZd39Qa/TaYM29QeT89IJXLExheduyuCCjhhc316ynM5qm/NgEiCBexCgUOSmIIGaENCu1btm87j55DTecMcISuoZLZa4EuBGTM9jW1y7JjddxYtY17PtBGItV/5i4Vqn/El/Es/b2onH9KfQ6ytfor3NlfhEZWWkUDzNGlaKRxvfs69hnxXtZezPLeCN+ybws+FZDM4UjOvViCklmmx7SX8W/WkDAVdxP63wVsrCHUJHLIyNyQjevqcfl/e2I6Os13r+LLq9QsY8nQQMAQpFbgUSWAEB/cg27dbcEP7l2CT+bXAKPz6VMyF5ooTKgJT6UK9GSlA5i4mrLGzjclZlS4zgc0WcmO9dIBQJ46+2deFdF/QhGQkhLEXIrRHIi58rGyuiTm65R8visxhWMx+6VC6LKixk3NDy9UyhhN9nS3jP/lF89cQUXBsioNLvpc6i7LtFjJeKXwwMyHtaRGWPvfq8PjxlYxp/lInDdSTMQ/adVBEIzMQ4UBJoWAIUig27NBxYEAjY/rK5ooujuSKuv3sMN5/IYixvaiZ6cXw6Ts9zBQZhckuOUYvie8YrAjEnhMerfs5pXDGQQljKAKkqd1osaoGjXagVuUy7z+m2wulzdivpvUXXxXQBeO/dY/j00QmcyOVRNsw1dEu6WTKARfnJBwybGKbjEHd3JvCcLRm8dlc3S+ME9m8LB96oBCgUG3VlOK5AELDZvCfmi7j55Aw+e3QSvxibMwUV/VnOAbcoVq1GRQBa8Sulb3piMbxxTy/+bF0HtiejxgKp0y8cScrw9ea1Oc9yPqXi0lu9UjhaU6q8fFZpk0Qk3X++cCyLLx+fRN6LBrCZ5vbMJnA526l4CTnaKh2KhPDEDR247rwe7GqPoiNiP5gF4s8IB0kCDU2AQrGhl4eDCwIBKU1y29Q8XnPnKfx2cgGj8xKTKDFUZvTipg2ox9nj709YUck5xrIjB7hldCciuLAziesvXIf/l0no03wJuNKyT+Nw4KpaiupEUybHd60gLPiqjNFabq1ItHuoIrh1TUqd1DGRd/G94Rxe8psTmMgXUFT7z7YANNnAKjtd5VD7soNXZTI1vIm11Icre9C8vy7pjOOKjR147pYMtiVj6gMIPc81RM9LtSwBCsWWXXpOvFYE9k7n8d1TM3j3/hGMLBShyibaundKDJmHtvpZQMvj+GH5haLEJ8LFA7oTeOH2Ljyyrx0b26KVR7RXC9CX6ez9VruitaLmI/30+1EHOGjZo5npJnUVISSd/O7IzuMjh0bxveFZHJgtmL3m/4Tit2oH9ZOLEbkSf+hld2ss7bEwdmTiePeF/XhgVxvS4SZ4r9XqjxSvQwIrIEChuAJ4PLW1CcijVkThjcen8Omjk/j56AwWSkb4KIubtZqZf41FLZjUTlPJ2HGxqS2KJ6xP4dqd3RhIRNCmWvXZ0jlmtjaRpSpKkSLxjHvBSwTyR3VafV2d2DGaL+J/J+Zx/YFx/Ggkh7JOu/cJcb84DKpQtHvG9Ej3YoAlkyqEdCyMV+zqVjGyf2Qt22eEzANIgAT+EAEKRe4PEjhHAoWyi6GFEt6+fwQfOzwOiEhUBh+bzWv7+Wmrm5f+e473W9PTFmcn2xixUBmPG0jjaRszeMamTEWXLBqslx3uCUUtYlxVRJqv0xKwek55nit2Re1C9nViQRliVcyVw3jt3hHcNDiJ0dl54/+3Wem2UHoT8Fb7z3x4UW527ZqPOyHcrzeBv9jaiWs2ZRAPhVT7aL5IgATOnQCF4rmz45ktRECVHVGP5hDK5vk8kS/hmyen8Zljk/jBiPRz1tJHvUphICxlOuRHISBkLY1BhmathEYAy8M57OB9l6zDVRtS2BiTBJYgzy/YY5d2kmW4+PehHL44mMUXjk1Ulx+SMAHZx1ZYBXG66u21uHi4aZGptqWDZMTBNZvTeOnOLuzuSKDNuKAX5337NHglAiKITDhmEqgzAQrFOgPm5YNKYJGbThkLHdX5QbTQfNnF/pk83r53BD8fy+H4nIhC29PZ0V+q8jBGKKqQssVZqEFjY4WituD0xCO4tCuB153Xg4f1JBF1aB1cyxW10YuDuSK+NTSDd+wfxeh8AfM2HMJvgQuqorchHaqmp4lBlIL2qk5ppV7kH3XFceXGFF6wtRvr4hH9NpR3sHd+Jb/MtkQ0nwTXcgl5bxJoSAIUig25LBzU2hGQjhiigxYLxZASidYqcThXwPdHZ/HWO4ZxLGcsh/4kj7LETBnrh+e2tckbaze7ld25IhRDIQeXdCbwom1deNS6dmxPxljoZmVwV3y2SCf5L+wCv5icw/UHx/Gz4WmcUB9irKgye9CLoV3xbVf5AtZkLdnPVhzeUyimoiFc1pnAey5eh4vTcSTD8t61QlELSv0O172zdSY+i7+v8mLydgEhQKEYkIXiMFeLgI3jCkNceVrqLe5sAdx0IosbDo7jNxNzmC2WTOs0E4uozhIXn3SGMOeq53PA4xS97OQy4rEQHjPQgU/dayPaI47qwCLzY9/m1dqni+5jjNUSFiFRDlLw/fbpebz+90O4ZdzEKroirsyHlzUa5opvaz90ibVeQjrUJzcpR2ULcevYRfnfxrYIXr67G49d144LU1FVoEn/TySjEY2ueAlsySEJLGHsxIrXiBdoOgIUik23pJzQyghU7AzaqKgfItrh7Kj6dOJm/uSRSXz44BimCiWU5OlsxaSKZRRBaB5i6rlcqYG3srGt5dm+DFsX+LP1Hbh6cyeevSlTlSxQKRLNB+6qr5YvsiFfdjFVLOGtd43gW0PTOCx9oKtKEQU169mndT03si/+1yb5wFWxihd2tuGlO7rwtI1pSFF4m42vCsDbSylPgQ4bYeXFVd+1vGEACFAoBmCROMTVJ+AFvquOImKJCSupOFsqqw4snz82he8MZY3/yufW81qmWeui8mMHv+C2cvO5iIRctIfDeNV5PSqoPUskAAAgAElEQVSrdJvqwGJLaYtRUayKAbdarf52q90dffpPpM+XTmZx4+AUvnZiCioLy7MoBlwoVln+KvUl/a399Ge7MF6yoxsv3i6JLTFEzHtRWxX1PtX7tSq1pXbrwSuRQBMQoFBsgkXkFOpJQOKXJHlDi0GpVfe0Xw/jZ6OzyBckNso+ZCQm0Rwnlg6VGm26s6iHk7+mXT3HW69r64zZjqj01W3Dded144kDHepZrHuuODqx2ypsGhTrtRBLXtcneyq/d4HpUhmfPDaJv/3dMCAhEhI7a4T9qg6wVjfzLIYS1mGTxfQu9EpQmfequqULPKi3HU/elMFfbkkhHdat/XQ7Sb1vvS9rNUZehwSajACFYpMtKKdTAwK285l50OjEFgcHZvP43vAM3ndgEvunF1AuixD0ZTp7/WeXKojsO64GQ1z1S8jcQsDuVAzXnteLy3uT2CXWRJMOIP96+T8Uiau/POaOGn3FOlZ0XfxkdBYfPzyB7w/Pqc5BgTZve/UjfRZ75YL291U3oSCKQxk98TAe2NP+/7P3JnCSZVWZ+PeW2CMj18qsytq7qpveoZutWWVtBhFQQVYdGFeQUefvgjKIAg4zCsLo31FGGEAUQQREmEZZZJNNQJqt1+rqrr0qK/eMXGKPN79z7j3v3ReZVZVVuUVk3NCiMyMj7rv33Pve/e53zvkO3nTtMA7nfBQSrq5sI2pOjjrvxatObvoc2gtaC7SrBSxQbNeZsf3aUguIJKJgnnKzic9NLOIvjs/gm5MlzFRlwxVmQmdgCrNhbjth3ecORlCBg50ZDz8ynMWbrxvB3nQCGc8YT4hNWtXqtnQau+biccdp9Bv9dHqpim9MLeGtR2dwV7GMSoNCKTp4LbbOqrnkJKkldCcrmvuqfBKvOjiE5+zM4vqepBZ6l3hklfss8LJrFo0dqLXAKi1ggeIqDWU/1oUW0Pstxd2dLVfxvtNFvOHIlKrbxxnMRFgYcV/snRb5EZ3lzFQbfcZgQDrUlLePZPGSPT34qd39yGsXnio/rLMoOMPbxnptxfSuaHVhxgOAxOF/5e5z+Pz4As6XpA70VvR0jdfUtcURiOSPxCfqOGBmvrUrmnVLVchI3ndxdSGF118zhOfvysPXQJnzn50mXJHaWWP37NetBbajBSxQ3I6zase0JgtEiSwK+DUQ4EOn5/F3Z4qcQcpxXvLifcrkIiRQzwzY83Tsnry3pu5t/pepAEvCw69d1Y9f3t+HfdkkEjrOTeFlJfsjrMy2Yqs239pXeEU51URSTuaMlBpN/NP4Av7m5Cw+cWb+Cq/RTl8zoDHfsBowciwwxS/KoU31mcjvbMLDrxzs5ySs6wtpddvyEU4j6m1EsrbTTNm+dL4FLFDs/Dm0I7hsC7S6RyPgF4EdRZSVGg2MV+v4wyMz+PT5BZxYrBhXMxg0ru9sBuqZHI+5Axkg87L7vd5fEDYmhnr1L9Hfcr6LRwxl8er9/XjhrjyShsxIlOUseSx2t13vWVpdewZQpC8wcKfVrBi1RhDgTLmO95+cxV8+NI3xSgM1irHVUCm6hrzHjbRxaTsTKJo1r+l9rUIgsZrGR5+0I48X7C7gF/f3sVwOkY+hI0APeXX2tp+yFugeC1ig2D1z3bUjXR41F4/hYkSog+FViS+18dCWeaZUw9enFvHWI9O4c5aEi1uZjHYCfpcxxTENOgEFLa5jp8FC2nszSfza4UH8h5Ecrs1TBZZYUFiYPRp7+zK6Yj+6dguEq9JYjgwUGbdH4P2OsXm86/g0vjxZQrFGLmj6O5W4k4SQun6P1oKrs/rNA9Da+7r5LUTyVF7Sw9OH83jnTSMYSblcsSUs63cZQHH5M2XzR2WvaC2wWRawQHGzLG2vs6UWCPdPo3pIq4uZfFEsm8EC28ql/K9TJbz5/kl8f3YJk1VJAqAYxcvYVbZ05Be7uJkdagJe2lgVaBxK+3jMQAb/7boduDZPCSzUnk7cYY1JVeFC1cFWfKzlFDd/wmNAUU8Avxc0dbUcBQRPlWsMEl9/3wROLlQBztyXOZV4U91ACDI7NGRihWkg4Hx9IYWfO9CHH9uZw+Fcite6rSi0+WvWXrFzLGCBYufMle3pGiygNk2lIRcCmRj7wjVYQok5+szxxRo+eW4Bf3D/JIr1GqjaBcc/CQO5hv5s/VcFJouL2eRIIqTxxB05vHRfL140msdQUlx6pKmoXJtMvjJQFOLKAsWtmVuTJTdBv0o0cnQSSLkZ4IHFKv7HkWl8dWIJp5aq5JjWOqGqDGMYvCcDidU935rRXflVW9Z3AAykPFzfn8bvHB7EUwazyFJili3zfOUmtt/c9hawQHHbT7EdoMKIevMUoNgCEok9axoiGRQT/49jRXz4dBEfOU3B/5pNDEvzdTrLorO2OStUx6UZFWSIYelxHbziQD/+y9VD2JN2OTZRXJRhHWzGFsJARTFxdtVttgVkPVJqhprPMMqUGLMQCQWcAf2p84v4m5NF/Mv4IpqcQaxqJC8HihKW0ak8cStQ1OP0HbzpYUN40WiBwymkhPRmz5q9nrVAJ1jAAsVOmCXbxzVYQDZQIzM5LLPnKHUbckfrADsCSPUAWGg08Zt3n8PfnyliviwVV4htaWqlm8g9u4bObfFXdRwaAwWyEzGFamNNeQ4eO5jFf9rfj5fvKcDnBBZlK8UkKnsS2dTkxAnAZUCiX52KK7Z4Rq788mqdE2gP4xKXxSuqVV5rBpis1fG2B2bw7mOzWKrXFEne+uLJlfns5AkVMW5hxHkh40nElu/pxasP9OtBRmD7yufBftNaYPtZwALF7TendkTLLGC4VZUPmj8RJiqH7IsKej9fqePLk4v4s2PT+NrUoorjIpdzCINkVzXdtZ1mdul7i76jrsDSm3LxuquH8GMjOdxQoAQWtcmqb4l7UjFQDLY5e9RRtZ7pg51cJq7TpjKEOTQ7TTjMElPMaCRrKcVLVIAFQBVbPnl+kWuWf3qsiBKdjsJX5MbuUFMY3abVSAc9fRDitUsL2cWOjIfn7SrgddcMYRcltvgCJDsZFHf+jNkRtJ8FLFBsvzmxPdoAC4SQTu8TSj4kgn7EhdE7lUaAH8yV8SdHp/DVqRJOlSiGi5JXdAKHuGc56UXe34AOb3iTJhiQjVEBwELKw7V9Sbzj+hE8qi8FCk2UuhUqXYWYK9VB5h91iUP+i65CI7IsGz4Me4EQwCsE1FCSOIGrE41E5aZVvsnBsSUqSbmIt9w/gbFSQ8fg0hrQdwbHNZpyOZ1obA0Uw7td7no6+AV4dH8aP3twAM8ZyWJPJhGlYm0nrNyJ02b73FYWsECxrabDdmbDLcCuUsWNca4ubai6mgrVdD5bruMzY4v49R+cR7FO0V46yp1ZCJURrdg12kDpn+nO2vDer98FBAxQ/wnwMuglMOHi0QMZvGxfD1442sub5zKiiQvSaHezIRekIKSqaW1TWtZvqlbTkubIwxAKtcI1uxs2wNLSEmTAuvF0KHrtPeP43mw5qgPN60BiFnVYAoPGDnwZZyA0aa3re1iHnKR9F6P5JP7qEaN44kB2xUQ3m8bfgfNuu7yuFrBAcV3NaRtrPwsQ+xVVclUuOJ2ta1bZ067ofzhXxAdPFXHH2XmEajgCosLBmbtP+414VT2KBaXFUz5/ZEcOr7qqD08bymNHivVwVGazBtgMQhiZEHcl8V+mvKJ13a1qDjbiQzqzX0VYSBiAgo1yPJLYUgJA58sNfGZ8Ef/n+DS+QmEWsWgKod/VXHfmSw+IwW9AgbTGMEhw20E+6eK/Xr0DP7arB9f1JG3N586caNvrDbSABYobaFzbdDtYgIAi8YIEabTWn2bTKHGFXaVwUAuAqWoTf/rQFD5wag7nlqpohoFd5u6pEzkk0zdk1NphrJfRh7jvOBQZJ6Rwc18azxst4HkjPTiY85HzHKRcV2vN6Y1WA0VVvk9fV7/XsZjiMszXth/lZCNhwdW6lTlSmepaM1CHmVaaASbKDfzx0Ql85Mwcu6CjA4ERi9q2A75UxwygyGtVsv3peyqcJOECTx3O4eV7e/GSPQUWmdeBJpdq3P7dWqArLGCBYldMczcPUpcy01p/DacJL6C0CxGIVqI4MzXg61Nl/PmD0/g01XNmd6yO69IMpI6C14ktKnGgo13PND7XAxrkXqQ90weCBqiuWW86gdceHMSTBtPYl/MxnPK55Jk4lRU21DaQDGidzMJN2WSWLbjporXOs2PU3zarj4gUjFnAj2SgKLHljrGiPiDJ/G7BMNbzkpphDbWCQmKUQLAkqAWAH+BVB3rxtuuGkfR9+Bosqq6YDvv17Jxty1qgMyxggWJnzJPt5RosoDgWJfvC7KIGNrIHVIMA9yxU8MYjU/jmZAljS7XQVXfxy8b8dGvo4RZ+VbTzFFIMx+17Lg5nExhIeMgkHGRTPvamfBxMe9iXTeBgNoW9mQSGUx4otlMjTVXlQrvxzT1ZWMbIJRq5u8NYukDJFak6LyqKNHJ42uyC1a2SOPsdt6HRguFVpvk7vlTDx88t4LfuHkeDsvxZXF7aWiHUQiY5Ni2mW3d1vd36T+mxOQEeP5hlVvEnRwsYSVFZQyHLCVJrYKljcyW9a+v7b3tgLbDxFrBAceNtbK+wxRaItk6d0dnCdp1YquHzk4v4/fsmcXaphiZvkvYlFmDiMeFhJOFiT8rDaDrBSS6jmQRGCCwmXK7aQhUvRpIJ5HwPngZ8ZmxbaFXD7R2LfDPiIFcGip0aJ9eGa0lc1Mz+Bpzx/PWZMt58ZAp3zZQwUZbDktg8OkREZ4qohrIK7DNjGttwzJfo0kja50SuNzxsB24spJDxyPNAL829kvKBBYqdN7G2x2u2gAWKazahbaDtLcD7l4IpzCZKmJ1DxEkTn5tYwt+emsMnzxRRrHe6HMhGzobEd6kyhlT5LJXycEs+hZsLSdxYSOCRvXnsziSQ9x0kHLC7mmO+zNKJXANHvdRGzChDvWFgdFMHkP8k5M9GDrFL2lb5/Cq7mR3WjsMZ/1+dWsSfPjCNb02XjFmSBDADqMeYaEM3c0Xl7s4xKoHFt9wwgmfsyGF/JqHLepoHFMtsd85s2p6ulwUsUFwvS9p22t4CUd6nevCT6PB0tYF3Hp/FO4/NYLJURcOSiZeeR43YCCvQv7znIO+TYLGHHs/DroyPQ/kEbiTw2JvC4VwSAzruK8SC2l2tsql1dq5RR025qI08mZCtksojl+6m/cQqLcCUe4BKs4lirYHX3j2JT56b53sjqsxi3hgrgSUN9rmtzj1s5XwXTxrO4+f29+EFu3pieVlmiIRxylmlke3HrAU61wIWKHbu3Nmer9oC4nyOi2zP1wOWBnn/yVncQQks1uW8SosKKNBxbIy7I6DQk3AxwrGMPvZnyU3tY2c6iQOZBLM0uzM+V8Hg5BhOrNVsr2SZmx5NDR7NmbMO6FVO02o/ZiZrBcB7Tqoa5587TzXOL/RqBYvCCEs5mM48cVESy1DGxyv29eHn9vdifyapa5wbKzAcul2Jq11i9nOdbQELFDt7/mzvV2UBLSbNeEY95cnDfLrUwJuOTOAL4ws4uVhV1VfCxIxVNdydHzLc90z7uRrZKSVzTQWKjBC4sstwNoHH9GVwW18aj+hNc3wjxTRmXWIiHc4yVaQhJRuZZlUA1IQddnte+7IL43Y1A0g1ovn2cBw8sFjDR07P4Q/vH0ep2eTa56HfPya9o2MSwwkToe7OZRSVEYCnD+fwsr29+IldBfT6KlZRJcGpw5GyX4eKkK99+dgWuswCFih22YR35XBFDk4Pnh73Y5UGvjVTwu/dfR73zldQ5b2tM1mQTZlTqdTBaK4RXVIyyMV0JtGk2UBKlqAyulnPQ851kXYDXNeXwcP7M3hUIY3HDWSwM+XrzVfpWsYEnjnxIhJNtzqNa5/xqGoL2VoOUioTnbQVvzi5iP//wSl8e3oRkxWSinKNan6SsS7ZwDpGUYBUp99GDtCfSuBxgzm844YdOJhNMPvNNuNwCF1He+3TYFuwFugIC1ig2BHTZDu5FgvE3ZZqi/zXqSW87+Qs/unsHCbKeiPs+Lq2a7HSpb4rHJRmVUJKquV7IUjQn4tlw0aM41A6gV3pBPamEtifT+BwPolr8ync0JPkajAZSpvWFWEillKuZTnFS83Wpf8egUN2/Us8qA4jeGixin+ZWGQB+nuKFV3esSXhiNn3lZUELn399v6E57o4lE/itVcP4KlDOVyVS1pWu72nzPZuAy1ggeIGGtc23R4WkPrDijOkBJYmPnB6Dm89OoWppZpmE6V+c3v0ue16EdaCFrZP3HAGE8tvtWSISiUMJgpbAJ7UFPaAg7kEHj+YwZMHcrg6n8DOjIcdCR89vosUubZDtx/Dx7YzT+d1SIFDVa1ICpboyiWBg1IDnAX9m/eO40sTC5it1BWrSNhQPMvbDijqEAodfjKQcvG0oRx+9kA/nrEjr1lFNdMqGMKuw85b97bHV2IBCxSvxGr2O51lAUMepxY08enzS/jg6Tl89OwcmnUlDaLi7DpbB25DJyUUKdcMEu+WOiYtTFGOkoYUCiEEQnGfBC40CFmpk1QYwwGSXoCU52I0m8Qj+rJ40WgPbu1NYXfa53bstry+M6z5wHj547CiC1BuAO8/Ncvxil+kxBbXKGwXA4vr26+ta00fSPRapUcCHVJ+99ph/PyBfuxIkiyUjnN2GnAglV22rsf2ytYCm2EBCxQ3w8r2GltmAdkMiSRoBAFma3X83v3T+OexBRxfKGkwI90zkjG2rMfteuGWRBXNq6ApAf0CBKOA/6i8ocyCsIHETJkZ0/ExUyzjUMrHNfkERrIerson8eT+HG7sSWEngUb7WrsFjGxzU81SNazmhu6Xo4t1vPdkEX9ydAa1Rk25X+mAcMGYXpNpXns3N7+F1v47uH0kjxftKeCn9xaQooOPlPQzKzxtfkftFa0FNs0CFihumqnthdbLAmG+xCq8PyFQBDBRqeF7c2W87t5p3DlTUjWO5cHPbVmguKo5ksxwNq4Gimy6liyGUJRZhLqltl8LUNRxcWFJXaMTbgIYzfp49mAej+7P4foClQ70MJT0kPVas05XsSBWNcAu+JAwY7pUYvyoJHcNBWq4+Pi5Jbzt6AzumpnHQl3VAme2WMA+C3dLDpK8vx1sqMIshtMenjGcxf+4YZhL+0VgMSpDudJolUnsmtwOK6Hbx2CBYrevgA4cv5AZLj2DGSuETrR4xQ8zAxcBvja9iD87NoUvn69grEQgsQm4nnKLBvSzAJgONEpHd1mSJCipSH4m2R0lV8TbdTNAOpnCw/uy+Nm9WTxjKI8D2YQRJiaZ0Ro8tmBWQ8s79IozOdbRdtuczp9equErk4v4vXsncJRkpNhoLWBfYlNdnSTT0ZnP+sHCmd50yGni1r4U/uD6YTyyL4uRlKfLFSogGYXlcsQn20aiWBynCRKVZ6PZxbY5C9ZeZd0tYIHiupvUNrjRFgjL8YW7vwKKxH6YnKCjo+7p/YlKAx8/V8R/u38ck6Umyk0CJWbyRUfvbBtt8q1pn+aXw+IC3rBd10VfwsOBrI/duSRu6U3j6YM53FRIoT/pqVJ0JF4SKHCphLzVJh1PsZH4SbWSZNVY7mflaS41mgwQX3fPBL4xvYTpcl2f0OgekrheYZY7PM43XAQSr6ieEwMpHw/vz+G/Xj2AZ+zI6sOpgoUiNRSS6nLWUcG5FihuzdPDXnUdLWCB4joa0za1WRYwqcII4HGBCc1Iqee9irgnoPi58UV86HQRf3ViVrGH8jLRgUUKmzWBq7iO6c40JovdnQ583+PSgE8ZyODmvgyu7UniqmwCwykfaZ0/I0BR7dsRVJSDhsr6VSSmikyLA8pVdLJrPjJTa+CvThXx0dNz+Prkoo7tjVzUGtFre3TwoSsMQZFYRfWscBwXvu/jTdcO4qW7e3AgS3I5apyhY0N+MU4lYdGb1oz/rlk5dqDbwQIWKG6HWey6MeiNSNcJ5ge5jpniDObQyxMgCALUAwevv3ccHz1TxLEFEovWQsH8YNfMIsdZaYRhhbe3bkUptK8TJvSOS/+huDgWhqasJP13/k+AdMLHkwczeNloD562I4cdKZ8Fvl2q9iJzacj2KCJao0RaQy6tCWIiZf63bvjtemWqzjJeaeDtD0ziz45Oot4ktQBx82tmsVUovV0Hc6l+iQwQrTVaG+I6BvCjo3m8ZE8vfnpPHwARnvf0McQMf9BrtempMF7reb6U1e3f29gCFii28eTYrl3AAhFO1EyQwg8cs8ieRnpgK5fPRKWJ7xTLeMcDU/jq1CLIjRbX+luhEog1/OZaIGRgKJvWAO4cB2d0hTUZtTyPhB04DmPIft/FvmwCN/Wn8SODWTyhP4ODuVRYpzdqpSVQzJBOUqSPDSRbafLpLqk1A3zi7Dzef2IWX55cxCLdS8tewsRt7hJa36vpMchDJTxkOBjKJvATowW84/phZq49PsAYwQ2hVyLSqaTDjHrZtbW+82Rb2ywLWKC4WZa211lHC4jLx/TxRI9h5XJsot508P1iFe88MY3Pjy3iBAXihw9seXhHcWyc3BITjF7HLtumLmIBM7KUWF6zTEgY8KUnWNydMpU6AxcBazHuyCQ4ZvHRfWk8qj+Lmwtp7M34SESniHg/wj3cbuYXW6LqLglw73wV/zS2iD96YAoTFbqfCBCJZIyAoQ52PYsjOVyDNCYZD9HUwOMHs/jtqwfx2L4MZ0HT86Y1ClaeRlGpRAsU7SOwcy1ggWLnzl0X9zwOFJcHkSvTzFQb+NT4An7l7jEslpuok/8s9AEJ4DBP+aGKcBfbdguGLuA8ZF5awGIos2P2TW/ePH1aCJnDCNR89iY9PHYgg58a7cVThrIYSjksp5NwrXD3lc9wwHWg75yr4FXfH8eR4hLKJJfjkLalUff5yi+wxd8UGSeRXVKJUMrFLIC4idGMj8cN5fEbhwbxqP40Eo6Z+Syx0WodqvrQuh1LKG7x/NrLX6kFLFC8UsvZ722ZBaJkBKelKpwB/gIHX5haxEfOzOE9x2ZQb7o6+JxYQ6qowJor6r/ytVZZvi0bYZddONxIW9jCGLNo2kQCviTDVljHSPTbc1zkfQeD6QRrLz5/ZxZPG8rjKp2EEOUWOEoO0AiH7DLrr264OlGcTHWuXMeHzxTx4dMz+NY0idYbQJHj+1ZySa/uMlv7KUFyhutZwhF4kaiDSNJ1UPA9vPG6YTxnZx4HcgkjuSeSlGSYGBDXaBfX1s6rvfpaLWCB4lotaL+/BRagB7CQg+YxXUHIRgAs1AP8+bEp/N3pOdw9W9Gf10CkFSiagsFbMBp7SWMj5Ym91KuVmjG/0xJz6rgYSHl4RCGBJwzmcNtABrf0ZtCf1DWkwyjXVhGdS/Why/4e3nABSo0ADy5W8efHZjhBbKrcCDOAO98qOlEqFBNvGZFeaq4b4HmjBbx0Ty9etLugTxryfFH6n/JisGjZxM5fGl08AgsUu3jyO3boDBIVKDRjg+TRXKw18INiFX90ZAKfGptXw6QkCXoxWaCzW5lRFPfSdqoo0YEzG2NudP9XcjnzpGvpHJlPWgmc6KJrSodJAzK3vACwL5fEbQNZ/OSuArOMezI++hKmK9ru5iuvHH1nGcwrxfK+99Qc14L++vgCOKqDXqH7v4NtKTXMQ1eDuKQpxEGDQTfAUNrHy/b24Y0P24Ee3+UYWWWD5QyiaboOvDttl7vcAhYodvkC6Pjh6yewcX7H/QsVvOXINL4yvhQlsJhl58xSfeYTXHucOt4mnTyAUIpEp7HHCEZxMUtmtOge64ljoCiHgFbhZ4clczKui0LCx4+P5vH8XXkWT+bDRohrOhjgbPC8R4kZ5K4PcGSxhv87toDfv/s8lihWkYF7h9uv9Rkgck3qrKGlFdQ68zzgacM5/PJVA3jSYBaDSRXSIhHUbA7OzpdF3OG22eD1ZZtvXwtYoNi+c2N7dgkLhA9kPvCrzX6qUsdXp5a4isSJxRqWiOqQWMSwvS5AhBLfFw417qKPTLvWzUuQurAoJrK7WNsXcjFfqJ+87RoZqCttvjrhwEyKiRV1VAwjZe9e3ZPEzb0pTnh52lAPDuV89Cbo7xcPVO3uLb/JouRKcxKYbzTxzZky3nzfBO6ZK2GqShVbTBbXnGPTcnSvisJAB92L2pPBY+ThOFyH/LahDH73miHc2JNGQsvlKH9Hazb0Wu81uyVYC2yNBSxQ3Bq726uuxQLiCePnLmUVahDhAF+bKuFjZ4p49/FpLNT0B2PAYS0X7qDvmkCRzWRsUrLh8R69ms0r9KmZkfraGDrLIQzYN8CBKVy87DIXAorrbWNxG5oARiUl5HwPuzMJvHhPL540mMGNPUkMJUlKZ7lNuLch1omvufXucfu2FxbPVHKWToDjS3X8/Zl5fOjUDL4/Vw4BVDSGVrBoHChM9rh9B33hnukSkwNpF++4YQTPHM5jNJ3QrKIad7SSVnOfdaIRbJ+7wQIWKHbDLG+7MRpIseX5+6YjU3jHg9NYqNTQpLhEBkXd+pA2wJGJdNgeOtYqvpu1CFxr5iSsqS1oaRUgj8WKdePhx/U1uT09JzHX3AYuVH2oULs49YOqaZBYdxPJlI+nDOXw0l09+LGdefQnpOKIchtGNaR1pRd6Tyd3UGm3bnjxePWcqdXTZBBUbQaYqzbxmh9O4CNn54FGXbta6a8e0CT5HLNusgncO91yag1nPQc/PtqDl+3txXN29migqMYWlhvv9KHa/ne1BSxQ7Orp79TBL3dvztca+LeZJfzv47P4xLl5NCR5JXQTdepY19JvATyyYwnQa2UXpdixAR51qpC6eisrZ9jf1EA0iEdmKsm9yKxii8s4dOG1otS1jPVS39VAh4cYgR7eyV0HI0kf1+VTeNJQD24fzuJRfSmkRHNRg8WVkhS6ozp0CJW1kWW3mMoAACAASURBVFXil6wWUhn4yxOz+LvTRXxtYiGaiJhXWRaHLvfHIt2d/lJjoiPHnqyPnzvQj9ccGkCv58KT4XbrGbXTp9b2P2YBCxTtguhQC0QxT80gwKlSDe94cAqfOb+I+4sVHZdoAKUOHeXauq0ZRQZGK7kANWMYsntSEUUYW/GdCVBcAdi1AkUJAzDjubgUX2sCimjtmVU91jbai357GXMpYQniUnaQdl0czKfxjJEsbh/J4TG9GfT5LpKMdXlAWi9PXal7MIAoDIiFo6xzIZvvnCvjI2eKeOvRKQRUHpnXnFnpiOwnc61tuYHTvXlNyz0EPHe0B790VT+e1J9BgTKneJGoauPds1Y2z/L2SptnAQsUN8/W9krrZoEIJFKT5UYTP5gr46e/O4YHCCQ2iSWi3UqzWd0Yo3ghWzPLoyuY0C5vsmuhm15va2RHvdktTwiSC7Rsg6F6tc72DKdKpIhkTsglSX2hTFGTyVy3RaIaCvX/fCCo6lwLEkimxAsNXszKGU4TbsLFw/syeNvDRnBzIYWhJOngyTgNaZ7uQovxstvKuHqy1Hr5+PkFvPz7Z1EtNdHgOtAGGKef+WwgTKJegzHWcZ3nfsObk/AJdZDalU3giTuyeOt1O7A/m1RpU4GR0GLR4obPiL3AxljAAsWNsattdSMtYGATehBT5uVHzhbxN6dmMVEmgKg3sZVKw21kv7a87RYXr4A8ZsKMTT2G7QSkCWMmMZ1RZqeiQ0wdSqPyBl8yqrfMQCBkKI2SiGHmOX2WPqPLojmiTbdBxmOARyBFRJCpwwRWjXHz+PT7qIPiDguJBK7L+fjx3QVOUnhEX8rIh+6uHT90MgeR5uSysFUHuG+xio+dK+Jvjs/i/mJZM4oEDGVd6nUiBxIOTZBkqA2a/01r1kXKc3B1PoE3XDuEJwxkOVEqfBaFa2zTOmQvZC2wbhawQHHdTGkb2jwLKFBDhBdJclDW5buOz+CBhTJXjYiojzjjsXn924oraTczD94soWbGH2pAFBMEbgWKGgSJqHXYrNhS/itkksGwheykEY8mrugwgUYyrUUku4WhW2/TCVAMM2yFZRQ3qLjEZaAslqfjKpu4bTDHWnlP3ZHDzYUkhlNUrq47gaKqWSyJzRKdqYGeA8zXmzhRquKN907gCxOLmCG5nFhWfSsbK2uv0+1J41Aain1JF88ezeOVe/tw+46cTqbrpufQet/Atr12sIAFiu0wC7YPl2kB9eCtNIF/ny7j/xyfwV+dnKXifYJetFdRajnr2s6XeZXO+riUHtMuP2Fqwj1KEjgcoGkwjyQFI+yaVKQIgeQKNXu5PSMRgfd4w3UcExc2Qbt8R3dIruG2CmOvt9UN93mYVEPrxOiP0GMhu2VmIjjYmfbxuME0Xn2wH48byCDned2ZSK9rOCszutodr4G/Nhl5nN/20BSX9vvOFLGKxtqgdSfrxSzV2OmqBHxA0uvJBdyUhzdfPYRfP9iPlOdeQplzvde7bc9aYP0tYIHi+tvUtrjRFtBe0rl6E29/YBKfPDeP78/SpiRuUMnyNRMmNrpT7dC+IWJsMnhh10zWzGQgQ54oAtqqHt7yQfFGT4yb/hPPhclKml8xWDsGYxLgr1k7ugaHLq5wnXUzpwn6NJtIgCfUSmyxA4NlApI6YxsOkuyKdnBjbwbP39mDX9hfQNr34HU6wLkMG6tYu/g5TH5Xs69+o6Xww2IFf31yFm8/OqHnV+RxhEWWw8I2iyHWBw7HaeIndhfwM/v68KwdeaQ9dR90R4b8ZSwq+9GOsYAFih0zVbajpgWmq3XcPV/BW+6fxLemS5ipCtgw3TwtbtJtbULtcqbkEA1gfA/I+C5yxGoE4A2Lfs75lJwh21YTvZ7P75N8oMruVaXHhHdU70RAQeF0BbDo3cVGA0uNBkqNiKmrNQNMVJuoBgHqQRPFegO1hgPOceD4RL6KYjc3NNmoFRAbyTxmTV8RKA9HbST86PH3JHzc3JvGc3bl8azhPK7OJbnGbze8QvOEYDGKLaQ1I3eaGzhYaDRxx9g8/ufRSdxbrLFLWsUiGjJNqxJ67yDLtkhAHSqkcPvOHvzO4UGMpHwkXQsTO2g2bVdbLGCBol0SHWABTSHqnlJs4vfmSvjY2Tl84GQRJ5ekdJiRackOnzjU6YCBXryL7LlzeNNJOg4DOxohVRLxHeL5AiRcn5kuEpJOJV30pXwMJXz4CNDreVyPdijtsfYbvVw0MJpK8WeynosGZ4sDHgNFhwk/5THUQJH18wKloczf9jBVq2GqWsNstQ6Hr+Sg3GzivoUKFptNVJoBxio1LFUDVOoBqkEDTTRRD+h3BxRWWgsCFm+m90yv5JrnrDWhyfC6s/VoIKy5KdJAphg4gRvDdc0Gc5BJuvidw0P40eE8rssnkfHI3p0eZ3dxS4d34ArnsMBghJ3A5bDEu4pl1jN974kiji9WWaA70omRA4Lcrx1uO1ojfEDju0XFK3oObuxL423X78CtvWkMJ/1uC21d861rG2gfC1ig2D5z0d09aUl+DLcOrccWaOBH75caTXzwdBGvv3cC0xViqqSes25ETvdMJpkZuSbDKEyTNnur1mAYdyTJILTRSZyfZABL2xebOokdlM+YbloJgtfoRWRrhG0THTrJEvYcpHwfB9IJHMgksDPlIu0H2J1OYUcigYwXYDSTxGDSRdYjMOfCIxAJla3qOQGDSJ/drtpVSODScTS4vJIl6DC4a+h/SmhbKRSVmk3+L73oM4THFhoNnChXUKq7GC83cGShhKlaA2fKdZws1TFRqqEihCPFnEpGNSNTY/7CEoW6vrNmOGPALqTBTD+5nB/0QSJsUrtFL1QphoXDFWvrugGGM2n86HAPXrm3wBnRPexelBg8w44msLoS83bgd2jIxCIeWajgl++awJ0zS2jUWxNbyF4dDhTNQ4cgaR2/SWt1OO3i6Tvy+KUDA/iRoWzLoqAvqBAO/qqs7cCRW6gDZ952ebtawALF7TqzHTiuVvKGHqHi9jSP41+ZXsIHThXx7mMzOjGDBksbvQksTAPEaCQja7WVcYwzl9E1L+TCNqO0Wgwe0w8x9wh9jZi7VYNJFxhMuBhJetiVTrCLmABIwfewM+0h5bvwPQcDvo/+hIcen1jFAL2+xwkWJAxdYGaQWMZo55JsVWUjvUFtwvrg2WOijvhIxUISuzhdb6DecLBYb2K8WsNSI0Cx1sBMrYGFWhMztSamaw3MVhsYK9cxVqljotbEfLWBivJdR73nKTTQGP9oAkMNiuUgIDGW4goNWWfzeysxXCKsHGVrH8om8cSBLF6wO49b+jLYnU5qr786DATEykoVROZfu+dFBweax3cen8Mnzxbx79MLUQwxm2E7IGi9TngoOntegCICpD1gJJ3Eb1w9iBfsLmBXytccPS1ZtTbYEvysoNORA2Jk5ZzYPavFjrTdLWCBYrvPUBf1T9XP1fFv/BAVoKgAHVVgIaDx9oem8PEz8/judFlXy9BGMrX6YgDABITCphng0czM5C60AAUTP4YA0JD6ML8vT/kY5oyAJsUGZlwXWZ9YPxcpJ+DMyJTvIZFwsTfl4mDGx+FcCv1Jj+sO70h6OJRLIecR2xBw/CBLI+pYQnbrca9V0DzDFPqc/j/Zk1X8Ib2/CZCFyd14ZQ4FmpQTW1zZ/LMaSAiuCCSeJYBYbuChxQoeLFVxotzAVKmOuSrFQwaxf6V6nRnN8BVmcdM7OmGC8bEh+s1rRaRdNK0jGHqlNRBiG/bxK9FyAL0JDz852oPn7urB4wdz7Nr3w7FQZrDkhEtUZxfc0HoqKD717mIV7zsxg/ecmEG5QSEHkgilgFFn+2Ol8hMN2ASK5sHUxc/s78PL9hXwzB05eGhqaUW1NiLIrOJ7+d7cDhi6C5Z5Nw3RAsVumu02HitnVXJQvNo8VHScsEHKA7nUaOJ8tYHX3HkGnx9fQk3chPo5zRkb8lL+nMj1LMDABHIMFHSgn+BDDQDUDq/bY1FoibG6ELtI17tANrC4rF0XyYQLYqKuzSdxbS7JLuS92QRGMz5GUh4SDjje0HdcTsyl2DfajnxXA0QGMxI7FyBwfDgGMIpY2fiGE1XmJUxmjHkD14QAWIW/wihHndegDwXLYvuUu1pc2cqtTa5rcmc7mKo2cO98BfcuVHD3fBX3FGt4cKGM+ZoGpeE8k40oLkxiD3UZQWEcJSvcrEzTaovQTuKW1ujfeJ/mJuN5uH0ki5fu7cGzhnt0+TbtQjSXy0pE5Qbaf8ua1mOm2NZ6o4G/Pj2L//nQNB6aq4P08NVtrUM55D7dss6u14VN+Sd16BEVhn35JJ4/2oN33DAM4hTpGUe2UcEKUkdbHkC25N96zYhtZ/0sYIHi+tnStrRWC8Q2baOqBz9Om7i7WMHfnp7HR08XcXRBl2MLK2xED1p1TDd0A2Mpm7RLGckLIXtkClPr74abfKvr2hhozF+u4ugI3CV8DwfSPvZlfOzJeNiTTmIg5aOQ8NCbcDGQUGwhuY97yHXse8h65nV0lqTug7Bz4sYVPTpiaKINx+BnQuZT6vSKXqGRrLHW+brI9xVJqBlhnYQTMpsiFdKa7dyCwSUhmvGVBlmUJDNdbXCW+xS5qKtNzFXrOFOq49hSDafK6t+5ch1zFQKdetMWFlXHGSp5HC3PI1qS4VxKRwzmVWNEHjKXiIy4IDrF7Mn4uLkvhWeOEHOUxw2FJAIdc6q63i0oMSJqJQDvzrkS/mFsHu95aAbny6s4cG3gulz3prXnQ5WilPtXYpjVgS7j+7htIIvXXj2AW3oznAVt3J6KSY+Ft3bRWln3CbENboQFLFDcCKvaNq/MAuFmrDZq0wMzW6vjM+cX8cZ7p3G6VMNCXZeAE7HnMDZIWEgtb8INGbp9aqc3mKaw1ET0nJf0zBC3mSjBHJoDxw1Q8Dz0JVQsYU/CQT7hIZ/0cU02gcO5BA5k6V8Kw0kPeZKmiSU9LPczhaPXEjXcY6epHMkU7B7iDnLHU8Zt1PVwizFs2WLWqMTelc3Sqr7F3LDuaGxTZG8vscfSUw0mhfjjQ4F6CWEsQFFY0Qh46QkKgHPlBu5fqOJYqYqHlmo4Xqrj/FKVQeVcjeR5mhwHSXXBY4cItqX4h40Nnps2NmymgOR6EuspHVX/zSdc3NSXw0t3F/DskRwO5nw9N9JOdwAA8+6lNTBTb+B7c2X8/j3j+MFcledDz/Cq1lJbf4inlNYUVezRIRSxtH119+3NJnH7SB6/uL8Xj+zLQEsrhgcIdY8sfxa09dht57rGAhYods1Ut/dAo0ekZoBIZkPRUvzvO7Nl/P3pBfzxkWkltcFuY2EN9cbd1BqCodtY2KRLjV2zba6uB0ztsuf7Yhs7gUQHfsrBTfk0HtOTwcMLSdxQSONQLonhJMUgqYD1qBmCOiYH2MIzxcCd/BLpHZqu+FDkmmm3CCkuq84XgsrNzB/Q7jQJzJc+8CSruYpCDKJ+Sd9DDpDDEdQccPyqdhfzhtoie8MJAQyiFZwsB8B4pYE75yr4zmwJP5gv4bvTizi7VDNK9BEz2FR1oBm861Uo007MIV9ThyGEFVyEldbryiCCKdP8Mf0Z/MSuAn71cD9L50iUYufH5F3qPpK/hzR4yN6PVRp49/EZ/OO5Rdw5W1X3Lh/gxMarbbvdPkdjpXEQUNQr1/UU6yzKCUGDo1KchI/3PmInXrCrh+ON4wceHWpjs57bbYJtf5R3KHb8sUaxFtgCC8RhYijubBB5//3oFD54ag53T5PLOeSc4n1tFfENk0z0Zh2SWGYyRyuYNOi5cN9zWBdtKOVxfOE1ecUSjmZ9DCR9DCZ8DPiuYhUTlIHsIi0yjjp9xOTPJBlFw6ZwDBxep3GJITqncy6iP4ZKGi0uXDUSvf1wJQ191Ra8q+JBN5jdUihfJ9coMMBX1DqMqkpLJEJssp7haoiVAzSsxR/W/SfZHW04k3Ela1Hi02ytwRnUxGKdL9dwYqmKIws1Zh8fXKzg5FJFxamGbueWUoPR7ESIVhhIBWENl6P6nTLS6cDw/N29eM5IHtf2JFtWwRbcYlt1SW3XpWaA++YreMeDM/jb00WAxdm3yYsz6M3a4RTTrJcGv61XtAv8woF+vGR3AU+jOtD8ip4M6qCjzyzbxDR2GNvDAhYobo957PBRCDSIgI78tFBvsivx9++bwKfG5lGrEQsk2YZGHGPYhPGEjmVBm5u68XAOLScNKO3BjA/ONiah3B0JH7kUSdT4OJhN4OpcAvuyCexK+yxN468IuuJjisEyAwALyab2B2G0WpGdYlbVX3WWsPTbyLgWlk6nVRou7qgvfJVNAYohylYcX1gJJmIHzVoVyiQmE6XZ5HAzNcagWRe2BpG/ep5jrnmW44moPvo2Fe+ZqNRxdLGGo4tV3L9QwZH5MibLAU6XqzhTqaHZJCbbvJZs8gZtKLu5AMUYu6li8HqTPq4rZPBfDg/g9uEc+hIicd7ht+qVdF8T9JUmyeXM4F3HZ/FgscwJStvjZbLGMiI5KZpyTk08vDeNF+7uxX++apDlr5SmqYaLZhjx9jCMHcU2sYAFittkIjt+GCKnoik1jioMgAcXq3j/qVn8w5ki7imSHA6BDh0PJBnKIQ2n48/o99YEhbBSi8641C5QYgIo+URVMyFBaipx52I46+JxfWk8rj+Lx/RlsY/LtdEDval0zxiGrUP2sIEUpXyeans5WGQITMkyMRZCYjFXEP9WFJ5i9Zhh1GkvK+hCr/f6YeAnrtuVcO+yCy7P/pTeq400qmNtxnOF8jrhbqu+pZzbrZmo4kZWOzMdQs6Wavj3mRo+NbGAz03No1RtsoB7g6vECIlo1ChWk2DEE7Qqxcerufz2w4bwsr29uLmQXm8Tt297Bt4Pj2R8Vmjia9NL+NjZebzneBHz1ZoOKdgEuaYNs5a+76iiES89Whu0VmlMOtPeXP9BgGfv7MGbr9+Jq/MJFBJUTykAlT4MXxtM9m+YKWzD29YCFihu26ntrIExsJANxtj0vzG9hF/8wTmcWKhigSghMzOCXT6iZ2iKSRsPa26THuJRDWT1u3Zfui72pn08LJfAdYUUru9JsVu5R2clU4YyJalkPJfBpJKi0S9i+bSgtIpxi9vcIA5F9FC+2DI5qk2TFI0qLa+E6qKdWOklRgYL2TDJNI61LO7aLUzCNSda+h0aSjK0L7FTLmNkDbf8sq+atlVrhfkfR0nwkIB3sRZgkrQbKzU8OF/hxIs758r44VwJVYoB5U3cZK8lnjE2wyvecC/d14uX7unFc3fmt9DoW/Qs0IlLanWqiaFQgK9PL+G194zh2HwdS+Qh2NBa3xs59pXWKVPcapGxjJV+9hjBw4fySTxzJIdfvWoA1/WktANAJatJHK5+QG1k523b1gKrtoAFiqs2lf3gRlogdD3qByr9Z67WwGfHF/Fz3z3LFTuidF9T3sYUvjaC/PhUT5IV9FJithQX53oOdqeo8olyJe9KJxko7st42J9L4mA2qfQMXZO3U70LCTre+QTWiWjzammAlcCFgJkIyKmf9DWWubYjH1UseSUkwBQaWsZKygQawCyObk1f4GrHY6yKZUNraS92Xfne2q4TwkD+Iap2EfXqArYNl00Uy0m1ps+Wq+yWvm++ivvnK3hwqc6hDw8tVlFvEJtssEZRQKlmuiUeTYNLB3jeaB4v2dvLmdDLThIbeUO1Q9uS4W4cZOhHsuWfn5jEP50t4b5iVd+fZjhIjIIz7GZ+ph0GuFKf5XlgeC44Bla7px0Hed/l0JU3XLsDTx3KYjjt68QeWr9yKNHsdzsM0/ah6y1ggWLXL4F2MoAAC7WLH12q4o6xBbz+rnEW21Z0kHbnSLakbNw0DMpgNWk5KBYw6QVIOz5SCRe5lIvH9mbxyN4UbulN4pGFDLt/NrO03WosHgJnvcku04XmcZL+2spAq7VCoInhYhxb6PIymZ34JnVp3kw83Lo/uksq5lB/2xCKWyMcXY35rvgzlJVOALsROKAE6X+dWcBnJxfx2YkSiuUqlxFcEMDI2dDC+Ir9NKOk2aEX7e3BS/cW8OM7CSh21+tC62a+3sB9CyW87cgs/u+5BZQblIlOhzr6hj7g8RKU32U9SsKIuYI6xaZyL6jwj5Tj4mcP9uGFu3u4DrQ431WelBxeruAQ1SnmsP3sKAtYoNhR07V9O7t8UwlwslTDp8YW8Zs/OI8lzpI0Sq61sBTKMiJJQc9idYqnMnjX9iZxW38Wt/ZlcEOPijWkzOQs10h2WdhCga6IRdxIS0dYVlWjUVdviUu8GDoz8HSYdEuNNCOgttwDazRoeutZ+SVyqyrcucIGdaH+GO/zj617+Ere7vCD8c1zI22+6rZZJFvNB1WEoYovc3X171szi/jM+ALuGF9ErdZEUwhsGbNmNUP7BQH+4MYdePneXmaqu0Zzu/VUYqwBXqbNAKVmE+86PocPnZ7Dd6aXImcB3wyml8Ao9beqE8uqZ3prPsix00qvfTSfws/u68VvHernsp6iAa9KWlqQuDUTZK+6kgUsULTror0sEDJlYJHkz40v4ee/N4ZitaoC30MgIiyDgA01jKGkj9FMEnuyVBElwZVR9ucSuCqbxP5sEqMpYS5aEhI08NyMx7MaYqgwHdpfXMUR46d6s2IIV6t3TreyoitaY+jIld0KBpVd40Lg5rKQHboVoYobVn02qtVttL8SUNTQWH9LA9PNsPxqlrpaT2qk2v7652OLVdy9QPGLFTwwX8EPixXcs1BBvS5gW0pCuhhKenhMfxqvOTSApwxlkaW6jN2CFMNlotdN+DvVOY5A4NenS/jI2Xn82UPTaBLqlnuCp8C4v9tlaaxm+Vz0M0Zsa+DA81yuEf6rB/v5EFug+p1GPOeaL2cbsBZYJwtYoLhOhrTNrIMFNEiklppaTuXbs2X86j3juH+uhNky7cjmdZTbL+sBBd9Bb8LDw/JZ3NSbwc29CdzUm8L+rI+sS5Iw+iHs0M+qDY4a4rcFFmzOjqTEoxUwi4as5FwEJIbuJx3bFIs3NAkX3f0QyoVu3wiGRUSMwbhqBtP8W+TeNuvNChA3baPirSIGMfpdodrlWdtKkkdZPUYMtSFLZAgRxSGjXjfkKP3mdAmfnVzAZyYWMVWiii8NNBjskLSSj+sLafzMvgIeN5DBXtJaimVhr8O90s5NyKLWwuqsG8onEaFgVaYvxyBPLOHX757AVKmGclhtSd+dyzKBYzd/O1tghb5p4MvJLTqEBsANhRR+dFcPfvFAP/ZnE1zn/YKxxR02Ytvd7WMBCxS3z1x28EgMVlCYBI1Lpqp1rqzxR0dn8YWJRcDcTAh5eB5uKiTwtKEMnjGYx+F8CkNpHyknAJGHpFPmhvFPxkYTituqTYzhi1nlZEOtqZkV0UTUYFWVvRNApquB8P4SVRyhbcQ1XcwG0FISOOr7RkhgGCYoQ2LVGoPfosxpis1jmQ6R/QkrRJiMrRGTp8EA1aBWfdZsSZiMZLJxDP315dufWWOgqBlWOUiwPI+2GlmZSgEuNpqYrNbxlclFnFpqYL4WoOEEuD6fYr286wsppZXXbW5EfZuZMkatBwT6SDNo4J75Ct57sog7ziyo+u1cXpNihvV9wP79bUTGhmEeKi466Tm4KpvCnzx8Jx7bn0GfT+oMG/rwsY1bC1y2BSxQvGyT2S9sjAXi7j4q70V7BWWiFmtNfGm6jO/MlHFyoYL5epPjeQpJDwezKRzOJ1S1lEySq6OkuGyaptpCSCS7l1nCVzMdoXu3hY7bmIHyZqhwls5ypGolRk4Eb6rcNS19o4Wjo6or0cYpDGTreFuTWYSJDb2AQtoYFK2wmAKdo/3KsJ3uG1dWZDRFEkFxDoQSbJZ9N8Yj6r/GOrNhxr6ChqOOSRnJOA8aja7WbOJUqcaVX1i9icMfPK7iQ9JKUbnBTRCvvIKRbtRXQlIxJnqvqfDwP6pyDlXJ+b37JvFFiv3kWtxGNEJY4Se6VzeqzxvebvhY0iE0ujwkxVH/xwN9+KnRAp7QnzGYV4sYN3xO7AVWZQELFFdlJvuhjbeAquAcOmQZJEkdWBelZoCxch33FcuYrTXhug4Gkz6uzyd5Y6aTuVQQNikIcY8yENM+5yiOT32Hr7mJoEVdU7NW4m5m16yub63oLEMdx9wwTPdb5KqO5kczea3jCcM7NesohE2YYRnnfEyPcGhDDb4ZCEqIpekGN5RBIpwedxcanKdRr3njV9flXaHFxob2omKfNcoOG10+RvWJaJ6VPNPl9aJTPy3WoNuNROzlFWmOasY7XKMBXnffBD5yuogHi1RSUf+ByWdaVBRXLDdE3NYdZSOef4MpdZR8Fx1sry4k8YsH+vCKvb3Ie2Q3owZoRw3SdnY7WsACxe04qx03psi9KcHurCdmgB12jgZUMSNiZuiRyyLYsik74tLV2cvmjhUiG3lYq1J2rdmFm72XixyLTrVFk93A5AJuwOF8bLPkXmSnEAybPmYpEsJEnx6bsDdGeTAT5kSAkD6g3X5GwoFgohhwbKkjbez3Mbwag1uxXzSjqmdus21+sdvDgDWqGgzbgjLoVVUcAi7CuLId2f46MzdwuJygEygHvmnGdhrjxj8elBVjVXM47lhJD0lsbiiw7wBfnVriDOh3PjStbS4zwTWadJUTLaQfD1Te+OGs5xXCU6pRH5orQjXxygP9eM2hQQ5dSEmZ0vW8tm3LWuAKLWCB4hUazn5tnS3AwMasZ2y4j0M5F+3SXIlg48/o6gYmdaP3GymPZ3p/1IYliSVmKN/mbOuKqYs21aiPFKsoEhlq8EoxRH2WCj7M1BuYIXdnw8VktYrZWh21Om3GHuYbDUxUKyg3WTGHgQtDMwLV7CpW7fD4pV3N4Docz6mul3OB/oSn6xQ3kXA85D0PwymfNzYSDt6TTUpUZMTOCkKKsUmGO9qkF7M0ywAAIABJREFUb00Eus5L6kqaU7y2HD00sImlkst8Sesx2KhsEFbr0XOmmaTNWVVXMur1/o55/IhKL6pFrf4FDKYjGZipagOfODePt9w/ibFSHSWWwzI0FTX0XO+ebmp7sbVOozfjLx1cU0jhWTtz+N2rd3CNefuyFmgXC1ig2C4z0e39UKgpIhFjQtAEc5Quoum9UXuHfvqGQrUKAsVeQRBmUfO2rr+jtngNmqLwqU2JnA/hIf+gACuxicSdVBtUlSbAYqPBLvdyI8B8o8mxmSQ8TkBxulZnoFipO5jQQLFCSeGOh2KjgXECilSzOHC4jixvSQr/sG5iBNskUUYxZS7cEDzmPAeDXMrQ4x4mHBc9vs+VazwE6Em42EtA0XE4cajHA5Kuh7TnIOu6LGSe9x1kqfyhmQndzkBR24asIfMRrablJ5QIcqsVZ4J/mVeFyrszlzXS6HSZvFdAXKjvqGQdWefbsyW898Qs7ji7gNNLFe12pgLrZFWlb6lu1w6F3Mw+S1IXHcgkA1rdeZ7r4IbeJP70xp2cDEX3nX1ZC7SDBSxQbIdZsH2INlltC9MFCNR15QbFQhhwMr5lGO5NFZOot24t09EqPLHMNboJ+4/GwyrHmNyYAUmFyAba4HisiUoTdxUreGipgtOVOs5Xmji6UMMDixWcLlUVTSgvpgxX6LjpVm91sZvMBoNmqQtBm7GRdCHX4faNqhhcHlG7A6kfnoMdKR/XZhMYTDsYSfnYnUmwC+2afJLLlWVcFXclXF0k7N1mAIr3cQ3jXXGSir010g6NLwyZ2C9Eiho16qQkSZbahPXVdo8SnWIvca3LMZ62YeBwxZtjpSpedecYvjG1qIXgdRZwuObaboSr7JCsHV1nfiUlBhLhziTwH/f34YWjBTyyL73Ktu3HrAU21gIWKG6sfW3r62IBc6O+kgZNV1j0fS35Z4ZChoBVvqH29qgiTKwn8VTlMM2BOQ+D6Yz1WCPFhTpJqzRwYrGGM5U6TpfrOLZUxWSpjtlqE/ONgKvRkAxLpQmWYqF/9PvWh2jFrUObf9J1kPdcJF0g5TpIe8QmuvxexneRTHrYk07gYNrHgayPgxkliD6STkQEU9yCMVkfdcWQh+X4QQUxBHwaJwwjLlOylKIkmmVqQRrUCUDUaC4G6i62/kzUfSVrs9u/I2DbQT0gkf063nZkGneMFXHXXNk4xIjmk3m86zTbhZSoPmiZZTPVWNKehz09Sbzu8ABetruAlCeHY/V3M64zfDapv3SaMWx/O8gCFih20GTZrq7BAnp/iWn4XmCPj7YuefzKB1WiibwbxRFGAEbhyijGsIEA1SDATLWB6WoDpAt5ptLAlP53plTF+UoDY5UGg8WZSo1dxrG05zUMux2+Sq5p1/ewM+VhD7GNaRd70j52phMYon9JFwNJn93cA0mXZWWotKLSDDLBof6ZQxCa2kVOOpnRRhkH8tHOqoCitNXKLQuJeAF2th2MuK37EN1TJDf0xckl/M2pWXzg1JwOzjVuXsZDnQwW5UBjgMYYxiNtWBe/dKAP/2lfL27tS8d1OHUiWZTDttZD9LZeWHZw62QBCxTXyZC2mTa3QCi5IXBBAzrTbWsAxxUSosNAfHHDKjkew+2o4x8bQYB6MwBV8FhsBJiuk6xPhaV9fjhfwVdmKxhfaqBWJ1evMIRazJoCEGkj5JyK7cgS6PFxBrELx/NxcyGBG3vSuCGfwbU9CRzK+RhN+0i6LnyHYiNJOF1FOYrijCJQqC3tLmcYGKkdtlpOGEkF9ZXLv7VkoeUGt+YeNu1O9x3F4b775CzecN8kSrUmGk2p8y732jYAivpAqc44xmrlB4+LR/Rn8bxdPfj/DvehR8f4qsQ7Za3wXrBk4tYs2i67qgWKXTbh3TjcVgCwnHWSU77hwRE5FEl20TF6KhHE0DgzAvSdwEM5CDBWqbPb7O75Csca3lesYkknohBwLNYaLCQu2cdqo5DUbgI+2wCyXCxGkrMa9BgdYg8d9c91kUm4nCQzkvFwa28KD8slcU0uyeUYEyQZIhVjTE1MDapVskQ0u+GRgGVrVLJOZFpzczZ8etaFtzWPCL0eiClrBk18Y6aEvzs9h4+eWsD5Ch25uutFYRu3DWTw+9eN4LqeJAaTWo3AXN+WTOyuRbGFo7VAcQuNby+9ORZofZ6GMMwkJlagoESuRh3atZSOIX1C+KQWNDFeqeNsuY4zpTpO8b8aTixVcXKphtOlGs6WJIDdGG/s2jFORTIiNsc4m3EVHp5hYPa6rbTLqfc810Uu4eJQltzUxC4msD+XxB6Oa6T3khhN+ejxFYuoU41Z+ieSDRfXnkRyqbZX5mhjQY2bYRF7jVYLGMCf5uh8pY7vzJTw3++fxg/mypjn0p3d9ApwMJfES/YN4MW7e/DwQooHv+yQe+FF3U3GsmPdYAtYoLjBBrbNb70FWh1VIVhgL6gUPjZc0vxEjuLVjGgiHkytSYkmTczVm5iq1HHvfA3fmyvju8US7p6tYKxc09IeF3Adc4PyN+2KZbeSZwCorbfbuvbADA4l9zpPSuRKC2My+X0tm0J1fslMxCQ6VNPbxyP7Uri1kMXNfWnszSSQdxxkfSrbGMDndlUVjxUTwUO/dRwwKlGi7UHkruucbWJjUq1I3RUqw54OYG85Mo1Pjy3gyHw5dk9uYte27FL5hIcD+TTecM0gnjOSU3G75iPlYgfdLeu1vfB2tIAFittxVu2Y4hZgXKIZpRUqvqgPR+5QfhbH0STXM6YX5ZmcLlfxzZkyvjRVwrdmy5gs1VCuNbEUBCjXGxyfqGRmdJtc8UQabXF5UtFqAqVhDKV2azM5JiCy0ybUZOiMvofC1QK9ZacTRtVgAelHAooCGh0XaZf0GYGM10Q2k8Q1PSk8qZDB4wYyuKYnwULgKnZL2Y1DBHQsI7n5udpP6OLX/Wr1QHeaqbdBf1cm19Vh7GvTJbz7oVku7xfFo26DQV9oCCJX5ZCclIOk4+LVVw3gRXt68Nh+pVmqjlimFqXNed7GK6IthmaBYltMg+3Eplkg3JVIx1A9ckMh70jRV2NHB5SYUg2aOLlYx/0LNY47PLVUwUOLNTy4VMepcg0VcouFyScC7lrYxNBnpMGQkVwTy+JkfULCM1IhZNMss84XauVhpfkVmFQz5jPmXAsLVGuSSb7bhONRhrSPq8gtnU1gT87H/mySXXTksiZRcBL/jphFiglVYD2cmRCIy+bbZpqO6zwj7dqcKryp6oerbF51rCO5nMlKA399cg7vOzGLYwsVVhDYFq/Y/W8epvSBkhcujbWJm/uzeOHuAn7rqn4kPBd0tpRnhhQw3RY2sYNoWwtYoNi2U2M7tiEWEJcne381y6jq2IFFgbl2RIBakzTdmpiokmxNDXfPVfBvM2V8dbqEyXKFq6cotkuDmTAOz9jIQvc1uUMN/cMYU2gCKs148QZBFzCSZjbEGO3QKAFiqUBxARBAdmS3stiH+q0BtSYjswkXo1kfzxzM4dY+JfS9K5NgyZ0e34Wvdlfl7RZJPp50lTWtU11sKssWLAkGijr21wSKon35xYlFrgP9kTNFzKkbr/NfFwKKvEb1OufnRIPlcm4fyeNPb9iJ3Rmf9UkVY66fQXbVdv56aPMRWKDY5hNku7d2C4hjs7Ul5d1V4ISlVTTuqzSbmKg38PWpJXx2fBGfPL+Iei0AvU/Zys0m11WJ3MkmvgmZQ3qYR3WD4VDVFd2D0NMqmc5aGof3B/0hA9Cu3QJb0MLK+kIarMUlhZg9ZaRAKa8aONPvTYNdJaDIf9M24lhEzbzqusGe20Ta9ZDwPYxkEnjGUBbPHs7i0X1pDCYTcJepFSv2V7QxVestfdsC03XXJVXYRUS4q0pF4TQ7dGBr4BszS/j5753HmcWWykTb1VixMI0GbuxN4eX7+vDCXb04nEtqA+lYajKYHIS2qz3suLbUAhYobqn57cU31QLhDiS5FJEMcx0B5us1fH+ugn+fqeD7c2WcXqrjZKnGZcW0urOB9KQxo7SdebIP0al2RTMKNRlDGTk/5aOdUWKPyAXdsTGKl5pV0y1vTApjRG0vlcUSaVeKX1LD+vBvsdJuui2KZ/Q87M26OJBJ4OpcCjf1Z3BD3sehbBKjGdpo5YAQ7bmtP11qFPbv62MBpUdqvuJhC/UgwNHFGt56dBpfGl/AsYXq+ly4rVuROF912OxLeDiUT+BN143gyUM5rqEe2uxCJ+G2Hp/tXCdZwALFTpot29crtIC4LdXX5bBOCQ7VJjBeVZI2x5bK+NpUCf82XcYPZytohLWOQwrQAIqCNQjQaUbMzOwNGTX6LrmdVTZuJBQtTUniC/cs6qBRleQKB90ZX2MAaLJ4XGxZZxOZ8YzynmEnfis+t1G2Otlaufv7kj5u7E3j1kISN/emcX0hg9G0x9p0Od+FE7I3rSa73B3YAL2dYf226GVkZdN+Jk0PTFeb+PLUEv7y+Aw+e34BgVnvfBnIlDVyufPXFuYw1j/9GHklPCfAbz9sGC/YXcAtvUkz2vYiHY9btyVyup0GbPvSxhawQLGNJ8d2bWULxLbjZXuzMHhRFQeKRVRgQLmX5UUZzBPlBj4zMY+PnSviX8dLWKg3WAg7vk3Zmeh0C3AUouNgKOXj2t4M19F9ymAGD+uhWtMGUGVwKWuFxNX1z7p0WohhQ0ZSIsWECZXosSiCrNNt1y79J2z4G/eN438dm0a9XI+rYhoC7qq/NI90gOvUUAIjHjdQcZm0fh/Wm8Er9vXid67uXxYmYbrsw2x/1EGFAEgCiiGjFp63edLtsqo7ox8WKHbGPNletlggDOEzH3xCyGlQoLipUCVPJawEAeYaDdxdrLD0xp0zFTy4WMHpUhWTlRrqsYQJa/bOt4DBSpLciOugx3OwL5vE4Z4kbuhN48mDOVyXT3KmdFQEUK2dMGXAODksqxfOu7j6vHwrlOcxSGKbU7321fTpiQV8+HQRHzpR5JhhfVPHAWGYKNLJjKLo7sdDM3p8H8/dmcdvHB7ANT1JldgSFX5W5jDKWsbipK1W6NoXYJe2YIFil058Rw/bUE2R5I9IP0/cu+oRSS/iFCjOaaba4GopP1yo4NszJXxrqoR7i1UsUs1lTk4xkk862kC283ELtDrc1OZbSLrYk03hCQMZPKI3zaXSrsomMJT0kfMjRkfVho7aCGWVtKSLonvMlBi9nmjlWaC4rotxrFzHFyYW8cZ7J3GmVGWtRRVuIFnwUvt7XS+7RY2Z8bqyHh0uZ/mTu3vwyn29HIMbqi/os4pKtDMVAkxZWInjtU7oLZrUjrysBYodOW1d3mkWqNZl4TSTo0ICW2MJ1ccIJM5WG/hBsYxPnV/EP5yfx4nFGkDeK3FZSUzgtk0g6dY1I0iNQJveQLlmNLnzIrZmV8bHLf0ZvHi0B4/pz+BANoGEozTrlEY76fxpxjDUuCN8qA4mKnea2OsIHJra3tuhfHc7rCCagbuKZfzRA5P4ysQiTtJ9HAqpa7kjqmBCxudzX4cGkUg+j1nqkhPcgEQC2J3z8Ne37MFtfRkkTLUEORpfID6HatXzuaZjXfLtsAq7rw8WKHbfnG+rEbObJXSp6FM05zcopyGxiPfM1/DBsTl8c6aEyYUGzldrKDMTIaZoTZrYVibq7sFIjIKrE4p4s6X5Nlm/JlKeg56Ej50pH4d6EnjMQAY/NVrgpJecZ7Iz2jkdyirpA4sSWFLxjqJ6FKMTRRWwu6djPUY/VW3gzrkS/vD+SXxhfNGQlJJ5MhOi1uOKW9gGr1+t28Xaqj7HKvYlgF8+NIjn78rjUX0pVYWIX/QFk8mO9BYlMCImOr+FQ7OX7hwLWKDYOXNlexo+CtUjj9gcJZqtGEY6JdP+zYLZQZOrqNw5U8a3p6v4l5kFHCMNtjptJiLaa7pfLFjclgssZIoJKNIGqtkm0rVUq2jZsPtSHmvVPXVHDg/vTeLGnhSu7Ukxc8MVFw2Xs+zjoQCyToyJ1qVunw8unZpY0V4rg+7tYj3A245M4GNniiydE3oGSLw9qKtpZVauk12suhxlGP8q4vQOkp6DWwbSnNjyM7sLyHge+DwjazoMeYgOKOI8WXnVt9cc2960lwUsUGyv+bC9WYUFCAjS/7u0CfDhWbv9AodLfM03mjhXqeODp+Zwx7kF3DVbVQHe4Svml1lBiqVD3VWrsF33fSQCaorgEwShXc/sVybpIn3gEJef3nBvG8jgWTvzLEmyI+mg13eQdl0N+rTbWbvziKmMYhnp5KKke5SYuy5T130TsM4jju7dT52fw4fPFPGBE4sIKJSA/6TlqkQQv1OBYijZJHGKeu1KPCaFT7gBxym+9tAQh0qkvShdalnhF24mQKCFuTsZPq/zgrLNrcICFiiuwkj2I+1lAXGhqIedcgUyoxMAp0s1fG22hHeenMeDxTKmy3UsNSQejb5hxJDxZmI8iDt1U2mv6WnD3oT0Usg+h51koCgB/jpmVQpEB03kEwnWYRzI+HjuSA7/YTiHJ/ZnIonoVmlMvQOrfGnjQGJmprahhTqnS6pmN7lfz1Vq+NjYAn7jninUKxU0WVtR5lPPeafGKIZLR0Tn1TNOvaL1TCESL9xTwCv2Flj6iT7htT7HDGfJBSVDO2cB2J5ugQUsUNwCo9tLrtUCkmGq43EALNSb+M5cCd+YWsJXp0r40nQZS1XSRKQsSCNpRWUmGC/zxC4P4bX2z36/fSwQIrdIwib0wRk7aOjeM9eAzoKnwH/Hxc2FJB7Zl8aj+jN4dF+GM6QHU8JGRt+LH2QkRV/FLtrX2iwgIadkSvITfGOmjD89NoNvjM9jrFRbMZRgbVfc6m8bbLc+EJv/2ZH28aj+LP7rNYO4sTeJQsJTnhYDVMZxow7bsYtxqye2o65vgWJHTZftrLKAAnf0v/Wmg+laA/ctVPH3Z4osnXFfsay1cXQ95jBWSdM/7CqUdFZVa1a9Imkda+ntYgGNznjKzaQAHauoSaiIWdZ1t3n4UnGHlpvHy4Nkc3ZmfLx4tBdPHMzi+kKSwWLGdeFpJpK0OtVyorZ0shW7RLeLTbd2HDxluiDP2XKdk9TecWSKJa+qZO/wdm6p2rO13b78q/P60a50fuTpakMyQP1c25VO4tcODeA5u3K4sZDSn4sfV6KLR8ktl98h+41utYAFit0689tg3I0gwFSliY+OFfG+UzM4XqyhWGuiSkK8Zgk93lUoyN3Y/MV9EwvmsQkt22BZtAxBowYN9FTWkz4ciDtY/ttaDjBkouU7HiezeE4TPX4Ch/NJPH4wjZfs7cO1+SR6fRfNwNEyTQQzVfoKuaCVK1pchtvPyps3ItP9qqSvFusBXnfvedxxbh6nKLHFvLc71fUspwqjUpBKzJFsfdGOdJDxXFxTSOHXDw/gp/f0qqR+SfAL17aeobj5Nm/a7JU62gIWKHb09G23zhs+4WUxXbLhK9Zvrt7EQ0s1fOzMPL44sYAfFEtYqgVoMvATmRJpT2gjsVfr7/J+LJNhuxm3y8dj0nmx2ANJj9X2ibvtInrKXDPqZ3Lz7cp4zOLc1JvGLb1pPL4/h76EC5byi1XjNb6vf1xpFar3Lr6bL/vrhZbztpzx5bah0MRPjBXxoVNFfORUcXk99Y62gzm5sjZNGzh8eMklPLxyXx9esbcPNxWSSJLHmiNu1PMyjKywrHZHr4at6rwFiltleXvdZRZQzmTtGtF6dNGHdP3lwMH5Sh33zFfxleklvO/EHE4sVoyEBP1gbUr2ozW0tcBGWyDAwXwSjx3I4rkjBVydT2B3xsOOZAI+ZUIrzKg04oXsMTZsMzxS7esXBoomxA2b6DKgGA1XGZUyys+V6/i700X80f2TmKk1UCP02MoQb/Qy2Mr2HQe3DeTwE6MF/ML+HvRSrGKY16NWipjDYsWtnKjOvLYFip05b9ur15oEbLoqU1Q9yFo05/QOSY6XD5+Zw0fPFPHP5xZQCYhFlGzVBuDQUdoFv0lumzA+cXuZzI6mHSyg4xmDJlzXge+5SHgOnjmcwY/vyuM5Iz3o9X0kXAX9BOS5jHTUbyqvhmR19Hh4c1e/MMQ0dnV9VIrxlBp3dln4o+nKV9HKdLt/cXIRf/HQDL4yWcJkhZQOxFXbDmtl4/vgez4eO5jF+2/dgb3pBNc1l6M3Bz3YzPuNn4RtegULFLfpxHbWsJTkhSZe9A9xF2C1GeDBxSo+P7WET5+bx/dmyzhTohp8Wh8xDPQm+RtJWujObbSz5r7Te6sTJqSMnBNgNO1iXy6Bvbk0butL4zF9Gdzal+aNm0SRVV1yoxK5LgGoWJ8oTjbKVlVAMlrWUstX2a6rCMVwucioBYI7OF2u4+vTS3jjfVO4d44S2nQyW6cvsVX1X62bq/JJ/OfD/Xj2cJ7jZhWMVrGxtozkqgxpP7SCBSxQtMuiDSyg5W5MHQftj6PttBE4+O5smRmDT47N8yYwU9WZy1ywmV5ab4wBp85ojuvgtME4bRe2lwVWchFrFov+43l4dG8at/VnWMLkUM7H/kwCI+kEfE510cktjnCFkqWr/sIi8RqAhpt87ESlwEE3AsXYmHXiWi0IMFap4zfvmsCXxhcwXq5uQ7mcC91BasX0JTzc2p/Fa67qx7OGc8j6cvy2QHF7PXs2dzQWKG6uve3VLmSBluAr2Q/pUT/fCPCmeyfx0dNzGCtVdAva7ReWYpNyXZqpcegJaTr8rOmtBTbSAgTqaO0ltI9ZZJeogoYL1/PwwtEsfnJXD24f7uH60b4+zzjMiis3YQNNuHCZWXQkc1+T6+ocZQh58xuageyWwDMtSymVbsIkduVbxVK9iQ+dXsCHT8/hXybnQ4fDRs58W7RNDLUbhd387rU78Mr9fTiY82g1qQPFJeJf22IcthNtaQELFNtyWrqtU1GiCv+kQ7Omqk18a6aC/31iFj+cXcS5Ug0VIhBjUfwS/EVfkvq9omHXLbtnt62XdhmvkU4anklaS7WovlId8l1pDzvTHkbTPh7Rm8HjB7PMNPb7BBqViI74B5V7Ok6IRfxlCwNvBji2i2k2rB86ttNI+XFDKSyg0mzia5NLeO+JOfztqTkjMnTDOtQmDUuojlo0TxrK46f2FPCqg71RQlXYU/tcbJNJ65huWKDYMVO1nTsqrjcV3N9AgIV6A1+YLOMfzy7g70/PodrUtVzDgGzJauRtWBvHpCVNe9kH43ZePVs3NiPEgYGiJE8IyxfFz+msKu5qwgWuyafxiL40bulLY28mgf3ZBCcgjKQj4e74uC62hldygW+dVTb2yiZc1iDcyBKnbOcHFit450Mz+F9HZ8KkoY3tUzu0bgJFYEc6gWcM5/Gma4cwmk4wgx2m37dDd20fOsoCFih21HRt386qc3AT9SYwV2vi/oUK3v7gDP7h7DxAtZpdnQVNYtoct0XfMCqsMANjAMamrmLAbEtLBvX2NaMd2aZawHD98nXp8NIAmiTurhnusG40rUEJi9D1xp0m0h5wVSGNpw3m8PShHB45kEHBd5B2gSRlQ/OSbr3Opg6ybS8WQkbJIqdDZhM4U63hz45O44/vnwY4xbxbXvo5R2swAG7uzeBXDw3i6TuyOJBNIJC12EWRm90y8xs9TgsUN9rCtv1VWUCA4pH5Gr48uYQPnCrinvkyJqv00BNQSE84vcnK/hkrZCrCYYZoGH+umzaLVZnbfmg9LSBARccQMkikf6GQnc6+lRrTRlY+xY+lEx76fA8DSQ+9OQ9P7c/iKQM5PLYvhbSnxbsDo/SalArU4FQrNa7niNq/LbE54/PI3V9pBPjeXAXvPj6D9xyfaf9xrFcPmcyWdacOJPmkh72FBP7kuhHcPpRXV+qqMIX1Mq5txwJFuwbawgIkf3NiqYrPnF/EJ84tsMzFUl1iDk23isEO0kOPHo7hA9B0QUuAl3y3LYZpO7HtLCCMdWvilLCA+n1hBk1vdGgLtW4J/7kJ4IZcGjfmU7gmn8CebBL7sz4OZHzsSieQ9dyQZVRNBZov77LwCo5L1Pd44ITOhMV6E399qsjhKl+emO8+7ozPxEoejM7UjufgT27YhRfuKnCMrAWK2+4BtCkDskBxU8xsL3IxC1SaASYqdfzz2Dw+fHoen59Y0hmk+qEXupUlk1TrJIZ1UDVjGKtrSvWercvOrryNtIAw1ZRtqhGgkVjBhxgCMyGG0+sx5jM12W6zmohiya4rpPDIvjQeP5BhV+KutI8ez0HO81jI23OpnnQ3xSgyhWgkqSibEmCm58jZUgOvv3cSX5pYwFiZKjZ1E4CW5yABQqkJ7eDVh4bw4t0F/MhgJjRHN1llI58A3dK2BYrdMtNbNE7h9aLLxwFc0wnw4EIVX55YwruOz+DeYhULDR3rRVwJP/so1ZnkbnTcV1s9/C+SSBP2U8dLcr2xQMVbCogN3ZW6kgy/T6ypkRhBVBPbQdgprRESq8dhggz5fuumKrPQ0mdxiTIFoV15IWNjAhkjDpTZHC38LFpGihfTF7Hu/jXfckGAtOcg47nI+R7SSRfXF1J48kAGT+jP4FA+hcGkr8LwxOwctqvWgnrbjM+9AOvJy0nNlxNqOpJDOw4nRCKcoZlxzeX3uDFyLQ3JvKtew0raRpJ/5N4QwGfUJTblgUxj6rXJdYyFigVwZEF5JP7y2DQeWKioMn7d8mJbyKFEvCjqfn3CcAYv21vAqw8MhAC7K8MVumUtbMA4LVDcAKPaJpUFQvwh4sGqPkB4yic8SBmKnxtfwMfPzOM7cyUUa/JwF7eSbG4SqC1C2+1i5ZazeWxv0r+EH2lhfvh5roXCQ5bEZEFlC9YPfgFvYYJECygLXXGrAWz6u3wJs1+tPxubD/9JvrdC1YvY9dtlfjq5H7Lh6zG4wI6Uj6uySRzM+BjJJDCc8bEvlcC+TIKzp+m/rk7gWM4atc5tVDBTfVYfQMKloa6vfo1XoL7vXLLbAAAgAElEQVQgODRueqkJoiGoIrk0wxr1RMcVszzQcuWr2NkjhLPR50qNAFO1Oldq+sZUCV+eLOGHcxUU63S4vCiE7eSFsbzvsftYDgfqIDeS8vHyvb14+40jLWBye5nAjmbjLGCB4sbZtrtbFvZAJA11xqcDjx/fFHQ+VW3gk+fm8fGz8wwWVZ0yMZuAI/rdfPC1I0sgW7KRTMN7awvolaEx4NO/EFAU92SIgU2AIHp6GjDzhiDMX9ig+qGVzAureJiQwQQLxGxKrJe0JZm5wmJKu8bvsXEYbct4TUDZ3XfBGkdvrPtl7uUASd9Ff9rD9dkkbuhJ4YaeNG7oTaHgEwNJ7mmXYxrTrsPlA8OkV51MIwDOXDomtlJ/D2FeDHe1HHnUOGktyflOyL5wrRgsl9Sz5s/o8oT6ORFecjnK5b4sNppYqAdYajRRrKuQldNLVXx2vIhvz5RxdF7HNWtWtStdz6BQCO165mR7Fy/e3Yt33TqKLAm9WxGINd6X3fd1CxS7b843Z8QaKLILjDM2tTtU17U9vlTDv04s4c8fnMEPi1WU2d0s7KH8V1AmARr94DMkHjZnIJe4CruFtUvZ7JvsizwUKcFBv2jXewjqNGjkz0usm7jl9EYdbnqyb2sWkslH4/pmV+V93ovNTVo+Lx2gig76Z54DY4fnr7WgT3adrwAaTXmicB7bYoa2QScMltko4UfnBdcJ4CNAwnGQcF34josbe1O4qTeF6/JJXJ8nF3USuzMSjhBnBpVx9AmFs7WNqAiDkGvl5tTtrUHkMlUB+bRGJHLG0eebCAwa93mLG1nCLCIwqwDlPfNVfK9Yxl0Li/j6TA1H5+soVeooNxqoBgHqvA6NdrfB7F/2EPjwSYCZ7EA/O3jWcAFvvG4Y1/X46CUhT/uyFrgMC1igeBnGsh+9EgvEGUCKKyKNxM9PqDJbPyxWMMt1m+klWnOy0Rhghv8uG2Y7sYoCwrS+YwxYhT68CIBJnGII4DQY5LHp8fPwl9GD2kbLK3aEsyJxSsI+LXNRSxOG/cLkCwF/ejwxdtf0CRpjCmOipAfm/LTTHF3Jum2D7/AcmGtI+qQBgCAuk6GGg8GUj8GUh4GEi0HfR2/SQyHtYTjlYU/Kx95Ugv9OnxtIeKzbKGcFMxdHZGdaQWLE+qu12xoyzD1mclEl5DA0ja1p8QorQEefU1hTZS9TUspcvc5s4ZmlOk6W6zhTbmC8VMV4pYGJagNTtSrOlRuYqwUssxq5IswTmjwz2mAuN7MLDBT1wVpP3uMHc3jNwUE8dTjLCVH2ZS1wORawQPFyrGU/e4UWUKCB4okmqk3ccW4enzxXxGfGSb7CABkxoEOixZoZUMFNRpJHGzEGookXul0vtLEb4I+D7FsrJVwCWIWB/S3u7Zj9tLu71eWsN2H1UWIETaAo4I7aFTFz3aiijVrimkw20XChh6Sl/sHixCu8V0wwaABCAYPh+UESvQxDh+5agxXW68bzXYymPRzMJHAVV4DxMZxOcMxjX9JF3gPynouC78NzA6RcBznX47yrFCXUCJKU0oLG6JYBRanHTBDQ6AqteUowISBIclhUbo/+W27Ss6GJhUYTc40ApXoD05U6xsp1HF+s4aFSDceW6ji7VEFd7p1Y5rMpmWVgxm6KUTRXm4SzhM+BgCsA/fS+PrxgtJerANmXtcDlWMACxcuxlv3sqi3AUCgEGgT0XJwuN/D5yUX8xYMz+PfpEpqtCRwMVCThV7NrjA8dgNyiDK5aGYNVd2ljPijCytQv2sRk3xZahV3NBgDjz0liDn1eNjn6TI0KvBnMouyyJhhojYNscT0vc83TNfT16W/UZFjdRoNvdjnS52oAlfribHMtsRFemmgbM5t6BXOayTZtlZm+MVO/4a22Hg5WPADoNST3hclCmklKVOVF32+RI5s0GR3g/7H3HmCSHdXZ8Ok0eXOUtEq7ykIYBLJJBmTACDAZTDJRYCQbcACb8Hw8//P78W8b7A8TbBDYJMnGIFsgQIBQwIiggAIooJzTil1tmJ2d2NPd//OeqnO7bk3dvqFv93T31IXRznTfe6vqVHrrPalcoKNHS3TSxDA9adUYjQzV2QHimJFhGqkQM1DbAhZKPb2EZTTxrT6QwLtZfK9heoLq7KvWaNdCTTGDc1X+9zcLdbp3Zo5unVmgm2eqVJ+rUR3zHfER9f+4TB5TDu1DgEa1+YpkxkE9+JC5Qq7gsCqHbBYAL8SnrB2mPzx8Nb3xsDXsDOUvL4E0EvBAMY20/L3JJRDyS2nQHVNQN0/TuQ/up7umqrxhBKFYeNsBoFL2NOqS9Hz6zwCwCFBMXpWO3hmo1CynE3PDDnmZuLZYQ30dCmci7Bw2QNOxwWyRdkgRNXDAKhlu53y7MJi2PE1wi4clyLl4Y9shcQwnnYCpNML3mNrnjgp+pbw81KGq0fYUEAaJ5xBu0IC+iL9lvBkpBPklYRZuvES0ulKktZUylQqKUZwolZhdHCkWaQzUIsLalIs0XC7T1kqZKgxM6nw+KjIQbcI4qeL0YoMOVBfpYLVGhUaBFhpKtTxXqzOjOF8nZhSnF2t0YLFGk7U6NfjApcdrKPSSXgTs+Kim0xgXbMpspYwTaafITjQbqieOmijT6VvH6f3bN7Ljk7+8BNJIwAPFNNLy9yaXQEPZHlUbDQaFFz56gL756AG6bPdBqtf0NsJYRAAJNjU4cwgQUSykDrjWtE8MbRzJq9OxO7k+4qgjKnGJadh0IGgGZG6GCOE6BenH1O+jJaIheCYiA0eDaLRYpDXlorYhg2OQagnuQXy9UQGQmmxVDE6DN2Xk7Jit19lDFDm0ja1Ebdb1Bqv8JFjxFEITNcRrVJhLjfyCtHO22l82ZfnX65xzG2sBIIwCPiJrwyaNg3ybhy2NLENx9gRt6po26f+IquvDQqFOhXKBhssl2lxWQBGjDCMIQBGTVYxEuOqNAs3UGjTFQBHhakwm3dAQBJoH43Aj7PcSoCjjUZ6XNhje+gGSjuQ9c+uinnlRqKnyh4DFBm0dK9OpG0fpb4/bTE9eM9Iz1fYV6Q8JeKDYH/3Ud7VU20eB9i3U6Yb9s/R/79rLwXDZPo4d8jSY0htMABhZVaRBorEPBjme2fu5xy5hMNj2T//wPwC+arcvFmtQvlERwLiIvxULg+wd8FxVmsMSbR5ByJMijQ6XqVRr0KHDQ3TcxAhVCGpptfniWjOsnBO2lsusmsfH5UaRaizcOv9eLVZo9wLCh8zyhg3RsfiLiD3XYBXg7vkahzPfu7BI9x6YC0LpIRA6NNTSolpdB9wQNXWg5rL6MWR/2WP91FfVEck3FcXNTEMaQWKu8HwRdhCATnu8orPxVUmPQfxtqq4DlayAQMOEQQ4vPNTM8uUQJ7mrHQINTENkKhjgkN+n569EAuBXIJ+7MPK6PsLUSz3Z214C1eNL0xQCz5gHnGbu577q8nYqa2YBCpkfqCgLG0eH6JT1Y/Tx4zfSUwEUVzLp2o6cV+izHiiu0I7vRrMfX6jRL/bN0cfv3kO37J+nPfMAO8bRN+StaZ3+g3AZDI90dXuVtdL14gVaVLmi/iMqlokOh53XcJm2DJWYkTlsBLl7y8zIHDZSoY1DZV68Ee+ujNRseq8bLhY5Hl5By0okgXugHhzSNkjsOSqbNIcjUsGUETIEKr7FoF5KlGB64UgAh3PYksHJYBaMYoE4vuUD04u0v1qlvYvKnuze6So9vLDIwY3r7KXuim2pgC9fS0KmdGPEDVoZhtczmxaYZgACujAiNBOvBG8ogOVvc/4I2y2ycjHC5ly0EUUCxjjwtjemO79GVMdmP0XMaXvKB23TIFnsmfm1BpgNhWZaSWjInHfajCcwSQCjWKHTNozR3xy3kZ7kGcVBWyg63h4PFDsu4kEswNp4gkVctbXeaNB0vUGX7Z6hCx6d4qwrM4tgDQzHCtk3grXcBoquEDH2xmf/bW9wJiUJ9sUEcSYAtTfYmA3GqupwqUQTFYQjKbCaGAGP11TK/PtopUhD5QJtGSrTpqESrcPfxSL/vmEIDiMN2jRUprUVc7MP42kzHEkIP5t7r+wTMtwcG62tiGveIhu4QqeT1To9Nlejg4uLdKBWo/3VBj0yu0i7qou0b7FGB+drnEFnf7XGTORv5hdp/2KdZqHfNu3DTE/dAF+YFQt0q7rWNmgwv5ff7VaYn0s/DtCcM+VmArAQ8DLiapoGjGYszWCOmkxlEjllPZxZcygUjN0u1x4H+vtQrB7bTMMIFM8yMs1UnCgzSWP7+B4HUDQOc9snKvSCLRP0Z9vX04neRrGP+3l5qu6B4vLIvf9KDWEJ8w9llaQ4LBUVDXZvd0wv0ifu2Uv/8eCk9lgWVGMyEiYzlUEkXKCxkYWAoDArYGFKREWwmRJYWMcRg1oLqlJRf+PvYB9dyrSUOahxgf2SKyUV4HioCDVwmQ4ZrdAxYyqF2hGjZQ5Bgd8BBmFn2PeqHo2xwVA+Xq3RQ7NVund6ge6amqebp6p0z/QC7ZqtKqayBhaTaKFWUwQjq9j5CGGwwwKMRY1pO81IvwhLq72wg4Dlun9MRw4JMJxhKPlHvAT6WgKmDaqYI7D9t1oHT1k9RK/btobecPga2j7uvZ77uq+XofIeKC6D0Pu1yCaX0wxagUUIEBGp+XBBnXnfdJX+8Z499KNd03TfwQVlRyUqSfbENEBC28Kw2QM5WZtlGiqvgH0QIAgLPUN1FTByRsYUZisatHWkQsdPjNC20SKHmDh2bJiOWTVE42UiJDsAIARbCHUxVMgAkWVJyqKl1HZzl+sFRmw8qLGD+HeLdZqpK4elx+aq3Pe3TM3Trw7M0x0HqzRdrepwPNo7m4G41quHSCfpA/G6FiAoZKPNOhn9btKszKIZNrDLJS9frpdAVyVgp9Qx40nW6ZQ1I/S6I9bSG7at1uFxVpJavqsdMZCFeaA4kN2af6NsNWWTF1S/qRR9RDdMztF3H5ui/3pokh6crjK72MwLBg2RCRRDPpIZKm2CB4Gx8pm209E2fCFHSFVh4zJYzkKBxkolOnSkTFtGiuwwsnm4QuuG1L9bhyu0fohYXYy/twyXGCQ2bS/NFysfZHUpxrWvL26Mply5MYpJxkcAjlOLyjnm0flFemiuSjvna/QwbBtnFujhuUV6YLZKe+YXwyxuEBfPiJFpks6mo5CATC7aVKGa6lGTCe5Bx6e+HgC+8j0vAXPuBJVt0NM3jNLZOzbQ8zaN89rW/yqOnu+JgaqgB4oD1Z2dbQznbObczWozZucJjc8QH/fxhUX62sP76fP376X7Dy6y+pEvM8QFq3d1TmNWFUfFB4xpC5drAgTbdk08pw32KgAayrMaj1eKZRotFWii3KDxknI0QWqzk1aN0rETZTp2vEw7xiq0bRTMYUk5a3NYEJWijPFKEgSY9L7OdmEOb5e81goo8o9sTgiJxGFNlHxw3Tu9SDcdWKCbJmfplwfm6O7peZqaX6DpxSKH7ZmpGYxu4IxjxKQM2EdNaUr4FxMoBs9p71mEDOKx6YFiDh3uX9EvEjCXw6DOaqV60dYJ+tuTNtMx40O02raH7pf2+XoumwQ8UFw20fdbwaaKV/0uvrX4fbrWoP98eD9d8PAB+vHuGarW69TgGH9GMOZwklgNIkVV7DwKu4UkRvocMkMDFlFtB/jFCCSNmDD4PlB7KrUybA43j5bpCauH6alrR+nUtWN09DicTqA6LtFQsaFsEgtFqhTAmSoDegWDokCiMF0GkNK2m+qTJKiy98ZGwP2KFp+bsZTVUzk7pO3Km5qDKsNusQGnmCr9bM8M/XL/LN24f47tGwNVMdhFsRfl1xsOC8E7BZ/q/mTgiC/x7KI+eIhtFtTYDrOC3hOvr5GXQJsSwPjHuNcHbw4X1Myx/YbD19KXTj2MhrCO+SnRpqxX3uMeKK68Ps/W4lD6MFGpqiAsu+YX6cbJefrsfXvo6r1z9Nis2Jk1AYNGlhpDGA4kks85da1kERQHFSyQ4vAg2Qk0aNEL45pKiQ4fGaKjxyp09LhyNlk7VKKtOlTNIch7WykywxhKf4Hg1UFoNqm7VLgpCxXBxAS8TVAo8DIZ/ZhaGB1/QI4GUhACemuk72iSSxWsKNXpWp0emlmgnXOL9OhcjR6aqdEdB+fpxqk5umlqjlO3MRHIt5vspWlaIN+hBgIKRSUuBwLcI4xif4LzjneqL2DAJGAeusWouEjbxsv0psPX0D+cvGXA2uub0y0JeKDYLUn3ezlin1ZQ+Vc14qO5Wo2u3TdH5z98gL618wA9yiDR5XhgqCgBAALmSNKOpRGQyVpJeUZ+Yu39urpSYOC3plyi1SNFOnS0QseND9HJE8N00qphOnZiiEaKOGHbOpswsAiyoIlpnGXfGEDDBmIZoh1GCrKgWWad07S1l+41e97wODfB8ZL4PU1A3WyJAn2IpjO72KDrD8zST/fN0k/2zdLk7CLtn1/kQO0Iv7PIXulapqaqOwQCw+nogliWwXO9JENfFy+BTkhAmERoWeTwrAKwP2fzCL3h8NX07qPWBet2J2rg3zm4EvBAcXD7NteWBTDHzOFMRPfNVuk/HtpPf3fbbqo2ChxtRl1a9cG/C+sjIEqYPkkTZ9obJqi2xFcrlojYWUae13H8ABDKRXrq2mF6+roR+p01Y3TaulE6dLTEgazVj3K/UeZtKjQLR1rRxQt/hX9NlxsuygDKym5TfcqX2MVJ5olBIrMMrGuOh6DpAqQDcej+gCwkU6NW34u8AD1rjQJV68Q2i7dMzdJV+2boJ7tn6Ge75tlBRjGL0jlG9hFWNxtOS6E0gzLuTFOABGPL3+Il0I8SgAlGQK4bB/VGgf54+1p63bZVdPqmMT1Vve65H7t4OevsgeJySr+Pym5iBKVEBT6D3dkn7n+cLnx0in65F+nfTJhl2zSaf8tCZkOwpALRMA42OcgzVyzQaKVEx49XmCWEwfaxq4ZoKzyWOdB1mTYOl1ilrGpvWgrqd3FuZGGvtFOtZhql5qYM+A1OLbNm3QJ2UYPjoGn9jByNBvOvoo8P5dsxOlGlcYTzE4NrLU+VZUaAdfN3HDL2VRfZlGHnfJUemKnRzZNzdP3kHF17YI7mFrRaOiR4AwhiPIgpgxwAkg4pf5+XQD9LQE626tTMWo0i7KvLJfrEyZvo1Yeuoi3D8Ha2TDj6uc2+7l2TgAeKXRN1/xeklhgFtR6bW+T0fB+7ezddu2+WQPyE/RjMBcm2WdRAMWCD0sqmQWPlEq2tlGljpUCbRit06NgQnTiBOIfDdNzEEINGOKKYl0CKpUBRLa5gB4Udc3kzM+gxktfZGcnMxBkBqcYVcCLKtI1e5vvNNkiTlIezukxZN+8NZM7DQcnPlG0INIrKnhqEXNNzdaJbD8zTL/bP0tWTs/TwwUV6DBliFqo0Va3TAg8rlAvWEb/i4CDyDu2cyyw7X7yXQJckYAz7dcMlOnHtCP3tCZvouRuETZR69POBtUuy9MUEEvBA0Q+GVBKQjf9Hu6fpw7ftprsnFzgncFMFKLjBUAkSQqAgJI7BJPLGjowdYIFMnWV0deQROFIcPj5ET9kwSs9cO0LP3jhOp64doQIpBivskayCg6tlUWf/iFgjl0ILW2259Hl1hwJGRRMsDRxOcbG/pnxMdZbEzlTqYpa/Vh2LvBRYZ8VzEKxd2XYqHTXyT6tnmmX8fO8sp4W87PFZuuPADO2Zq1OjXqYGxhfbvcJOQNLZiSOM3xBTTXB/c39KwGTQGwj9VaAnrhmm9xyzjn5v0yo6aqyiojZIXmw/Lfqzn5ep1h4oLpPge6dYBaQUuGquHoGXr82HNYh+vneGvrnzAH3p/v00vdigKoIosr2YEEuaUZIUUgXEtzO9U+U+E0wasfMcYXTWDpfZUxmA8Kmrh+mo8SFaP1yhjZUip8mDR/NSa0KRsov1StoDg8AGJm1rlvtaMYru3SiMoc2/otC1KmNftc4BvZFC8LbJWbppcp5+OVmlWybnaN8CwKKZa1qrtEXNHWRswZskDI9kibHYUjEr4OproKoZ0aYtarLDTRaJ+me8BHjcBeDPzdaH1ciy5qoD8ZaxMr1wyzj9vyds5MQAKpJDXR2+DJMRL2kvgSQS8EAxiZQG+R4ESdaLkgKKalFSQFF5rnAQZSL2QD2wWKfP37eXLnhkim7YP9eUjBnzTtY1ZzBtLGji2SDAQB4QlTQ89wq0sVKmbSNlPg1vG6vQjokhOnnVMJ28aog2DpWoVCyG3GTCuu9B7rSV3TaMmp2zC3TvdJVuPbhAN+6fp9un5une6XnauVCjeRjQire0mS5Q8GAA+owwPCG7CVO+8pDhWa1myMruBN/6DkvAPIDZB67QQG5qaoLltEgvOmSCHVjefNhqjuqgnlCMPb/NM4od7r/Ber0HioPVn+laExA4yLYCdYU6bTY/FvUdKy04n+/NU/P0/926my7dNaMdEgyvY3j88opUJEKQa0Gc/EKVDSVQD/JnODWLqrBOJSqyXeFwqUiV4RI9adUIPXfdOL1kywQdNQ7WsMisZ00vcqYvdbqG+7v7VQKK3xOHpAYbG+xeqNPP9szSd3ZO0VX752j3XJXmqzWaqzVNEQI7RmYLzVzjRqxGRboEMYub2BEqcMlVjfvhQKVnicHC96tMfb17WAKhvOg6cQAvsQaDKAt2g6hULND4SIn+n+M30R8dtoY2D5UC0xioo0PhcHu42b5qvSUBDxR7qz+6WhsV2kUziHrzVafOJoBTauki5/L9xf4Z+ugdu+iWffO0Z07HL2R1n1Rbs4XYiHkhw3eWOpHv1UjPiL9XKjRo40iFTls7Ss9cP0YnrxumQ1m1XKYNQ0UaKaqwNgCz5ll7IPxEutrrA1CYHDK4KQVaaDToAKul4ehSo+v3z9IVu2foR3tm6GC1FmYXeTxKFgvNoPOAUhC0SbcEtPhS9lBSBspjAyBS34Rek4Bp86sHGh9QJH4pFkNZe5u200eMlemPjlxHrzhkFf3W6mEawsGfX6XW9WYoL08p9lqP93J9PFDs5d7pcN3CQLEZ2U4VGw6sfd3+GfrWzin6l/v20fRCnerNgInNWvJiZKmRl7ShuQEXCw06YnSIjhir0JFatXzSqhE6cWKYjhgv01ipyPEOWSGNRY6rZS1wIdTYYYH51/eGBAIzh/BmCv4QKQPvn67SzQfm6boD83TH1DzddXCe7pyp0mIV4XUwYGpERe1ExXuw6TQT6O+0LZc+OFnnnabuzquge2NQDGotTDMdOZkIMDTHXoGOX1Wh0zeN01uPXMeRH9ZX1BhvRi1rEgNe9zyo46Uz7fJAsTNy7Yu3Ltn7JJh2kK6OqNZAmJIGfe7+PXTug5N062SNapJHlFV1wg7qE64wkhJwOojGrNmaItGqUpEmykVC5pSnrxunp20Yo6euG6Hjx4b5c14OjToEcZQVfg1fSxrRF6L3lWxLAoCEMhgkJqZmBPXggX/VTKNGV+2do8sfn6FL9s7QvukaHZhfpMnaokreov5DVIAqGv8aDI0Y/MtebA5CZiUlALgHim11pX84QgJ6XGFsShB/jhJhjDc220FugQatGyrRqw+FXeJqevr6cRrm0GDqXpkZSDHgCvvlu8BLIE4CHijGSWiFfI9NU5xWxPwKK8zUYp1+dWCO/uXex+k7jx6k+cUSNQoIdyPqaXNz1Zu3qOYkaS9U0Uz+qOwBZ2wco+duHKfTNozS4aMVWl8p0VipQMNwTtFAUNmh6eOwSfIEIXZcqHGFdNZKb6Z5OAgONxLlsmlKAbvb6RrGMNFUrU7X7JujH+46SN96bJIWqg2qwemFQZ8enyGjBtMLP0g+rSXv1XYrfQh2p/3WIYTHvXaqkkgSxQJtGqnQGw9bTS/fOkGnrRuh8bJEsFCnbVjyNkNSGKHCutMIX8oASMADxQHoxHaaYGXv1TwNnFsKzCbeM71A//fePfSjXQfpnqmqjoco0bXtDVNUgdoOjLFhgcqlMj1pzTA9YdUwHTlaplNWD9Nxq4bYk3miVKRyoE4W5wPVIjFhDLTLS/Znv2G30/f9+iwAIA4dqvcNj84gzJMRpsmIG/fg7CLdcXCebp6aozsm5+lXk3P0ywPztAinF9N2VgQTBGBvcjJ6ZGqvF/xle0P3q1R9vXtLArK2GSCPPfm1qkU7Aj513Si9eMsEPW/TGJ0wMUybhzU7rvXNDZ0TXWWSwlyRuePXzt7q796ujQeKvd0/Ha+dedoULob9ShtF2jlXpR8/PkMfuO03tHO6qsN2Seo6Dd9MHbEOewPbQzifrK6UaN1whTaNDdELN43T6etH6QkTQzRaLiIVc+C9agbibgbMNlQnzV+pwOjRb84dHxg9WwDGZtPpRFuwavUagnSrwwoPGcN8QUIj6ohPdP2+Wbp8zzRd/PgM7ZldoL3zNdq/QDRXr1Nd0gCaqQblweAsJHnF/Vjs2aHS1xWTgWYDRaJKqUDjlSJtGxumPzx0Fb3l8NW0daRMQ0V9eAqISGQ4qquUpZLPHn/zwdwDxb4eHl2uvAeKXRZ47xSnWJLoTCZFuuDRKfr3+yfpp7sP0nRNp+HjHVhvjrBVhCqE1x2EblA6wZFykbZPDNHT149x6ihkTllbhmq5QEPFogZ7Osy3MD7YlI2Ue03nFQUMYF/jA8X2zuhZ7pqEfZhqSmnMTinqINM8T4idlmSCUWMeKSdhe3ugVqfr9s3Q5fCS3j1D9x6c5xzmipw0VH+BjaJ+Ocwp7HuWWyi+/MGUgESOYFvaOm0cKdEp60bo/Ts20FPXjtKGCkx2miCx6e8XXuMV/+4vL4H0EvBAMb3MBuaJZmo7CTyslpH5ep2DGX/5gUk678H99Ph8lRb5RIqVxsiyIpbRBRW6ZssI1MojbCdz0uoROnK0wgGzDx0tUlmzgGbGFy6MgaIGjWbYEcMWUcVOLmiHZ++9MjADMMzEtsEAACAASURBVIeGKCin2D0VJ059ImppVYQ4BshfCjTic5hX/Ga+Tg/PLtI9COB9YI6u3zfHXtM756tUq2tGJ/CMxt84NJWbgY5zaId/hZeAWwIYyeqQXqAyr62/u3GMnrdljJ68dpQ2VkpsuiPjXt2o4oyyWYYRAk1mggeLfqyllYAHimklNkD3K8ilPT95gSmy2m1PtUZff2SKzn9okn62+6DedSWcCBYtMahu0HilRJuGyuyUcsKaYXr6ulF6xrpRTrHHnnesvtNRjGEjEyxiWpCalVF1MXTMxtk3OFAHm37ypc7DygEasI6mKCbRiAcaqKWxX5rjxASLMs6EcUG2igLNc2idBbpq3yxdvXeWQeNDs1VOGzhd1fZhDErBpMMBxjLDWDI+7fFsOSeExrs0Tups3zvY/TiYrQvz3k0TG2mt/b05BuS7IhWLdY4le8zYCL1k6yq2R3zahpGmNsgMH8Z50hWs5OOQB4qDObS63CoPFLss8F4qztScqTR+BVqo1+mu6QV68y930o37ZqmxqBkVe88F4Cs06NjVI/T8zavodYeuoSesrtDacslg/3qptb4uXgLxEgDOhEvVZHWRWcX/3nmQLt01TXdNzgUbc8CsM1DEoUlnJ5L4jrxTixpcTDbK+sAkam0x38CeDvCpowcUy5oAFQea+Dr7O3pIAtz3cBjRdrSsDkFf6x9oZILghjJuZLxozo/v1x75jTKNDBXo2ZtG6a+2r6cnrhmmTUM42AAQQhUtTl09JANflYGTgAeKA9elyRtkJjgTNcXuhRpdt3+O/vLmx+iOqQUdhEuMvpQd2JaxEp28epievWGccy8fMzFE20YrnGKvYgfETl4df6eXwLJLoE51ZiIXG0ST1ZpWSS8wu3jjgQW6BUG8D8zpwO9ir2gwQWagOj5jNZkhbbsR/BMYUwrzyX5aLpZy2cXiK+CSgGbugkCFisgz4h7KBw5mO9CYWMyxeGFRgyYqsPUeoT/YOk6nbxyjJ64e4TUWmhp1yDfem1zJ4vvSSyC1BDxQTC2ywXkgZKOoM7E8Po8UaHP0Fzc/RrcLUKQGjZeLtHmkRNtHh+n41UP05HUj9Mx143T4aJkmyrJKqWwuYfuwwZGXb8ngSwBAEbt9sZnOgg4u1umR2SrdcnCBbpycY6b9vtkaPTpXpT0LiAbQHP8hB5gQUDTuYTFqxjAABmbcxiiV5ODLv69aKIdiZf9gVF2Ce2pW2ezv4C5lQ9g8LGgjGYSaLRXp+LEhZg+ftG6EI0acuAqmPMpEIijNKFdSsfaV/Hxl+0YCHij2TVd1oKKGAZ/YKyKn8z0Hq/T2Gx+jm/bPUL1Wp2KxTEeNV+jp60fpDdtW0xNXD9HmYdOY39zYABUNL+UOVNu/0kugUxII8TtsjWGqgAs0DdA4V6XzH5mmS3cdpOv3zVAVDGStoZ3+tToRFUTWIlFBmqF27FzRUDVylhithg7MFD1N1Kl+zuW9ckDgPkbn6cDsbI6APm3acoeBpLKrNW298TzSlQ6VijQyUqY/PnwdvemQVXTS6go7CjI4ZHtDFf1B7LaVI2CDij5kWC5d6l/iloAHiit8ZKg4is2gczCpOVht0M/3ztK1++eYSdk+XqKTVg3Tjolh2jpcplXlAg3B006fqMWDVL3IZk5WuIB98/tKAgooNg8+Bn/DzCGntGRP6UV6aKZKdx6cp8t2zdC1k/N038wCUQ1Zi4QtEq9+mRYCIiXAoy5LQkTxc8Y9IZaqr8S4QiprM7+SEhL9K+hORGF8F1I763uLxKrl0zeO0/O3jNPx40N0yHBJZVmRIKAB+yxLtjrEqJJ8PM8VMuiWpZkeKC6L2HukUM6QZwJFteQgjNzBap0egMfnwiIdOlyiQ0fLtLaijKclnI0ZlUvyY4TBYo+001fDSyCFBMxsRYGJYWjfV5sz4i3uWajxgeqWqXkGjfdPLdBdMwv02HyNSELrhICBMJSysWv1o3lPKFJ4ior7W7srAR2KaSkoFCY5yC/pDqWEkGLDZbbx3j4xTE9eM0ynrR2lp6wdoVGhEXW2oWCtDShvCTovTfbsc3c7f2WV5oHiyurvZmv1fmVkOGvG4grSoxlBsfWOKedXW2x+mVqpA2kA223rn9FEMOiabQQLjwDw4kyAOYSMLo/OVul/d83Rd3dN0XWTszS3UOVc0zDnUHHuYLOGDR4gUlST+rNAbWmyjQMo20Fqkql6DjyZ5QCg1dDsGa9ZQ/69TpUi0XipSKNDJXrKmhF6yeYxeuHWVXToSJmGmYwuGpy2madZyG5xotLJDgZJpr4tPSkBDxR7slu6UynTBls58AmXgpRPRh2E9OB78B9BmWpRsy/D9LE7DfGleAnkJAHlTapehpif+hc17IPTkMqFHvxZUAYcAIQHqjXaOV/jEFO/2DtPlzw+TbdNzdLCAiIIVPQ7JIi3rjRPoWZZ/Kk553Jqm39N3hIIjEmbYyNs0qrjyBrmOKUCHTM+RC/YNErP3ThBx08M05aRkvJmLqj8UzDpMQ/eYh6Eb9UKLWrspnNL3i3z7/MSMCXggeKKHQ9qwVEbnrbE0hujsR/qBdDmC2U1NGyx1I6qpen5xRU7rAal4foU1YxAItlclN2hqZ5WnqsK3eGbhUaD9lXrdN90lX49tUC3Tc3RXQdm6dapRdo5t0jTyB8YIEHrWCWI1DzFDYpMB64d4qmuGOcAwEk7ZTksFWj9UIlOnhiiE9aM0hNWD9FvrRqiEyZGaP1QkRA0oplLxQyppNZXAYfMYFvRk3jt9svtwI2sXmuQB4q91iNdqw9OpTrDhF592EmTl6wwnSiLmEDB5vcuABmiXrrWGl+Ql0DuEmAb3qZNYTDudYahoDw2RVMbdpGf0VnUOUd5gR6dW6Rr9s3R5Y9P082Tc/TwTJUmqw06WKvRPHKoB96xBmvpgWLu3Zn7C7mP9BoYeLKrxAX4FPEOYde9erhEx60aphduHKPTN43TjvEKjTCLDPMDsMuIaCvBsyWTlTgYajU0a5sbKs6mZFy1bSRzb6B/oZeAkoAHiit4JHAYm8DORh+I9SpUKGLx0iwJn2SbbGGIN1xCInpWcQUPqQFtOpj3Zg6MJsuoVICKR1RA0Yy3raMiU7XRoJkanF+QU7pKN03O0cW7p+navbN030GopGFrprN5hNIODqg4B6pZ2v6QAV/zGqoU6YjxCv3B5tX0nA1gEYc5L/NouUiVolYxy1qrAaDCfQiB0wSgzDfLqwMrHxUSR23gWqvjWcWBGlW91hgPFHutR5a7PgHOE9N9014mqfVh0vuWu7G+fC+BdiSQ5FBkzqM6TS82CNmP7p6u0r3TC3TXwSqnCvz11Bw9PIfwOkZ9IhmjsAVbqAVAqgHTpdWhwWdNAOJstWFy1/w+SRvbkWHaZx31Mb3EzXiV/OqI+puyZTGJUSjul/iHUjdtE8jLmpl6UeSJZxdpTUVFhzh+YohOWjNCJ64apmPHh+jIsQptqJQZIDqvuOXS2YRe65e0/ejv7ycJeKDYT73l6+ol4CXQxxIwqKEGVM8NemR+ka7cO0tX7p2hXx+Yo8n5GiE70mS1rtTSS2zQxC7YNA8xAA3njdY5qJmaMpGnBVRsIOoEir0m7qRA0bIZDFKLQjbyDqUmVpcJqm2gqPNwi/dycG+BM1ZtLJdow0iBjhir0PGrhtiT+SlrR2n72JCmA1WQbH95CfSrBDxQ7Nee8/X2EvAS6CsJGDEFCJ6sMO4AZqk1iipN4FyVbRm//9g0XbN3lh6bnVdB7Rn4GfnW8Rki40tgb3aV1baUDBR16B1+VoCipJPD9xqwtszLrgGpMG2B/nO5RR6BZkOgV+ou+E8DQ5aHrr/IU4jEKBxnMpRmphWEOCoVmTU8Y+MYvWjrGrZD3FApcjKCMjyY+Z1WeJvlFp8v30sggwQ8UMwgNP+Il4CXgJdAWgmE/FOM1ICFRpFqBDtGqKWr9PDsIj04s0gPTi/QDZPzdNOBeVZRK4CnkY4ymjSywLhUkVplyrcJyygx+IzaL1HXyneCotK2tAv3R9U5wJEaSIfUugbIDFhFIRRbMX7as7jRoMPHhmjHxBAdN16hk9YM09HjFTp0uExHjA7T6nKRhs30zuwkaLKWXZCLL8JLoAMS8ECxA0L1r/QS8BLwEnBKwDQhlAgDgUoTMBDBvAs0W6vTrrk6Xbt/lsEiMr/smavSY/OL9NjcIjvG1AOwY6hPGRgZqtXAK7ehgnwz2SaVMNm1SEpNkFRvdWgkUBTVstFGwzmk2QhDdc8ys1TQsFQsFGikVKCtIxXaOlyiDcMF2jExwrEPTxwfYgeV9cMl7bOkXJrEPFS9TTGYynM+HBuxt4Tpa+Ml0FoCHij6EeIl4CXgJdAVCSxl/ZCxpcCB7pW6VCIRBP4VRFStN2hqsUZX7Z2lH+yepu/vmqZds1War9aojqwvjEnEJdZQUSPeVVGcL+RzYRkjcgPbAKzXQrC46hPUGVKD2l2r4dmb2FD9mhEezIwCfLsOAobQNkUEslbhbQ4ZK9MZm8bpjM3j9LSNI8waDnEZYtNogkxVbh1ZewKtdyMAiupTf3kJ9J8EPFDsvz7zNfYS8BLoQwmEtKAGZlQwUYEIdU+T7dIYhhbrRPsWF2nXgmIUfzPboJsOzNEvwDhOLdD0wiLVa+IsIypjUVNLCrlwCBeV5ENDmkArizA9ItweBDaxwFXXWVT7znBDdrsgiDptGanQcatG6biJIdoxVqHDxyq0ZaRMhwwXadNwidZVSlQuFFX2FHFP0akdzTdKmBsVXbOoROzdWfpwxvoqBytBQyUh9ZeXgJeAl4CXQIclEAKLuqyln+kc6/K9juHInyJdYINoqkp05/QC2y/eOrNAu2cX6fE52Dcu0CPsNQ22sa58KdhzGmhFQKBGLpp4C3lWww5SVLWBSraHtogAYBv2k2x/KWntzEwlOvq51acFsIalIm0ZKvHP5qEiZ05R9ofDtH28TIdrdfOqcomKiKIuYF6jviAiT/ObUBpG03FJydPV8x0ebP71XgI5ScAzijkJ0r/GS8BLwEsgiQSckME0mQtSaTaZwVCqTVPbqQt8dK5Gv56apysen6Ir9s/S3dMLtDBfp2oNqmtE+atTTdTUAhxFRRuqNCoC1apgG1Gx9ghYDDGgupIGZrSdR6DWLxfhhVykMhF7I5ehPh4p0WkTI/TU1cN06pphOnn1KLOGUDcXtIc347t6Af9ngK6cy7X1IZhE7T1eKBRJ+BaUhwfYWz3ArEtNDpKME3+Pl0CvSMADxV7pCV8PLwEvgQGXgAIMYUWzZH1pMn+hrBsBG6XuY6cIre5UdCGyK5Vovl6nmXqNJhcatL9Wo90Li/To7CLdPDlPdxys0t3woj44SzOLYNkAeepBXGn1YkN5Gqihe7E7Aus/ywPctLnUDGCBaGioTNvHhumE8WE6bqxE28crdNhohdaPlGlVqUirS0WaKBVpjDOmEJU0SFc9JWXFR0Hk+9nOUT1XZ7tTopLEXAze14sy9XXyEmgtAQ8U/QjxEvAS8BLoigRMZklAo4aOliEbQzcz44j2qFWfiT2jDpfTQJ5gpZZGqB142cIrel+1Tg/MVOnhuUXaObdIj8+rn93zddo9v0h7Fmu0p1qjXXNVqoE2C0hDM4SOCcy6IqSYQkwU22DP5KFiicYrSn28eQi2hEQbhsq0bqhMY5USHTJSpm3DsDUs0daRMq0fKtNEWQFLIzNpyD7U5E/t3FQ6s7fb6lBjbiFkVSmeUeyFkePrkF0CHihml51/0kvAS8BLIKMEmuyicFcKqTS9dBVYVEAD4E/YqqZ3hMVQapO8gBsMTPSaOal3zi/SnQdVXMZ7Zqt0z8wC3T41T/NVIiSCqTbqVG3UOD81HGiq9QItNuDJ2+B/u2bRrgNWVwpg+QoEKIwUeKw6LigV8lCJaKQMNrBCm0ZKdNRYmU4YG6Ijxkq0Y3yYjhgdofESwtwIbAuzhKGOMwAeY275UpBkA+rkJuhjh6MgALd7CEj/eWeWjFPEP9YzEvBAsWe6wlfES8BLwEugsxJAqJ15/NQaNN9o0Fy9QQu1Os3ViPZVa/Tg7Bw9Mlulx+bqtKtK9PDsHLOOU9UG7Z5boAUkegFAKiwaDhoSLkYDMTOLixlux7QllHzKrD7HD6AgkHGNqFGiYrlII5USbRsq0PpyidZWSnTYaJk2DuGnyA4ocDzZMFyiItWpXERGlBKNFIsEsnC4VKBhBps96Lnd2S72b/cSyF0CHijmLlL/Qi8BLwEvgR6XgOUQjMg6M6yuXmSP6alF5KIm2r9YZbtGgMuD1RrVGso5Zm+1SrO1BtUaDSqCbSMimD/OI4xPdZHm4HEdCjOt1NljxSJNQFVcLlNBexOruNQFWlUq0JZhBRgRy7BSKtKaUoHGigUaLRZpzVCRxktFzq88USTaMFyhMdCLhkcxVPNNBs97Gvf4KPTV6xMJeKDYJx3lq+kl4CXgJZCbBGwMpROZmB+rQOA6p4gBLMFAPjK/yGASDGUJKmkiWmg0aKbeoJ1zVZqG3pqjQ6qogxwrstCg1aUSrS+XaU2lTKUSQvFArV7m9ITrK0XaPjaks9Mo5jIAfVZGG6Ue1raaZuhETWrmJif/Ii8BLwHyQNEPAi8BLwEvgRUmgSU4URsfNh03AO3q7GHNFwNFCTUNe0UVKsZ8j4KL+A6hY9yewngb1ME6eoy8miFfUdseml0hHuDsSaz8iTkguUqYpxxtlOmgdhjhmIo+uvUKG86+uR2WgAeKHRawf72XgJeAl0C/SCCMsZpOIAqGaU9hxQ8aXtJgBgHYVOBrda8GcBEmgqFyml47BsIzg45buWo0COVYhfKExonNzHqCVL2NYr+MPV/P3pWAB4q92ze+Zl4CXgJeAl2VwFIyTqmN1WVmKxZdsFIsK+ZRgcelWUnU08G7Hd7ZzTg1mhwUdXIASA2KUuujORC2wNcQUFT3GjCyqzL0hXkJDJoEPFActB717fES8BLwEkgggVB0v4hQfxKAR/IWN19bDxAdVNJmSB75A9lKAlV2Qfk2F/AZI0Yj1Z4RxgfcobjB8FuXhAcSDhF3hrhLBUbx/iDOZHyg7ARi8rd4Cax4CXiguOKHgBeAl4CXwMqWgKBEkYJLXavVzZobVL7GAtR0yj8JQKjJxmYGGSPmtC5CYonLe4xwhRocKjtGdWkVuORZbsLPZrcFkbON+IaCKVd25/rWewm0LQEPFNsWoX+Bl4CXgJdAP0vAAIpB3MOlYLF5F1hBhKFpcn9NZ5KABDRSDerEMRr0Ae+JGjoIbsMvV6FtzGwpTaCId5hZWSxQGzyk32P4tvRzz/i6ewn0ggQ8UOyFXvB18BLwEvAS6KIEltgiCgoUoGjjRJt0ZHWxpPrTjiyawQtuNdTA3LS6tjMMwu4I5RcuLEILrtFl08FGiUvZRkLlzH8Zamd8YmaA7qJ4fVFeAgMlAQ8UB6o7fWO8BLwEvAQSSICBlWEnqB8xE6nYbzGVzyHrPyPGYThgjrseTZW1AD3xdDE8UgRM6mpKQBw7bbJhBam/UmwnLjGFTCANf4uXgJdACwl4oOiHh5eAl4CXwEqTQAvnleiAMiataNwVoieXcJVLJBvJGDbhnf5N8lsLoEzybg0d429daT3u2+slkFkCHihmFp1/0EvAS8BLwEvAS8BLwEtgsCXggeJg969vnZeAl4CXgJeAl4CXgJdAZgl4oJhZdP5BLwEvAS8BLwEvAS8BL4HBloAHioPdv751XgJeAl4CXgJeAl4CXgKZJeCBYmbR+Qe9BLwEvAS8BLwEvAS8BAZbAh4oDnb/+tZ5CXgJeAl4CXgJeAl4CWSWgAeKmUXnH/QS8BLwEvAS8BLwEvASGGwJeKA42P3rW+cl4CXgJeAl4CXgJeAlkFkCHihmFp1/0EvAS8BLwEvAS8BLwEtgsCXggeJg969vnZeAl4CXgJeAl4CXgJdAZgl4oJhZdP5BLwEvAS8BLwEvAS8BL4HBlkDXgWKj0aBCQSdtN35fbjGb9WpVl6T3xbUnr/fElZP3992od5YysjyTRTbdKidL3QbpGVvOXu7Rvetlk2zkrwQ5xbXR9X3cM8mkm2x8drqsbuzd7cojzfO9gpe6DhRtIS3nwDHrkqYeae6NGhR5vCPNgMvr3l6td7fq1a1y8uqvXn5PK1l6oJi85/yYTCar5QBJyWqW311xY2ElyMAlzTi55NcD+b2pl+rccaCYpLFJ7slP/EvflKX8LM+kAcl4Py5hXzvZ/rTvTlO3NGDAJZ9elUFamfXD/XmM6bTtTDM+0oy7tPXoh/s70f64Pu9Emb0m6zgZpK3vcrNAUe1JM9fStnm57k8yPvPu3260NUmdk9yTV107ChTjTi9JOjmvhuI9eQs27/fl2dZOvatbfZZ2UbPvz7tv7MVf5NuLQD5N3+ctpzRlD8rJv902J3k+7XxI8s40B9cs7+ulZzq5PriAYbfWySR92O26ZAGqScdKu+9ebhCftJ2CV0yiJA5PpXl32nu7DhTTVtDf31sS6BVg0cmFPw7AdHvh7eQI6JX+lDb2Wn06Kfs07/ZySSOt8L3LucFmr3V+T3Z77HS7vKwk0HLUM79eVW/qVhs6ChS72ZB2OqBbwm5Vx24Dn3bkZT6bFjTFMSPmCSqujnEyS1s3u11RTlftvDeuTd38XuRntsfVtm7Nj26V000Z+7KWVwKuNULWmG7N426VE3fAjeoJF8uWV517cU4v5xqX52zopmw7DhTzFEy778oi2CzPJK1nq0Us6TuW4z57ouFv/BSLRWd10shQ3p0GMHZDBnFgqht1GJQy4jbvXoyKsByyTzIX0syt5WhDL5XpAkSdJDNWat/EHeC7MSaiZN+ve243ZNaqjBUFFNMK22RcumGLlmRjSNuGbt0ftyjGfZ/0NJzmPWnu7ZacVno5rjnlGve+75KPlDxklcc7kte4+3ea466Th1AXW9X91rpL7GYfd7OsrPLt5/02a5uzPtdVoIiO+c1vfkMHDhyg+fn5rHXO9BzYLvwMDQ3xv6VSiX8fGRmh4eFh/tcEgzaD1EmguLi4SDMzM7Rnzx7+t16vZ2pjLzwEmY6Pj9OWLVuoUqmEqhS1eKC9c3NzPDZmZ2epVqtFNiXqHehT9OGGDRto7dq1zHDKlWff4b0HDx6k/fv38zjG32ZZvdAHaetQLpdp1apV3GeYF5BlFPuS9N3yPPpzenqaf1r1a9R7UZ/R0VFat24doZ559mXStvTSfWnmSlS9uzVXekVuNniDDLHmTk5OButNFoCHOYO1ztw7srwnLznJuoR2ZdlDMC4w1zZt2sT/Yr5lvcw1EfXC/Mfe5rrSzGm8V8Yv6on1QS5b9gsLC1wu9lXgjSwyydr+vJ8DRlm9ejWv0WnklVc9Og4UzQ0HHfWVr3yFrrzySnrkkUeWbEZ5Ncp+DwQL0ILBD0Fjgk9MTNDWrVvpiCOOoCOPPJKOOuoo58To5MlI3r1v3z667bbb6KKLLqJbb72VQVOvX1GDFZP3iU98Ir3lLW+hzZs3t2yGtB8LyIMPPkjnnnsu3XnnnTy5o4CevRjI35hI6MNXvOIV9NznPrdjkwmLz69+9Su64oor6Oqrr+aNpp8XIHTQmjVr6Ld/+7fpzW9+M4NsgP08LvTNvffeSzfeeCP/QFY2eI8C2TK+ME+PPvpoOuOMM7hu7WxeebRpud+BufLQQw/RV7/6VZ4r2ITTXgA2Mlee85znRM6VTq59aeuc9X5XGwAacND7yU9+QnfddRcf+GQOJ92Ecd/v/M7v8Fq3Y8eOJdVbDsD4y1/+kn784x/z2iR7iGnGYc89G2BhXBx77LH0ute9jtuE+ZZUHlH9A0CO9RLz/4477uD32XM+TRl4Fmv99u3b6Q//8A8ZqNuX9PnOnTvppptuou985zv08MMPE9buuDHdK4d+2/zmsMMOo2c84xn0tre9LTDximtL1jnjBPONLkkGC9yuXbvonHPOoeuuu46mpqacDF6ejTPfhZMHNpmxsTHeCAEc8TtAI5A6fgAcDz30UP4BeMQG2qnL7GRsphdeeCFdc801PKCFeelS16RqYtTCI3WFTDGJ3/3ud9MJJ5zAco27ABLR9gsuuIDbX61WQ4+0KlMWHvQvynrNa15Df/AHf8CnYvO0GVeHqMXG/hzj+H/+5394k7n99tuZmejFfkrTXiy82PCw8D7hCU+g9evXp3nceS8W5QceeIB++tOf8sFw9+7dLKtWl6ufMU9x4HjqU5/KB4Djjjuu7br18wtkrnzzm98MNr+07THnyktf+lLauHHjkrnSzU0obf3bvV/WWwBt7EkYq7jSzGOMVewXT3va0/gQg/UG82g5r/PPP5/XJtlDZG1sBcTMfgZThzY985nPpJe85CW8frdzgQzCXn/ttdfS/fffTyBE8riwj2MdeN/73sfET9TB9oYbbmDy5Re/+AXt3buX91UbqLq0iHnUsd132PUCTsEaeNZZZ/F6iH22m1fHGUVpDE5wd999NwPFW26+hRrUoAIVCP9PO0mzCsgcJPbveKcAxCOPOIKOP/542rZtG61bv543Tpy2opw1stTHnKC33HILy+Xuu+6m/fv3Icp28Mo0i1eWeqR9xtzMozYTLDYY0KeeeipP5Ljr17/+NV1yySV06aWXsprAvqJOoVK+KaNXvvKVhB+ciNthn6LahgMO+uqqq65iVrxfr9CJlQp0zDE76MUveQmBYcLptd0LcvrhD39Il112GTMKpjxdY9rezMx7MPcOOeQQZjxPP/30ri+S7coiz+cxVzBPgrnSIF5Ls1yYJ6961av4YNfOXMlS9nI9g3EJTcCnPvUpOjB5QLFM2IuMtLJp6vakJz2JtRhgF/M4YKUp2773X/7lX+i8887jj3lvBfi19lnzmYD1lE2YGjSxahWPhzPPPJPblPUCKARABAEirG0USEu7oI7dIwAAIABJREFUx4HpfPKTn0xnn302A9sogP6///u/9B//8R+s1RC1dytGM209ssomyXPBeqjnN/rzCac8gffVY445htnebl7LBhRJ53nGEpd1octbUOgcTC/8F4h9xzHH0DOe+Qx61rOexaAx6Ykx7WkcQPFzn/sc3XP33bR/33516ukigM5bjpi8YBSf8pSnJAaK2PgAFl1AMap+rkmfF1CMKnOggCJPPrVJHnX00fT8FzyfXvCCF7A5RrsXGMSPfexjrHKCas/VV7yhGYciu0xz4cYh7Y1vfCO9+MUv5o3M9VzaedduG5fjeTlUXX7pZfQ4DlWwxS0uVeclqVun50qSOnT7HpAUP7r8cvr617+u7IsFTGUEimBjwcJjA4eJhOvqlhraBorYQoLDtLXPhogS45wB5mr7ju30jgigmLQt0CJgPb/44osDkdhAzGbNsO+adWaga9ma16lBp512Gj3/+c+nF77whWxOFnW5gKK55vQSMHS1wZQHyCMPFDOeiDu1yBSpwOzhxKoJ2rhpE6uhoZoD8Dn88MOZXYy70mxaHigqlsQDxbhRld/3vEiHgOJR9PwXvCAXoAg1DwDN5z//ebrvvvuWqJxd6p44kwZ8jwMbgCx+THbf3LzSzLv8pNm9N4WA4uOPq4I9UIztABkXF37rQrr4Bz/gA4xcOJRnBQ0gD3Aw/sAHPkCnnHJKS+ASW8k2b8gEFBuBUo9LjwOKgcz0AVPAnMxf2H9i/sPeHGARDormPfZclfep9YjpsyWXvBsq5m1HHM6HRWgWxPnOA8U2B06Cxz2jaAlJGEUe3GA8ippd3LGD6e7f+q3f4pOj2MC1YkQSyJ9v8UDRA8WkYyWv+/IEijY4g2PW5ZdfTj/4wQ/ocQEzRsWj7ILiWEcc0gAWoRbDYc2lLvVAMfkIWUmMIuye4fjzlS9/hS695JKQvVw7QBFjFg5XcDKAbV8Uq5i8V7LfuVxAUWoMG8BHH32UzXLgQAKVcytzr6bqm1ULTaDItCKr9oJraGiYtmzeTM/9vdPZVvnkk08OwH3UHuwZxexjyX7SA8UYoGjar2BzAlgE7Q0PJDhPtOMwIUV7oOiBYn5TOtmb8gKKNjDD3z/60Y/YNghsong6x4FAm5nA3/BEZXMQQy0Iu9cPfvCDy2LQnUyynb3LM4rZ5AuQCOBy3rnn0ZU//3lzTOVg+gRWEfsCnOiwN+RBHmRpZaeBoq0GtusIGcMu8TOf+QybELmid5hz2WQReX3QRmgucAliBiTNO97xDtbqgV201we7Ph4oZhlF7mc8UHTIpQA6ngdu2H4S6i6AQ5wasWG9/OUv57h9JrORhdHwQNEDxfymdLI3tQMUo8Y4PocNJ9iEL3/5y7xRiKdzFIto1tYGky51NJyU4NkOb1M4n7W6sszFZNJbvrs8UMwm+8cee4wZ7v/90Y/orjvvWmK7F3WQaVWajE/sC7BVBEP7hje8gUGMfNdN0NgpoJjULhFheeC8hogQcBISIOea48HcNNTNrHXWLKLZHyBoQMzAExsmYGBwxfSkVd08UMw2V1xPeaAYART5Y23GZd+C2E2wW4StFOLPRcVgTNpNHih6oJh0rOR1XyeAIlRP8HD+/ve/T9/73ve4qi4WIsoeLAlQxMEMzgPwgIZNmAeK3kYxbk4AtIBN/MIXvkB33nEn7d+3rzkuI9b4uHfK98J4gyz4/d//fQ4xhb0BLGM3QSLq0ymgKPM4qj3QGkDl/O1vf5vDYSF+oQvAmQc3J1A0VM0iX4THApP4vOc9j1XOCFmXVIvngWLSURx/nweKlowwVosFlZmCfxDBx1B9yWaGUyOMaRFe4vd+7/fYZhGnHNdkijuReaDogWL8VM33jrRAMY6dw/cwZP/P//xPDviLGHX2xmBurvK7DRrNuSbPy5zDv9gksAl/5CMfoWc/+9m5BQfPV7qde5tnFNPLFs4VUIn+0z/9E00dmAo8a4Mx6AAoaUqRMQtAA/IA6uduhy/pNFCMAos4HAIYwtwEbCKCajPH4tgzzfUgmNOGpzPbKRqORQCJOBi+6U1vYg2CGY0hbj1CHTxQTDOKW9/rgaJDPlA969EeirFlbm4Y6BjIUIWBFsdJEpQ4NrJWzIgLSHqg6IFiflM62ZvSAkXZKMxNwCxJUqJ94hOf4AC3EhLHvCeOZXCVYXtJot44kGHzAMvQblDgZNLqnbs8UEzXFxg/N998M4MGMF4z09PsKBEAGSM8ThTTHVWibU4BUIO4iu9973s57me3r04yinZbBKghYDkywiDj2s5Hd9Lc7GyIXGk1p3ktCSI+KjMv0+kZmjo4CMHLGXaJScPTSV09UMxvBHqgGCHLpIfMsfFxjusGtYPr1GO+Poq690DRA8X8pnSyN2UBiq3eDON1sAlf/OIXg4w1NqiMUkO77Bdt+0T78IVQVZhzCHa8ki4PFNP39ne/+10GiZxJqVptBqOGfRyHuciW4MAet9AyQe2MGLIwj0B+8m5e3QSKki/7Zz/9KYc1u+qqq2lep56VGMBJ2s6SD4iZ5q/Q1mE/hYMQyBhXqr6493ugGCeh5N97oOiQVZMWVyeeljZV1CCARQTkht0U2EV7UMfR5B4oeqCYfMrmc2feQBGqZgTXhQoKjgM2k+C0TzICAkurbDBpM4pyH5zKoOYDewOmIc+sSflIuDNv8UAxuVwBZpCRA2wXUtuxF64RNzAYa0WdxcQI7pykFNcBB9lZAG4Q5++kk05K8prc7ukmUITdJ1IFnv+N8+mHF1/MshV5JgWKag1qxk7Ec5jHmM/ICgMVfjte5B4o5ja0yAPFFrI0YyrKxmczGzK4YcyMBQLqMLAdto1Gqy7zQNEDxfymdLI3ZQWK9qFH/v7Zz35Gn/3sZ9mo3RUSx5w39u8mSGxltiH34R78PP3pT6d3vetdbLuUhXFIJqneussDxeT9AZB400030be+9S32xOWxqtkrGbfiaZtW7YxauNZ4eOieeOKJ9NrXvpZt17t5dQooukxGkHkJIbCuvupqeujBBwObfmFo4+QZkDGGrhl7KeYx1PaIS4ncxu2wsh4o5jf6BgIoxqmpbHHZm1GUOHVCIetrFQ3UYMsD1QUocuTKff3rX88pAJPmT80TKDbtK1W1s2WBTTbAojb/QUjhF8UCt5vCLySzACEZ8jZUYXGLrWxWre6LMncIgTMq0I5jdtCLXvQiZkLS5noGgwhD9i996UvMLMDAvRvXscceG2RqiQuV0436dKMMDxSTSxnB3s8//3z6+c9/Tvfcc0/TucpcFNvIyhIorI3g0MVSiT1zsQe87GUv49+7xXanAYqBFO3MLKtVrueoFH54Djnub7jhBrrgggvowQceoJnpmZBdvskoutafEPDkvlD7KWz+kccYJiWwTcQ6lHQPdY2KLEAxOEhE2J4lxQ7JR2n0nZKvW3byJ5xyis/13I5g44Ci6+QXnCgj1A32O6M2ZXMiwEYFgVff+ta3sl0FFokkV15AMQCJ+rSr5qDy3DYvV9uS1LMV4JZ3QgZgeNLY6WDz67UUflFAcXp6mj17waDdfffdHCssCaAT2YWBola9hDsniCXmeq+LcWtlGhHXr3gWCzTUZIhPiPELD/40FzIxwE4JcerSyCJNGa57wTYALP7xH/8xszjtbCrt1qVbz3ugmEzSUI3ef//9HPwZtolwrpI13HxDO+PVXG/Vy5sHc8T8Q5xdzCvML9flWmPizJRatT4LUDRtBLG2TCDXMwPFd7D615YVtAVXX301m5lcf/31NH3wYOAcxLK0wg3FAkVdAJ6Fw4o4hsIxSPI4Z5VJWqBo9meU+ryrQNGwnZWg7meffTYDaDjOdvPqW0bR1WFRAMhlS2IuGlEbsgsYARi4Fhy5F8wGjHBf/epXM1hMMsjzBopBSB82/1BhfkQG7Q50W5Y2CN+8eTN7/p111lmsQmjFaEm9ehEoRk1ChIC55pprmEEDWMTCKWMi6cQ1+wB5xUOLsZGdQD43+y/NAcd1gMI77fGOAw0WaKhxsUAnyWVu1hlMIuQB1iavQ0icLFEOfqCqQqYWbGqwWxz0ywNF1cMuEwhZl/EdVKOI6XnOOeewOYQ9b1wHLtfcaDWeTI9dflZzY2AQARChXcLhC9ol+2q1LyTZM1z1SgMUpf1iXiVltgKKiGyAbEtwDLrwwgsJaRHt51kOESwtyjSzqZjrEL7Dngm7Y8RHjQo1l2Z+ZwWKLBvdBtQRdWnnQJGmzua95loKEI3xhH0VB+JW+2rW8lqO9UaXJLB//35mYDBxb7n5Fma6uEMypFACugbrARsQALO4jQ2nSzBB+/bt4x+oJJCsHMa4+C6qc+TzqFOR/TlEiVMQ6gYje9hYuBYJu0PyAop476GHHEKgqOF1182NUxYa9AXABpgeORHGDdx+AopY6ODhi80HoSGgZk0zhfA8xiJO4zdcfwOH6wixkjqWmGtjMTdCc2zCQ/D4449nsAT5J8laYL4fLDDGLPoMvyPEkwuc2nXCRoG2fPKTn+RAu/hdrjQyiRsfrb5HfbHBYC1A1gbzyrrhtlOfTj/rgWIyCSMkDrQUP/zhDwl7j+uKIhCSldAM7RKAUJ6g6mmsvWDn3//+9/N6aM+ppGWkua+TQBHrHOT4ta99ja688kq69957uWouoFinJjGBe2xAaH8GzQD2K7CwkBliUOYxd1MDRR2ux8WMgvRBfmnUE2tOty8ciLHOH3fccV0HidzP/QgUsanh1AEvY9DkSYAibMsEKOK0iY0ewBX2Fvh7cnIyNKCjBrfNoLk2dGzUZ555Jtt7YYDFXXkCxdNOO41e97rX8aaZVPUdV78k37vklXTT7iegmLRNUTIDKEROVKhqL7roIrrvnns5UHVwZQCKAIgYa7DtwSFKMhdIn0Qxi636NQoomp9jPt12223sVXrjjTeqjcMItJtk3LR7D9qKxRux1uBMJnFMZTPq9sm73fbEPe+BYmsJYXziAAOGG57OYLllftmHl9yBogaJUg7s7d73vvfx5g4wlAf4adX6fIDiBG3fsYNzKpuqZxArcAw677zzGCRCxgIU+RcrxE1SLR5UqJDPS1/6UgaJecafbAcoiupZmNczzjiD64h9dTmAovR7p8dQ1PjqS6AIZI9NEa7zyLGZdMMz7wONjo0OWSQwoADWsKC4NtckjKLdgWATMbiwecVdeQJF2MUga8VyXi61UKsNux+Aojku7DGSRdZgFMF4XHbJpWEmzlA9x53EBZi98Y1v5NM4Dk1Rcu7EAoO0aN/4xjfouuuuC9J2iUq4k4yiqTbE72Cu4TgA1Tl+F0Z10EAi+tsDxdazDQcxZGLBuASokQODPOU66NuHoqTzWVTPPNZ1iB3zgAIzHOxR2Ku6ERg+DVAMDnU6PI3MqVWwUTxGAUWkp5XPYWZz7rnnMvAWzYF8h/abJjSubGamXMz1E1oMZFh6y1vekjqgdlw/pQaKGuyyitxyA33Pe97DxNRyX51Yx5O0qW+BImwZ8OMCikmEKSdPqBFhdwEDXdiewQDavGxblmCCtaDU8QwWCXiRvv3tb+cTSCvPt7yB4oc//OFloaeTDDhX3/QiUIxi1MyNpx0gIkDx8ksvI7DdwYmRB9hSZs51QpexiSwlLqAYNw9c3yf9DCYb8Hz89Kc/zXETTbVzknHQzj02UASL+KxnPYuzI0EFDzVNO33TTt06/awHiq0ljMM+MgMh3ziAgnlFaT2yHmrY+YFZRJhQLVW3YhweffTRHOrld3/3d5dUPGp+xs3bKAnkDRTBKKIuyLxy+eWXsxYE89wV1aDpoRvOrhLFLGJPhEoeeyTMRnDINXM4Z5WBKZusQJHfYWl2/vRP/5T+6I/+aFnXFZFJHrJJu071LVBsxSimFSRUgVBDw5MLgBEbn4tBcp1Kzc/MZ+DphiTmWCTgpdRKPd4JoGgC2rSDopP3e6CopAuQhYV3CVDU6qtW6mIbxEYBxbh+TLrwuPoMphtgGWBzLCFxXIequDpk+d4FAqHmg7E3mEUc0jxQjJfsK1/5SsIPzGMGxWMcazmYRNjMih1dcAjTES7ssZEZKDYXf6cmCjIFWARb9sIXvjBxNIG0+5dUIy1Q1GfSkNcyM4o7VHgcOCXCJAthcBBiCBqEqItlKjEqDTbOZYoCQAiQCKdP7OPIkY39Mu85mxkoGuBf9lEAxeVmFM31utv7+0ACRQjRBG3xS6a6A0FZoQ5Edgk5NdmnUHtRcU0E+QwTDapgnMwQsT/qyhMoYqM0GUXZvKMYqaSycQFnm9nJInOU34uMoi2XqIND1sUNQPHSSy6lSy+5hG0WZeJLvlMbdEWNM9QrDVC0N6GsmxJC4mCumCFxbACbdGylvQ+yMNVeeB4bMgDPX//1XzM7kYfXZNp6deN+zyhGSxlrNjREf/M3f8P2dGAX7TUq6uksYLHVnGxiyAKDRPwgQLz5uasuWecj3pUVKEr2MbSHvZ53bGdNGOYTxhtskGGL7Dq8Ru0LZtts2cIuEcw/1NtQPYvTZda1NKpPswJFU/Us/SFAMel46tRaYK+xecss8iDQj84ssFGE2hmnEZxM7EHpOjEm+QynJzCK//qv/8oeXvZC06rzzUmEzsRGhQ0LKgeAxVYBgfMEilBBfuADHwjSmiVpd16D2gUUWy188l0/AMW8ZIT3oN0MFLWNIoBiAHwcgV6jALmAyzgbxaSbT5r7kJXhe9/73hJTjSwbblbZmmMb8w1MIhZ0GMXH2S5nLXO5n/NAMdwDJssChws4VX31q19lc6JGrR6KIdsK6LTbr60ABOwT4WwGRsqMSJD3Jp8GKAYEgunpS0SrEHB7xw4+fIL5Q+irBx98MDCPsYGhCyzbsrTbCdtHAc4AiZ1is1MDRZ0FnNvIEVkURYr6I1Yr1tk4M7J2x1Ha55Ou2Wnfu6QPBw0otisQ5Kz9r//6L97IoYK2mZ1IxG0llsdz2KzgkYng07BVibryBIpIH4hwIShPQvPYbGKeCxQmOdTqWVKorVSgiHHgcmZRC9TSbDrBom6NMRlPWNTh9QsGoJ2+TbLo4PCE8FJf/vKX2W5J0vVJXboJFGURl7KhNsNBCWk0ERVhEC8PFKN7FSARkQSgJt27Zw9PJDtLSLfGpzkPEe4FalYcYhCJAmAjyVxLO37TAEV5txneBp+NjI7Slq1bWAsGz2YcBuH4KbFio8iAJCQK2n3kkUcyyYM5inAvnQKJqE9bQNHI/42+RJ0Bbo866qjIAOpp+6sVlgBIx54aF9ElrzLj3tO3qmeTUcxz0kF1AeCG7BuIxSUBQjnDiYT/0L+bGxXXgb0QlMjxNzwwt23bRv/n//yfll5veQJFhA4CrQ/AiAXKrmPcgEj6vSyECMeClH0Apvg9S7qqfmIU8xprpupZHEHkJMtg0coYtAQAGmNQGEUTKOZVT3s8IFLAtddey/lz0Qb7EJJ0/LRzX1SZGH9QZb3qVa/iiAOmcXw75fXSsx4ounsDzlUwGfriF7/IMXJZG6SBosl6uRiwpGSAKlkof3dy1ChmEVowsFISKsduRR7zNQtQ5BYxgaYYtGKxRMMjwwxoocpHrNgAVBoHVfksCfDGuwEIYX4F5xV4OUMenb6yAEW9eYecWdBGBLxG9ifsq50Oj4M9FGsZMpzBvwG/t0MA5CHngQCKeQhC3oHJAZbkYx/7GIfO4YDcOoSAgC7TjsycMGY6JL63WKQNGzfQP/zDPzCzGHXlCRQxITGwwCZ2I8grBjVsMWEbiU06S2qhfgKKeY21OGcWG+ArD0udfVyrRgRQprFRNOufZXN64IEHOEwG6g+HligVVjAvInKmujYfU41ott+1KbnAoiyw8H5+wxvewLZPgwYWPVBsjmATpDz00ENsLwuTCJMBc5neBOu44dxiM2VLDmqMC4tqw2bWX2W8Wsr/u1cImB4BICFcGtbJTlxZgaJZFw75UywEewdkmeWyATnYQ8QgxFoFUgFMWZb1J01d0gLFVu+Gsw3qbIbfSlOXtPdiLYO5AggxOOq50kB2Wn6hceFVz+4uxKRD0NbHdu7USTyb9goCFEOCZK8vzpnXVFcXiFavWUMf+tCH+CQSFQA7T6CYdkCmuT/KxgcDGR7eWASzBExdiUAxMjyOAaxCTIgR48tmHrMCxTR9j3vh3XzrrbfSP//zP3NWIxyogsVKac2XZqlxqNJNkNiKkWh1ijafs1kcjEUcXGCrmDQ7UFpZLNf9HigqyZubJH7HoZ6jCFx+udOBxcXQ22PIPkQF45QL1EpaCSjPyz3SubqZRXt8QI0IzQvUz1DrdkLlmgdQzGNc2/MRBzbEFYbqFnMSf3cD5OQJFPOQS9p3QFYIHYRA38u9jnlGMaL3ELAVzgZQPzOPY54+HWkHeVNzAMVVq1ezjSI83kAju65+AIouBkcWBDgUgTFFHko48KS9PFA04iguM1CMWsDx+c6dOznWKJy9xFM7CigGmwXvr4Ul4abwPU7J2EDBQgN0wvZxyeFLf2DXqxVQhAoecRWRoQgZMVw2ujbQWG7VTtI544FiGCjCNAhaH4TE+fGPf8xhzuwx5DqM2Opm+xAM+3IAGpgizc7MULW62DR4DMZ0cqCIOqGMP//zP2f7PJgIyRXHpCcdG70GFGWOY2+A4ymAoqQY9UAxvleBF4AbsK/C/no5Lw8UI6SP0ymAIuJxLVU9G6Yq4WNocMBUNh9EE6smuKMHBSjaGyyaj0UVNiceKCafyr3CKLZasO3vED4K6j04C0hEAGF3eCN0kSuaUYQqBe8zVXzwUobZAuKoIeYd4rWJTXCg0rbsouQd+N612eN7mF2cdNJJ9Fd/9Vd8OHOpbZL3VG/dudKBoq0iBsuNTCwf//jH2XbWzL3u0oDY4EzGr32YeMUrXsGHjQsvvJBuv/122vP449onVi3xsEiX39KMENjOQp2Id4e3jqbGKs37zHt7BSgKKAZrCi0aYgnL/tfNA1k/M4qQE9YuOEGBaJIQQvbYsOdD1rET95wHihESQloyJJT/zne+Exj7BotM4DgffthkHvmbAtHY+Dh7IUMdFmXA2w+Mon1KNwGCeHcDKLby7o4ajJ5R7A1GsRWbCA9I5M6FEwvyo2NDDqnGdZgNc1zw73oeuPoensnIdgBPSMy3L3zhCzQzM8M2ZnKFNhZ+WTjzgz0u0QbYJcIQ/J3vfCfbRQGQDsq10oGi3Y+ITIHMIV/72tcIESuiDg8CXlzjwNxscaiAZysCkSOMC8AGnGRuu/U2RRjoYMwuh7O4MYa6wUwHzFongjf3ClCUPsBegPBwYFAxx8EmeqAYN0qa33tG8eZbeNIJ6xa99LuF2iqOYvJuaH0nTpEAiliAxCss2AQj7K5CuT/1BolwA5JuEAuP6/JA8dfM3oLFhaon6WVvCniuX7JN9AqjaMo6CigCJGJDxlxAuAyo+szNlZ8zgGIILOq5Iu+WPoPNDTaRv/zLv2TVM9KuIbAvmEV4gS+xHzO9wA1Vtgso4jOYQ8C+B5uyhMrphror6djNep8HimHJwWb2v//7v/mgAQ/dViplF0ixxxnGIoANVKXwckU2kq9//ev0kyuuoBriMhqx9Vwq7Vb9ivLxfpAGYInAtuWZkaSXgKJkXkEEAoBEtLvb86+fGUWMIw8U+wAoYsMCUMTmJUwhBjqr0BysBqvCJIWRAYJHRkd40QFYhEGva7HqJ6BoLsTyu1c9p9/2ewkoxqkvDhw4wOpmgESo90x2JrTRGqrnKBtFeRabBzZkhAzBdc8997CN2Xe/+122hVxyCKjrXLpGIFx5l8teERswNiu8H7EVo2wcu8lwpB8lS5/wQDEsE5gGIROLMNH2+tTqIGSbMeBehHDBmMGhHp7KuAc2uTCLgJpb4gm205dguV/72tfSqaeeymM0rzHYK0ARssHcxp6HtJpiJtKOzLI8289AETLD+LNtFLsNtkXuXvUcMQIFKCLKv2mjqHZJt6+bySgKWwqgOEiMoovFMwOLe2eWZEtaLwHFuBojLt2//du/MWvjBHHaZLehwVzI3ksfquwNHKyKBN5F+ciKBEcEbMpQIYLF5PcYoami5p5tX4b7cKBDvDN4hMNrEOE54rJiLNciHCd/83sPFJvSuP/++1ktjOwhYpvosqEONruIgPUyNqEahcnC+9//fo57K8GOv//97xN+oOIWswjXOpi0HxFb97TTTmNnK6hn8xp3vQAUYR8M727EdoV9HZx27D7JCxjHybufgaJnFM85h27pE0YRqlAwii5v5gi7/TCCLKhI9ysJKGLhS7sQeBvF3rBRdC28UAND/fapT32K1cJgVZzqPcPjP8TiGEBRABzifALAPf/5z2d7MFySpxebHQCpmCBIbFKTobTnngsoyv0oAw4EOJlLSJJWtphpx27cZpX39x4oNiWK8GVYo+Fkhctmxm3VsPStySTyuV+bMkDVB63PW9/61lCECqi3wXYjYxfH1TWeSdu/KAue/gCLCJUDdjGvgMq9ABRBGsBBDUDRtMmXOZcXKE4idw8Uk0gp2T2eUUzJKCqmsGlVaS4+Lq/PkbHBAIpmO80TOia+rXpOuxh4oNibQBH9iADbyH+OQMYSvsalxnXZKJpzRcYPNkWMlz/7sz/jAMTmBfUhHGawKWNzhpqvyEHGVXgdYeltm+bQHLTsF8Fwo5y3v/3tvCHLJi/lLrGFTLZuLttdHigqQIifc845h82DYD9rXq3GQ9R9+BzxDWFTB5WwhCPBu2B6gbBQSJxg28+mHQjmPHjve99Lz3zmMzPFnnWV2wtAEQAYamfYBiNMVejQqOewOfc6eTDrZ6AYpXpOO97yut8DxRigaNooBrdq1bPNZCwBigPIKLrE5W0U00/HflE9/+xnP+MQIVC7SexEW43MreeYIdqOUIuDQZgRRxHPQRWFDRnhR+xsRVA3Awgh0gDsIRnULQk07o7LKADQZpHgNIONH+pEjFP4vtE1AAAgAElEQVQBi64eS3vASd/r7T/hgSKxPSJMIP793/99SagmHopWxpVWjLP0CMYF0sshlAvsBsXJBO8C2w3nRnjlwywCaSzbUT3jWbxf7PgAFvO4egEoAmDD/vjMM89kdrbT6e5aya2fgSLaJc4sUeFxurleeaAYMdIQaBtqjfPPPz+InyV6ZVF9LQGKjneNjo2xjRQ8MEHJu65+cWZpxoJWMcTq2rkHC6uPo5huqe91oIhFCLESAdqQ9xyqYAA5G5AFc0BsCTnDmRopLqAIhg9qZ4A3O4sPGETYKqJMeJqCyanpUDkFUnEY+SouBQNRQBGfIyQJ1ImI1whbxX6+PFAk2r17N1111VX07W9/m7B2St9Lv6YFirBdBROGzFJI/QgTBdueFekqRdUNU4x2gCLqiRBOyB+MvQG2iiizXXatF4Ai2gE7xRe/+MXM5EO1nkfbsszZvIGimY00WT6eLLVuPhPn9eyBYox8OxEexxY6vOkk6LarOkk7CZMGiw8mzfHHH99RoGirXMzTtavgVAuTZYOmgs4qBskDxfQLQq8ARVv1Kn8DtGFzhCoYoC3NJWpoEyjiebAoAGsIhA3AJs4C5gaP8QQHBYQ8AYsD9kgpnwUoNqjhjOwdXUMwiWAxEToJLKaTEU3TwGW8dyUARdvWUNYx9BvGJTzkEaoJ+cZF7exiDV2HB9caCSCDANiwZYWTleuCyvnBBx9kpy6AVFF/px0KtgkPgCLiz65du7bttH5pgKI9B6LWAbN9Uc/Y+wjehfmN8FcAwdAiZI2hmHSfdfVDWqAYakfdDQUDGWhNSdr+T3o/2h0HFJO+K4/7PKNoSNFcoC6++GKO7QfVmz1Z7I3NXMjM7/A7qHgE/n3GM57BHnWuKy9GMUrFYgJGGei2TVmawaQAgEoej9/NFH4+4HYySfYCUHTaGmrPUKTUg6cncudiQ7ZVuq1aGXJAMex5wexh80CQbRyghLUx34VybrvtNg50fNFFF7Gajzf8RpH/VfbBSJ2W/MImhbAnf/Inf8IHNqjDUh2SkhfV8TtXAlCMEiLGBgAb5g7yjYPlhnNJK9DDY8fh7Rysg4UCg5j3vOc9vEaD5V6iKdIAFQz7Zz7zGd4XwHanvVwHFOTzBZMJ9TPAYjtXGqBo72k2CyvfJwXgtpwBvuH9jBimCAWEuZ9VDZ0VLGYFilyeAyeaY6adfkryLFKLu8LjJHm2E/d4oBghVRjvQ9WATcueNPbpS4CY67SK1DvI74m4XGA2XFfeQDHqRC6TOfhe7bzJLyudmtYw8oIAVSLUe7BPSXt5Z5becmaBTRYA2uc//3kOhG07CyTpXwlSbzp+AaQhAsDpp58emVYPYxNlY05g4+MsMIs1Hc5bHMmSA0XMSfxg44JDC8qHyq9fr5UKFGXNApsIL2eELYMHfpbLXKdhm4jMPR/4wAcIoM20YXWto2DYoWm68cYbsxS95JkoT+ssL88KFFuVFQUUXc/Y90KWIBHAmgIIR2nUkrQ1C1hMDRStioRj/JuKZ+NG86YkDUlyjy7q6O3bmenGvoqA5ct5rVigGDXw8DliZSEcCAYaTq3mvTazYoNDUUkIW4Lo+x/96Ed5EQKL4mIy8gaKGFCYpC7GJhhsaQCiMUL5VGWgS5QBuzMMaHi6QeWQlq3xQLG3gCJYG3g7f/KTn+SDkoQESbpQuRhFjAk4C2CMwHQENlpRF+bQQw89RH/3d3/HIXk4pmKjCBJb59lNBxTlIIdQOQh+jyDA/XoNOlBstS5jDIHhhqczAsDbqR5tYCfvkjVZ1iVzzYbGB5oesM3IxBK3diECAPYFgMUsl616hrMVQkQhQxGAFNbtLKAIdUkDFO16xIHFKNnKc1F7JA5oyLuOwyEOaaaKPU7Wdp3SyiU1UDQc55CDx76wZoWc4TLuoXHjhrV9pSLbd+JwDZMIjJPlvFYcUHSdEs0OwKa4f/9++sd//Ee68soreTGyJ5XrbxeAxGeYGEhYDwo+CrjlBRSlHbAFA2sCYIrLpUqRzTPt4LPVJ5g4YBOR/QLqPagX0k5oDxR7Byii7wASYYeFbBQPP/xwKrUzjzfN//GcMGx5EGQYQXhlLtjjRP4GMARQ/OIXv0gI9o3Pixwih0ctQS2T9DLnKphveJq+733vS/p4z9036ECxlcAxDuDp/M1vfjMwSTCBiv1sFBiScYbvsUaCUURYHJd61B6jAIpg2W+66ab088II3WSC1nXr1nHcQbBuWUx3pN1pgKIpK3NNjxvwUeAuCijifuwJxx13HJMJcHKBzWJakBhXL9f3qYGidsPjg4VjjcFYgcas1SE3Sz3tZ4ATYA4BcA1THTt7Tzdkt2QuNWyEk0dLHe8A+ELmBcS+6sWA2zLQoWbDJvmtb32L7rjjDqfhu0tk9mTD3wisioH1oQ99iCdK1JUnUAS7h+DC+Bfld/JCGzFpwCJigcvq3eaBYm8ARZkDiBkHBxaMy0y2WArP6biHin/GWMEGgbESl7YMqm+E4gGbCVtJ5UXdCMwk0gBFGf+yYcEE5Oyzz2ZziU7Pj07MvUEHilGHTKiZ4UwCkyA4O5lsoskc2gDI7gN77RYvXaxf0P7EMd04uCCndJqc9HF1AihAKBmoaNthu9MARdd+lQYKRJEPZlvN98EEC3shon9gDgKUd/pKDxSby4xoL6SOYPee8pSncGxICdzfqfpDtigDZA/sFLPuq3nWb8UxivZANk+dEsftvPPOY49LLAY2g8Z7oBWnC5+5Jh4Mo6FyjrPdywsoog7w2kOuUgywKK/SdgZQWrYwSVkeKPYOUITaGWo1xIybmpoKbchJ+jIAZg6g2OqAFcX+8Oc6RqO8OytQRPk4sL385S/PNdBxGrm0e+9KBYpYi0XtjPUyiZZE1mQXAxOlAVrCpESk/cvaj666AJzi8ASnDzCbUDO2NBuKKDxPoCjlw8vcnJsmGxvMRyt+qjoZNvdJuQ/aJ6jXwepDpQom1wRdcdq+tDJPDRRNVTL6XbcB7Yf39mte8xreVzvNKLoON8vBIoYOOJ5RbIoD8blgKA3bLIBG10nVBQgFPNqbnUwK2BiASYkCWXkCxZe97GX0wQ9+kBeaqAUyz0HnmtxpwaQHissHFG2VEVi8H/zgBxwWR/o2DdOwFCg2Nw1zfrh+d20EwfgKgKfyfM5yoUyYRwAsvutd7wqlGLPncJb3d+OZQQSKUeuF+TnYRHgco/179+4NqX3tw7w5Xm1AGYxPK4NPaFO0vot6R5b+jhr3+BzezwCLsFnM4iGcBigKuREF9oRkAKPvkhlkbILZpswLVGgUdAgrNU9N+eEZ5NEGUAQoBtPo2j/z2KPSA0VtNAMvd46s0EwgABtWRGvIAuCzjJNee8Yzijr0AWwTYSSN0AfINWuCRBscmoO/FbsIeyzEUIQxr0wI1wDICyji3WBLPvKRj0QmYk8L4pIO2Hbe64Hi8gFFs3/BHsD+S0LiJNlUo8ZHoC4OdiKVUUXvCsp2UW0joljWLvjyRRDW3ihCfZYNJqrXYAOGihGZWhBbUex4k47z5b5vEIFinExhtgSbwM9+9rPsBW86V9mAwj7c28DMtV5HjmE9Xl3AM8vhySzHRThAtQlnKzBuWbxc0wBFV/loEwAiSA3MDZAlCBMHecMcRPa9Vm3n2QzKP2Tj14x9gHLhQARVP9oKu2WJlLH8jKICirzGcHwcnTa00eC83G95y1vihurAfr9igKILyOAzTAKE40BqJqQNA0i0U5W51GL2Z/aCBIcSeHkh/Q6MlVudED1Q/DUDdKg809j+uAA8girjpxu2JO2sCr0QR9GsPzYC2IF9+tOf5tihktc5yebgkkOg9jOQXXjOqAW5iR1bwD8jDWBambvmLlRH73jHO9hY3M5Hm/b93b5/JQJFZEKBpucb3/gGZ+6RK05jYrPlrZhH1zhPsu5n7X8XUIOpEmwVMTZhz5vWFi4PoAgQhzkBVStU4Dg4QssAFhdrhEsmof5gfCVzW4Mugg9xk11EvwAIw8sckRBgU489Mg8W0eyPrIxiFFB885vfnHsdW42fvIFz1rHKc2MlqZ7thQN/Y0P81a9+xXG5kIkCVHuU6kIE7TpR2eoJiR8Fw/m4Ky+giDqAUfzwhz+8pMheGnR25TyjuPyMIsY95sLf//3fc0DjPC6eE0ZGn/AYVKd39Zn8KLsmPGduSJwBqGik8EtROdfmg8/A3sAkBOq+frpWAlC0Wb8rrriCvvvd7/K4tFWhvKkbsezsdbiV2jgtEIwDmmnGkeuQi+fBtGH9hrNHWmerNEDRrGtwqNNsHxwhAVahCUPUA9grI9e7Sw29VL5K9WyCx0ZBhbOy+wl/I1wWwCIAMsiVPK92gCIVtfZCr0dgFAEUu3W1o6HrRB37EihKhgcwR5K7NY1gwRjCuxmLLkAavJsxIcCoCMVunjBbnaJCpyk9GWDHAO8uUOuwxYg7KeUFFFEXbH4I8I2TYdoTadoBllTmre7Dd7feemtqRjFKdYKFB96DSBWXxc4nrQyy3t9rjOID9z/A3qQX/+AHHB6HL23QHbXIJ2m75hZ0ThX9WvVyQ4Xc0Aof7d2MvwINdLxFYtSma2+GUiCatWnTZp4r7zjzHTxObNujuLEd930S2WS5Jy+gCJlhferWXMkiL6zFcK6CvSxSOoJNNNfntPKLGidJxk+rsmwAac6XqL0jCnTCGx9OEwiVA8BmXrYM7b/TAMVQ+VxhpXXFvsFA8cwz+TAFcAgiBcknoIZWM1cZjIQMQUJ2nQZQDM38pVIEc4pwWTiwwaY/KimF/WTceML3P/7xj9lLHrFYkQrUtVeH1ghDX24yoLgHwPn1r389M6Er0U6xL4EiBhMGFRZ60PU4ibRizBBKAemXMFjwA1UzwhwgXM99993HSeaTLgRxixMGEeoDY3mARARz7SZQhBs/YlXB7mM57K+groA9Jn7EOyxugcvCKEYBReTyRfgFnFCzeg/G9XGr77HwwQYuDqT3ElDE/ABj8OUvfonz6LJ6j9f6JmCz55eLVY+SS9KN2DVPospJcniz62MGAscc/d1n/y695a1vDcUcbafvu/FsnkARgc+7MVei1mZ7rtjrBNZsqJ0BFOFglXQcpR2HWcaSfQhxtdG17plgxWZO8R2AmqS9Q0rBjgNFHepUymGguEMBRdgp4oKNKGIKI2Qc1oeZ6WltWWywhFYihqRzAbKH9g3rNSJ2oO1JwWJcGWkZRV7xIuxSEc8Q9cO+Gre2x9Ury/cAqLKvZnm+3Wf6Eiii0QABYI2i4qGZmw6YQgGHYBIR9gOLUNSprpWKIQqgyKIAY2AE2YaxPBZhO0SNq8PyZBQhFyzAAIwALFEgNc1Gv2TDtVP5GTegbJxIobaA6sQu33USzAIUZVKb78PvCMGAOmBsYHJ1Y1KbbcQpHLY3GAOtDgi9BBQRK/EnV/yEPvXJT/JBSmyR7OwE5iLaiimR4bBEJYhAtvrLVqBQYVRRS6sH+H7H862ApIwN/IufIlTagbqb6MSTTqIzXnQGs/8YM66r1QG03cU3y/N5AkUwqa650i5wMjdc/B4FmAAOMFdgn2aOGSkf4xL5xsF0ZwlwnVS+5lhMsy4mnQNJ5Cn7CogGrOEwWXrFK14RSYK41tFMjGICoIiy4ESENQug/f777qfqwkIYxKYIgm8+aMoeKmhkT8K+CZIBskjCHNrjTd6fBSjKs9IfvG4Ui7yXgJR60pOeFGiq0oyVpGMxSjZI9QhNKg53wmjGEVBZyox6pm+BIgYSgAgWO/wetRhBmPDmBGsCxxXx4JLNI8kikQZQgkEEkwhWD/YmeDauQ/MCiigHgwjgyAZJcRMuyaCyQZk5qeR3yQoDRhWAEUA5rv1pgWIrwCKMLsZGNwOVyqIBgAy1EVQprVQUvQQU4cB1+WWX0Xe+/R2eR8GPXvxb9Z8NBnmMMDoQRCh+zeERxpDRSJmlkq4YDi3CaBr3ieeLqYxudahbMj51PEZpDwDK8SeeQO95z3sSObXkMYeSzLNW9+QFFFFG1Fyxma64+WvXN05OrrkiZUh/4rCyc+dOdq66+eabmdVqZ2O2wZo9brgNVrzOuL4SU7w4+Sw5MOkX23IWwIN+AUhEtiuEkkmqmekUUES9QKyAbPnpT3/KKt3rr7tezVc9T21nlTjZub5H6CqAxDe96U0cr9BFNLR6rz3u0gJFc0zYgFHS90md4vo8S/tdz8gYAQECkIoYySCAQqkE8yqsxXv6Eig27Z5kdhu2TTzbzE1HdjslBdfklAlqfy9/28DEtWDhHqh6wSgh3hJAYquQOGaf5AUUpR2uzdssL9MgDzZxJWtX8BIp45BDDqW/+Mu/YDWCyRZEjcO0QNHVlqg+6cIcCm1gAMfwpn3nO9/ZN0Dx/PPPp0t++EPOmBTaUHWsaxcwF7k6GTftwGIuti4wYS/G9j32ws1/W1EUkwDFYH5bQBGHmo2bN3FKPyzCYIF7/coTKMatFyJbYXgTyya0VgQRR/QCLGs20fbtO3iuwE7UjPuKMQUvW3jbfu5zn6P7778/sE3MAyxGtiMlUORIMFacwFabvbnPmHuN6xkkagDTDcAottYuMsRcyzsJFFFHkC2w5Uf4LNgrPrbzMapWF9oKV2W3HdlIkOoPbYf3dVqHHvN9aYGiqx+COWAFXucwQBlZ1KTzyB7rWKOQExzsYpbwSUnLdcqhH72exZjWnGzOE6IGhlEnP9dJTyZj1GkvCpDg82OPPZap87e97W0tbSbtjsgTKNqLf9Qpie9LEZAuaoGW9+N7URVs2bqV3n3Wuxk0i7OR2WYbXGQFijbgdS6kQaS+dqZJ9LMYW6ZswCjDluWss84KqQjsuvUCowjWBsbqiE8HY/WpyQNBQ7lNDrsjFzOzRDoWIIvb4OIYF3tMc5g2w5Yo6UHO9MCWOo9NjHOQY6ROgxrUHqeZDlWdGWr81ryBoilb6SezzfxZYJGWrGFR/WnLFvZez3nuc3mtMLNd4Hk4GGKjh+oZKfPsMZCsJuGMWXHMuLmvJHm/7Cuug7k9T1z1d62dch/YNdgI4hBj2ntLvew5hc87DRSlbNgzI5QZUt0inJkZ1zKJ3JxARJuaQAsE1TviDwMw4uAdpRlyycB8dztAsdXhWMpIs3+mlQvMfuzxCvt77CtQQcuhNk4GacuNur9vGUXT1shG/Us2Jo38W4FAmaDmRAwGhGNTwnf2AgHKHJ6EcLRJc+UFFKM2T+fETAmgXMDZfK8JSLds3ULvPussOvXUU9mGNO7KChTt97rYpbSLf1xd7e9NOz6UL0AR8TNbpXrqBaAIdR7GHvI6//KGG6i2qILqBptaixworcaaS+bmnDQ3SGefxaRNiwKKrjkZOpTYoXoKRJWhIcICjIxGsJFKsvAmuSftOEp6f95AsdVBMminZccWV1f7UOkCTXgHz5XT1aEK4Y/MsYe4ql/5yleCaBRxZbb6vtWhwhwzadcKYbeXAGvDvtYl31brlsw9rB04uCAjCJg1qBtDdXXYiXcLKOJw+dBDD7FzC8xW8Ls5J6JIhbg+FDmCcADBgMPbq1/9ak71J6rWJHNP7skKFF39KbI3WXaVKqAzl5mmVNpjA8UkssirdgMLFEMCKurAn0ZOyiTAR94Rda8MKKhX4TyCUBOgh9PSwnkBxdAmb9p7RYyWNCcie8FrBRQADhkoPuVUJ6NoVycvoBg1KdK0M9XEcqiesPlhgcPm1+tAEWnRLrzwQg6w/SBC4oRsBluHpbEXU9ng1G4W/McQp5iH8J1NI0aJtch32vfY72makYQAoC7FtUGFxqnxOh7PKLFYYPMIhNp64xvfyGwGvrNP891clFuNwbyBovSba40zN8Ws+kV7nTD7KACKZ58dsO+wJ4fa+aKLLqJzzz13SciyVPNT3xzH7oUOK6kKaOYDjlp7XQchW+bms2bx27ZtY1tnrCcwZYq7ugUUUQ+Axdtvv52TVMBuEQ6i6DueYgn2nqDNkgnFGmAwC0EqQ2Q3Q8gzjJVWYNE1P7MARde8t/snmCspNHJxfRf63gpLJmMIplzYV3BwiHOWTFVegpv7Figu2VQMw9qQUbyalaEk5fbC0epUbQ58F1iCDQUMjhH7Ch5J8CK0B1tcP+QJFAN7IsumMEhNJBHyXXt5q4oGrKzYL0vqNRWAq7nfN5hFFEaxVY5rKS4rUExyWufu79SE1kkIzPEkjCK8FnvZmQXpuSB3qJ0RIgoeppCT2RbzVGtveOZQkYVTTA/wL0CyqTJKMsfiDiPYiKAuh6qr1eHNZvplDpvjQICiwGGE2gJQxOaEDWmJVsI4ZMbN505+nxdQTAJgQvdkmUO87OpDOlRpHHtPOzEx+364MtMw5grs4BC3DypngJCoeiaVsT2m0LcyLuPIgrgyzLliO0m6gGMAvB2MuWvPAIuIvQXjEmY8dgQHe4x2EyhK+6CCRl8hFi4iJqD/0gFFxSSredgcZJAH2otDHFLnwckF9ouypiaZn2mBoov8sPf/0N9Z5kTcoJLvi82oDzJubEYxLc5IWrTrvr4EiiGEb4TMsJG/fbqJW3RcJ09TaK7nwSTCIBuqKzizpA3ci/fnBRTFlkgmkXiSqk1RLdBBG2MCoUYNqlYy5Hc3iFj1/O6mjWIcG5MWKLr6KSlobGeyOCeQpWZy2Si62r/cqmdkYbn66qvpk5/8JAc1BgizgZQdHidqfkH2In+0FfMAJ178yOYmMmjVT63uwXfYjMFcIMSVsBfqHNhUAdlMY+hvy8lGRQ5WCzLMRQBa4DwA+7AAXEaEgnIxmnmPLdf78gKKptxsYL0EaPPSkXxXbNUfZogj81Alz6CPv/a1r7FnLRirPOc11mZ400r/5tVfGIsSdk3s9eIOMuZYj9qnJIIF7BRh0iTq56h6dxsoog2YjwCJX/rSl9jpCAfOVECRT6OmCrfBeZZlPGD9AIMGD3Cwq4iiEQUWTbmgDqkDbtsOKxEmMHE4Ia9xZWMPAEXsq2Kj6IFiAknbgMU12ezX2AM4ySJk3yN/g0lEhwEkgh6HYXbWiO35AUVToxfePO3Tkjq/JV/8kwJH3AcWERQ5bBRdziz2u9ICRfv5qAmTZsFKMOQS3YLND2PCdGZxPbjcQJFD4lx+Oav4sLmZIW1Eni6gaLMiJgjG+Mc8gMcm+h7sjbmoCzgxn4nrI3PcYkMGwMXGhPpjc7bnfdTY4DL55vBhiT1XGw0GD1iIkaoLKj8b4Cbq/C7c1GmgaANvaVJcP7VqehRTA4ZIHL/AQGMcQu2MkDjoXwR+jzvcx4kcz6MvoeVA2DKocF2RGLJu/ngO4xL2vnDyuOaaa/h3ySATHNoj1LEuUG3OE/wOOz2oXxEbttXVbaCIuqCdCJuDOJdgFm+44QY+eCa9VLo/AyjynypEl8gBe62EHcPaigDdSeZnWkbRHPtR4z0JZkja9rT3mYwixnAcAZP2/S3n8LJ5PUvOoIxwJQ4ouhY8e4NK0ul2OVjQ0ElQUSFyPkCinWopbQcBKJ5zzjl091130/59+9TiqM21UoE50+jcZEJstbyokdNWVN+/BHQakxq3ZAWKMGAHEEhztTpVtbO5ZakDykuqesaCCrXNZZdeRgcPTgVaF1vdK0CouZSKHV/TnAJOVDhxYxzGnTJRR2xsF1xwAav2kPmCA2xrEBVkZHEcJGw1ooAslIkfAEM4hCC0xWmnneYUoWtxiwKOrrZgE5ZsHdiY4xgMMcUINh61/TTrpoEiNh70HWIqwoTEDJXTzQU5btwJUMS42bNHzxUrOHncO+zvXe2LAjBp3+16j3xm2/PCgxYs4uc//3m68847g40wip1LUheUJUHFkasXh4B2Qq64ykT9AHIBEpFB5he/+AVNH1RgifOU64fMY3nc/mWusbB7RzQNeOebl81q20BRVUBFL5C6yPNiBhBoEfSyMrFqFe04ZgenrJPMLHFyxnqC9iMfN9ZwHOSSqqB5TQkJRk1Pe+1GxhiAfDD+AMwIfh0VX1LqGwcUZW2129cKFyTBDHHySvO9WR6AIkyahFHs5rq0PKrnW27RY7h9RiuJ0KMWK1vQccAC7AiobwBEqAKQWQBqtrjNOaqOUr4LKMq+nQooJhFGxntayTBYfPSCBKBoqp7NCelaIIPN7zJsfnuCsRHFRMT1U8YmZn7MrCcYNTs8juvFAIpYVAEWkXu81WJly96WIWyYbKAYtYhgUYchOjYVeC0mlaVtv2jngYbxOVi5D37wg2xPlSQjUVaBo87IEIGQPrBnM6+iaQenbUiTloP6w4QErAVsw3rxkrmCsSNzpdfqmZSds+cK4iaKcwRSrLYam651RORgPof7cGgB0MKaDWelTl2ihv34xz9Ojzz8cBgApRyL5pxHnXH4+uhHP+qsusx1AYqu9cKWzRJ7XQ3OAMig6o0CijY4NSuEAOk///nP6Qtf+AKzigCLra60oAsHUQB9AGYwrOJ4tqRteh8S1TOnHdS5nqVMOdxiPewm4Moy9qQ/XeFxsrwvyzMdBYr/f3vn7yvVccXxi9PFTof9J7z8DYgSUSPRQEGD+NEh+DOgpKAChBA0FMaCJAUxIEHBK6jIc7oEOVJMgx3ZcZLOTvSZ3XM5O2/uvWd29+7b+H5XQn5+b/bOnc/MnPnOmTkzvgLwBHC3MgeoIoz41DaUZQpo+ZhY6TJipXfxaZmFsr+Fs52Y4aHq8Sz2Rbb2va9nY0Lxr3gUv/++/Vp+uPCy5V/H94Y8DJ5fCmZxexR9/qVO6Qc/lp66Or7V4TrKs+5nGB9bTusKZrHytx7Fp0+bf/2IUJwFBeW3jnQNfv73uUexz/DhgcMT9/Dhw7RHMfrZFxDkHAGUnb6BQDx16lTybC67DSP6PvSZJ0+eNBwW7j/2ntYevYd26NmIW85CPX36dBIWXRwPcmDpmlQNle0g/p6LuVzAmUeRvoJXG5Fx8+bN5t27d2kyY5w/ePloy8IAAA2XSURBVIP3e8asXPmk0r6LuDh58mRz4sSJhS0FY/CwA6lZHdr7017zj+++WxC7NW3Rl4cxhq0ciDd/VE5ehhs3bjT37t0LTf4W+rM7vYETO/qEYombseaqXLvqjwO58fwTNFcS/MuM/Xa9IcvQjMMWF9BVl96jSHvyGiA6QR6jndQ8s8+jmGuamufWph1VKPqXYR8Dyj4XipsY/EueqbyhlBquXXGFmxu3Nw0Udzwno9deL9RXMa1H8S8sPZtQnAWf1BiX2sqvSd9GU3ccf7AuoYiXpCTmo16KmjKtM+2yQpGr835EKM6jaks3j+R9JBftCEWujMTA+7+Vyses/8GDB83uq93m6799HULg9y/O5OxiuyRPgrqI/Ecssodo7A8TKgYCvBd4chiQ+MykxDwif74lItqHfvXRR82vP/44RZmyxEXwQGkiKKEYq90hoegnVe/fv08edoQiddl6etyRSbPl0uG91dYH8HJjuzm8mf7BDSd5/1h3XTLOsfz8/Nmz5quv/rxwLWW0Hbbt2G0pMO8rKwf8XPpUC0W3A8NumMGjyESvZunZM7Sr/tjagvB/+/btPqFofdRcrjXrirSBT37zSTpjkn5KEFpXcFKfUIRfCuBzgXixVr25VPmYZ0vP2PnIjWfrfNONCEUaEoa9TyiOeYSJPx4nH2RLIpLfIRKZjbJXCbe/eRI9/HUZGS8UMTQ21KUBueJMqnU2jPxZJSPXNSvMPYpDnLqCWVqvkDuaJNVXHr06ZsGHnj0/o9PEXNXS8x+/bL50S8+pvO0xRIvms+QxSe3k0KFkMCNCEcNIH7x27VrzluWYf/9nqHTt39O7+asb3R5YxBRnvV2+fDn1l9KAHM6oIuHr16+bu3fvpv1stldxQQj8XDMEzTKGP8taeCsQv33Xpxn/ildeOan1Fb+fd+v6hDuOrNRuzR74/bwEr7ANg31uC9/xZ3tywsW8f+R23IO1v+EdYw8559sywd+EhxihxHFTHGJPeWb7fxcnLpFG4MvJe1MWll3pY6xolU7XQCjev39/3+HXJVZpvM1sF+n6hGKfHfd/4+c3b96krSGPHj1KS9Amymad7MMJHLXjmx22j50haI4JHd7W0u0tpT2KXe1m2/pQfqkA2LxQ/MWdo2gNCAHE0jMblW3peWEpot6mR/pba/zNqJc8iTbI818GBjoLjQ8PIrMrhA9eEn4/xseEIq56BHXbaNOLjZFj/TOHDLQ37vCqjXpOgR1Pn7bBLF0iNNXjljBJFFcQipT5WQpmme1RbNtmvr+7cNODN3jmUfTBLLnhJj33tLLRnhsvvn3/bfPzTx9uYhlsEdk7WXqey3Lt8ePH05ItBnvsZWfLm/IQQMDyM0dzlD7VbeXQoWbntzspQpby1B6eP8hxhQTUqReK5n1Pdb2ltqJdNna3WxkCLxRv376d+r+vx+TtQVO4YLnU9QvBDiWsfq906YaoheeucE6m72u2BxiP2uPHjxs8+CkCen6tZbT6c6HIZIw9eUTlHz16NN1WkntH/R7FhbG1dLPY/MijXDiV9ijmdWhl6BOOePmZwHEYN4KNEwr8uOZvVosySU18PlHAW8zVhkwA6KtMVM07aLY0Px6n5CRaKNsWOSBKQY3+eJxfXNSzVQSDIVf9XL9+Pc02FgZGWzIaSwC4PRi5UGQgYImJRocL+/DhwylKDpc2kc0YGxrlmIMfm7jv3LmTBgGifk0kbZPxt+C0UmfLOzrLPcx88chEzizjXlc6NUe1cK9rX4eejxPbIaBn6/FtEC1tC7FGMMT58+d728ze3l7z/Pnz5g+/+31aOm37QylCsUcokifLRJwxxj7B3INjz+X3tLMXL16k/Yn//OGHOMOOKHk75428jx07loK7NvlhwzwD8a1bt9K+S7+/txWyNQJqXp+ffvZpCoC4cuVKsgvb9LG+gueN5dpttBW5yEm9pCAU6SsEfl24cKG5evVq6g/WF9rv5AKrcP94qX6wO0SvX7x4MS3V2q0eY9RlSTC9evUqLaVz65GdU9rUeLgLYxb97ezZs8m+sEc+F4psw+AMSvYKDgpFNzH1z2EsxEFy5syZtI1klQ/9EeGPXad/fvP3b9q92EutlmV2iPfG5h05cqQhoh3xZKsZlJ+lb7bZEIXtj+wpTV62yqNYcBRQD0R7M66yZcMmsHkbWKW++r47+tKzVQoueRoOB/zSaHBHe+NBtOJYH2+4zONB3szSmGkys+Xfzs5OMiqIw7EqoGRUWKrA8LP8wsBHGvMSjHmfZA3v0rJj7rXieTClIXNILJ4mosKHPniGKDuzcGaeuZjf5wVu73sYevL4f/eXt/OeRMsywyUyr29yQZ0TTPLF5w9Tv2jrnBP550Y8H1xzEcjz+YdQJKLTH+lSKjkig4GLPVQIxf9WDFylrQcYZYTUuXPn0sx+U6LKtzuO5bD9UHgw8mvEbNkv2hKoTwYcVhQuXbq0YJC7PCvRZ68jXWdfqbyPeR3v0vWMviA8b1eZjFtfwYHw8uXLJBT3efr80m0WRNVOsOYvw/PpE9YPCUqyg6r9KsVY9t2YYMeIyMfbzeQX8Vbj3fZbUMxThm0lMAdmpah8TgLgSk7y8wfSl+x0O5FyW0jIB0cJEz62spDHqpwY59kiglcR22PBLeYprn1+vjWH7zMhwAbh2MEGWXnhj63jzFrO5DQbWyr7bLzdltG2afJxBd3CUjuTV+y8TXxq+S3b70cVilZhVkE0GgQBS6wlQbBsISLfAzSihY5AIAr/8BzyOwY8wBP1yH/xIG7yQ+g+PGjQDAT+irJNvkckr9zY5oMnM3kCf5iN0mkxbn1LFORJeVlGYwboIx59h87FYuRdN5nGOiydGcPFTLdkkGxgY+LEESB4HjDsROW1V5xlJwKUjAE8WIpClLNniQnOUAQ+edDOdnd3kzfKIgEjnEr1znYM7h/FM8TPQ/lH8omm8e2BSHlEMFs42Ktok9Bl2wybxalDJjpmC4bacPS9a9LlAzx1YH2FdkOEqR37UfPcTaUteRHJ29oSYpzlNFYg2JaE5wevd9cnDeM+AMMvSc9/RiRidwh2oG0iEm3CNtagWmobCCLECR41VopwACzzMVaMUQgElp1xatD383xZseMcSlYr0iH62UpELqrz9yEPnCR406kTlqFr232env/Hm0dbpY4XjqrJTnmo5UP56J/YH7a+MH57GwR/mDCuslJnAW/WBj0Pz6r2PcZOz7tRLziyEPG2H9Peeax27cs1ulDMB0uMOvsVqcShhrvOCqAB0RFw2SIG+UdH2OTg1lUeZn8MbogkuPhT/dfJYJ3P6mqcCHA8MghGz3aoMdOJKT8eBURUSWQtO/Cvs9ylZ/myIRARTUOTDcpCORlA2JbhjVj0fe3sQnhHPLc8F8+G5WnXjQ3l11fXlJdBK7+HduiZq/49n6DglUV4I35zb0ptXkwgmVD668Jqn7Gu9CUvJm2FOkQU+76yrjzX9Rzfbkp9l9Mj4IydoF0yLthtO/nYMGQ/LL0docJzffR95PvLlrvL04wdt8mZjXc1eXihbY4O+ps/MNwLM9oCbQI7amNInl+fDSUPxkfqhbHS7m73wqrm/X1a6hcGTFB5z6G2EcmHZ/DOTAYQz3kdw4B84WH3UOdlyetu28YYK5NtjfPXi5bGyAi3ZdKMKhSt8+aNYsxO2wehNENfBtqUv7PqDDPCrjaPyDM3kab2vWvTl/qTL1fkeZE0q7Aa+/k5gzHzG/PZUcYlEbIN7xV5/673LP2+S2xF8ulKE33mOnjWlHWVMpW+W/P+Xez7xuQ+jl1/i7JflkVNmZfNY9u+l5d5kwxGF4pR4bapSlmlAUtobqqW/v/zWbYTr9I+u0Tjsu8SqYWp9IkxGfYJnYOaVEfqPiLQarkNpY/0j0iaVcq3Dd8d4lQrKCPPW1aobGt9RMp80HW9Le94oELxoCtB+YuACIiACIiACIiACHQTkFBU6xABERABERABERABESgSkFBUwxABERABERABERABEZBQVBsQAREQAREQAREQARGIE5BHMc5KKUVABERABERABERgUgQkFCdV3SqsCIiACIiACIiACMQJSCjGWSmlCIiACIiACIiACEyKgITipKpbhRUBERABERABERCBOAEJxTgrpRQBERABERABERCBSRGQUJxUdauwIiACIiACIiACIhAnIKEYZ6WUIiACIiACIiACIjApAhKKk6puFVYEREAEREAEREAE4gQkFOOslFIEREAEREAEREAEJkVAQnFS1a3CioAIiIAIiIAIiECcgIRinJVSioAIiIAIiIAIiMCkCEgoTqq6VVgREAEREAEREAERiBOQUIyzUkoREAEREAEREAERmBQBCcVJVbcKKwIiIAIiIAIiIAJxAhKKcVZKKQIiIAIiIAIiIAKTIiChOKnqVmFFQAREQAREQAREIE5AQjHOSilFQAREQAREQAREYFIEJBQnVd0qrAiIgAiIgAiIgAjECUgoxlkppQiIgAiIgAiIgAhMioCE4qSqW4UVAREQAREQAREQgTgBCcU4K6UUAREQAREQAREQgUkRkFCcVHWrsCIgAiIgAiIgAiIQJyChGGellCIgAiIgAiIgAiIwKQISipOqbhVWBERABERABERABOIE/gcdNACsavBP6AAAAABJRU5ErkJggg==;" vertex="1" parent="1">
          <mxGeometry x="690" y="676" width="85.52" height="70" as="geometry" />
        </mxCell>
        <mxCell id="mvXsUkbKWVMToW5rihk2-27" value="" style="group" vertex="1" connectable="0" parent="1">
          <mxGeometry x="820" y="680" width="55.40000000000009" height="62" as="geometry" />
        </mxCell>
        <mxCell id="mvXsUkbKWVMToW5rihk2-26" value="&lt;span style=&quot;font-size: 16px;&quot;&gt;ADLS&lt;/span&gt;" style="text;html=1;strokeColor=none;fillColor=none;align=center;verticalAlign=middle;whiteSpace=wrap;rounded=0;strokeWidth=1;fontSize=16;fontStyle=1;fontFamily=poppins;fontSource=https%3A%2F%2Ffonts.googleapis.com%2Fcss%3Ffamily%3Dpoppins;" vertex="1" parent="mvXsUkbKWVMToW5rihk2-27">
          <mxGeometry y="40" width="55.4" height="22" as="geometry" />
        </mxCell>
        <mxCell id="mvXsUkbKWVMToW5rihk2-25" value="" style="image;aspect=fixed;html=1;points=[];align=center;fontSize=12;image=img/lib/azure2/storage/Data_Lake_Storage_Gen1.svg;" vertex="1" parent="mvXsUkbKWVMToW5rihk2-27">
          <mxGeometry x="1.8550000000000182" width="51.69" height="42" as="geometry" />
        </mxCell>
        <mxCell id="d3zHUJF60a2IDh03rwR_-54" value="" style="endArrow=classic;html=1;rounded=0;exitX=1.129;exitY=0.487;exitDx=0;exitDy=0;exitPerimeter=0;strokeWidth=1;entryX=-0.066;entryY=0.355;entryDx=0;entryDy=0;entryPerimeter=0;" parent="1" edge="1">
          <mxGeometry width="50" height="50" relative="1" as="geometry">
            <mxPoint x="828" y="575.4200000000001" as="sourcePoint" />
            <mxPoint x="949.9906800000002" y="575.4000000000001" as="targetPoint" />
          </mxGeometry>
        </mxCell>
        <mxCell id="YQSdu3m_dBlDb1DBKMtC-7" value="" style="endArrow=classic;html=1;rounded=0;exitX=1.129;exitY=0.487;exitDx=0;exitDy=0;exitPerimeter=0;strokeWidth=1;entryX=-0.066;entryY=0.355;entryDx=0;entryDy=0;entryPerimeter=0;" parent="1" edge="1">
          <mxGeometry width="50" height="50" relative="1" as="geometry">
            <mxPoint x="640.35" y="575.4200000000001" as="sourcePoint" />
            <mxPoint x="762.35" y="575.4200000000001" as="targetPoint" />
          </mxGeometry>
        </mxCell>
        <mxCell id="mvXsUkbKWVMToW5rihk2-38" value="&lt;span style=&quot;font-size: 15px;&quot;&gt;Cleaning&lt;/span&gt;" style="text;html=1;strokeColor=none;fillColor=none;align=center;verticalAlign=middle;whiteSpace=wrap;rounded=0;strokeWidth=1;fontSize=14;fontStyle=1;fontFamily=poppins;fontSource=https%3A%2F%2Ffonts.googleapis.com%2Fcss%3Ffamily%3Dpoppins;" vertex="1" parent="1">
          <mxGeometry x="662.6" y="418" width="80" height="40" as="geometry" />
        </mxCell>
        <mxCell id="mvXsUkbKWVMToW5rihk2-39" value="&lt;span style=&quot;font-size: 15px;&quot;&gt;Aggregation&lt;/span&gt;" style="text;html=1;strokeColor=none;fillColor=none;align=center;verticalAlign=middle;whiteSpace=wrap;rounded=0;strokeWidth=1;fontSize=14;fontStyle=1;fontFamily=poppins;fontSource=https%3A%2F%2Ffonts.googleapis.com%2Fcss%3Ffamily%3Dpoppins;" vertex="1" parent="1">
          <mxGeometry x="848.6" y="418" width="80" height="40" as="geometry" />
        </mxCell>
        <mxCell id="mvXsUkbKWVMToW5rihk2-49" style="edgeStyle=orthogonalEdgeStyle;rounded=0;orthogonalLoop=1;jettySize=auto;html=1;entryX=0;entryY=0.5;entryDx=0;entryDy=0;exitX=1;exitY=0.5;exitDx=0;exitDy=0;strokeWidth=2;" edge="1" parent="1" source="mvXsUkbKWVMToW5rihk2-51" target="mvXsUkbKWVMToW5rihk2-46">
          <mxGeometry relative="1" as="geometry">
            <mxPoint x="1287.8000000000002" y="298" as="sourcePoint" />
          </mxGeometry>
        </mxCell>
        <mxCell id="mvXsUkbKWVMToW5rihk2-43" value="" style="image;sketch=0;aspect=fixed;html=1;points=[];align=center;fontSize=12;image=img/lib/mscae/Databricks.svg;" vertex="1" parent="1">
          <mxGeometry x="1145.9" y="254.99999999999997" width="56" height="53.76" as="geometry" />
        </mxCell>
        <mxCell id="mvXsUkbKWVMToW5rihk2-45" value="" style="image;aspect=fixed;html=1;points=[];align=center;fontSize=12;image=img/lib/azure2/analytics/Analysis_Services.svg;" vertex="1" parent="1">
          <mxGeometry x="1460.8999999999999" y="249.35999999999996" width="66" height="50.28" as="geometry" />
        </mxCell>
        <mxCell id="mvXsUkbKWVMToW5rihk2-47" value="Data for Downstream engineers" style="text;html=1;strokeColor=none;fillColor=none;align=center;verticalAlign=middle;whiteSpace=wrap;rounded=0;strokeWidth=1;fontSize=16;fontStyle=1;fontFamily=poppins;fontSource=https%3A%2F%2Ffonts.googleapis.com%2Fcss%3Ffamily%3Dpoppins;" vertex="1" parent="1">
          <mxGeometry x="1397.3" y="306.64" width="193.2" height="40" as="geometry" />
        </mxCell>
        <mxCell id="mvXsUkbKWVMToW5rihk2-50" style="edgeStyle=orthogonalEdgeStyle;rounded=0;orthogonalLoop=1;jettySize=auto;html=1;exitX=0.5;exitY=1;exitDx=0;exitDy=0;" edge="1" parent="1" source="mvXsUkbKWVMToW5rihk2-47" target="mvXsUkbKWVMToW5rihk2-47">
          <mxGeometry relative="1" as="geometry" />
        </mxCell>
        <mxCell id="d3zHUJF60a2IDh03rwR_-5" value="" style="html=1;verticalLabelPosition=bottom;align=center;labelBackgroundColor=#ffffff;verticalAlign=top;strokeWidth=2;strokeColor=#999999;shadow=0;dashed=0;shape=mxgraph.ios7.icons.data;" parent="1" vertex="1">
          <mxGeometry x="766.6" y="538" width="53.02" height="76" as="geometry" />
        </mxCell>
        <mxCell id="d3zHUJF60a2IDh03rwR_-9" value="&lt;font style=&quot;font-size: 15px;&quot;&gt;Silver&lt;br&gt;Layer&lt;br&gt;&lt;/font&gt;" style="text;html=1;strokeColor=none;fillColor=none;align=center;verticalAlign=middle;whiteSpace=wrap;rounded=0;strokeWidth=1;fontSize=14;fontStyle=1;fontFamily=poppins;fontSource=https%3A%2F%2Ffonts.googleapis.com%2Fcss%3Ffamily%3Dpoppins;" parent="1" vertex="1">
          <mxGeometry x="753.6" y="618" width="80" height="40" as="geometry" />
        </mxCell>
        <mxCell id="d3zHUJF60a2IDh03rwR_-7" value="" style="html=1;verticalLabelPosition=bottom;align=center;labelBackgroundColor=#ffffff;verticalAlign=top;strokeWidth=2;strokeColor=#CCCC00;shadow=0;dashed=0;shape=mxgraph.ios7.icons.data;" parent="1" vertex="1">
          <mxGeometry x="952.09" y="538" width="53.02" height="76" as="geometry" />
        </mxCell>
        <mxCell id="d3zHUJF60a2IDh03rwR_-10" value="&lt;font style=&quot;font-size: 15px;&quot;&gt;Gold&lt;br&gt;Layer&lt;br&gt;&lt;/font&gt;" style="text;html=1;strokeColor=none;fillColor=none;align=center;verticalAlign=middle;whiteSpace=wrap;rounded=0;strokeWidth=1;fontSize=14;fontStyle=1;fontFamily=poppins;fontSource=https%3A%2F%2Ffonts.googleapis.com%2Fcss%3Ffamily%3Dpoppins;" parent="1" vertex="1">
          <mxGeometry x="938.6" y="618" width="80" height="40" as="geometry" />
        </mxCell>
        <mxCell id="mvXsUkbKWVMToW5rihk2-52" value="&lt;span style=&quot;font-size: 16px;&quot;&gt;Unity Catalog&lt;/span&gt;" style="text;html=1;strokeColor=none;fillColor=none;align=center;verticalAlign=middle;whiteSpace=wrap;rounded=0;strokeWidth=1;fontSize=16;fontStyle=1;fontFamily=poppins;fontSource=https%3A%2F%2Ffonts.googleapis.com%2Fcss%3Ffamily%3Dpoppins;" vertex="1" parent="1">
          <mxGeometry x="1093.6" y="312" width="160" height="40" as="geometry" />
        </mxCell>
      </root>
    </mxGraphModel>
  </diagram>
</mxfile>
